<svg xmlns="http://www.w3.org/2000/svg" viewBox="0 0 500 500"><g id="freepik--background-complete--inject-7"><path d="M87.59,295.29l-13.12.28-6.66.11c-2.23.05-4.47,0-6.7.06h-.44v-.45l-.06-11.19v-.5h.5l13.24.06c4.42,0,8.83.12,13.24.17h.28v.27c0,1.9-.09,3.79-.13,5.65Zm0,0-.14-5.65c0-1.87-.11-3.71-.13-5.54l.27.27c-4.41.05-8.82.16-13.24.17l-13.24.06.5-.5,0,11.19-.45-.45c2.18,0,4.36,0,6.55.06l6.58.11Z" style="fill:#ebebeb"></path><path d="M72.82,309.4l-13.12.28-6.66.11c-2.23,0-4.47,0-6.7.06H45.9v-.45l-.06-11.19v-.5h.5l13.24.06c4.41,0,8.83.12,13.24.17h.28v.27c0,1.9-.08,3.79-.13,5.65Zm0,0-.14-5.65c-.05-1.87-.11-3.71-.13-5.54l.27.27c-4.41,0-8.83.16-13.24.17l-13.24.06.5-.5-.05,11.19-.45-.45c2.18,0,4.36,0,6.55.06l6.58.11Z" style="fill:#ebebeb"></path><path d="M424.79,400.91l-13.12.27-6.66.12c-2.23,0-4.47,0-6.7.05h-.44v-.44l-.06-11.19v-.51h.5l13.24.06c4.42,0,8.83.11,13.24.16h.28v.27c0,1.89-.09,3.78-.14,5.65Zm0,0-.14-5.66c0-1.86-.11-3.7-.13-5.53l.27.27c-4.41.05-8.82.16-13.24.16l-13.24.07.5-.5-.05,11.19-.45-.45c2.18,0,4.36,0,6.55.05l6.58.12Z" style="fill:#ebebeb"></path><path d="M410,415l-13.12.27-6.67.12c-2.22,0-4.46,0-6.69,0h-.44V415l0-11.19v-.51h.5l13.24.06c4.41,0,8.83.11,13.24.16h.28v.27c0,1.89-.08,3.78-.13,5.65Zm0,0-.14-5.66c-.05-1.86-.11-3.7-.13-5.53l.27.27c-4.41,0-8.83.16-13.24.16l-13.24.07.5-.5L384,415l-.45-.45c2.18,0,4.36,0,6.55.05l6.57.12Z" style="fill:#ebebeb"></path><path d="M453.66,293.67l-13.13.27-6.66.12c-2.22,0-4.46,0-6.69.05h-.45v-.44l-.05-11.19V282h.5l13.24.06c4.41,0,8.83.11,13.24.16h.27v.27c0,1.89-.08,3.78-.13,5.65Zm0,0-.14-5.66c0-1.86-.12-3.7-.13-5.53l.27.27c-4.41.05-8.83.16-13.24.16l-13.24.06.5-.49-.06,11.19-.44-.45c2.18,0,4.36,0,6.54,0l6.58.12Z" style="fill:#ebebeb"></path><path d="M438.89,55.2l-13.13.28-6.66.11c-2.22,0-4.46,0-6.69.06H412V55.2l0-11.19v-.5h.51l13.24.06c4.41,0,8.82.12,13.24.17h.27V44c0,1.9-.09,3.79-.13,5.65Zm0,0-.14-5.65c-.05-1.87-.12-3.71-.14-5.54l.28.27c-4.42,0-8.83.16-13.24.17l-13.24.06.5-.5-.06,11.19-.44-.45c2.18,0,4.35,0,6.54.06l6.58.11Z" style="fill:#ebebeb"></path><path d="M453.66,69.31l-13.13.28-6.66.11c-2.22,0-4.46,0-6.69.06h-.45v-.45l-.05-11.19v-.5h.5l13.24.06c4.41,0,8.83.12,13.24.17h.27v.27c0,1.9-.08,3.79-.13,5.65Zm0,0-.14-5.65c0-1.87-.12-3.71-.13-5.54l.27.27c-4.41,0-8.83.16-13.24.17l-13.24.06.5-.5-.06,11.19-.44-.45c2.18,0,4.36,0,6.54.06l6.58.11Z" style="fill:#ebebeb"></path><path d="M72.82,55.2l-13.12.28L53,55.59c-2.23,0-4.47,0-6.7.06H45.9V55.2L45.84,44v-.5h.5l13.24.06c4.41,0,8.83.12,13.24.17h.28V44c0,1.9-.08,3.79-.13,5.65Zm0,0-.14-5.65c-.05-1.87-.11-3.71-.13-5.54l.27.27c-4.41,0-8.83.16-13.24.17l-13.24.06.5-.5L46.79,55.2l-.45-.45c2.18,0,4.36,0,6.55.06l6.58.11Z" style="fill:#ebebeb"></path><path d="M251,255.59l-13.13.28-6.66.12c-2.22,0-4.46,0-6.69.05h-.44v-.45l0-11.18v-.51h.5l13.24.06c4.41,0,8.83.11,13.24.16h.27v.27c0,1.89-.08,3.78-.13,5.65Zm0,0-.14-5.65c-.05-1.86-.11-3.7-.13-5.53l.27.27c-4.41,0-8.83.16-13.24.16l-13.24.06.5-.49L225,255.59l-.44-.44c2.18,0,4.36,0,6.54,0l6.58.12Z" style="fill:#ebebeb"></path><rect x="107.64" y="121.96" width="139.61" height="179.13" style="fill:#fff"></rect><path d="M247.25,301.09l-139.61.09h-.09v-.09L107.42,122v-.22h.22l139.61.1h.12V122Zm0,0L247.13,122l.12.12-139.61.1.22-.22-.12,179.13-.1-.1Z" style="fill:#263238"></path><path d="M121.86,136.25a3.73,3.73,0,0,1-1.14.48,4,4,0,1,1,1.14-.48Z" style="fill:#ebebeb"></path><path d="M121,132.43a1.21,1.21,0,1,1-1.2-1.2A1.21,1.21,0,0,1,121,132.43Z" style="fill:#fff"></path><path d="M121.86,135.76v.49a3.73,3.73,0,0,1-1.14.48,3.94,3.94,0,0,1-3-.48v-.49a2.08,2.08,0,1,1,4.16,0Z" style="fill:#fff"></path><path d="M234.41,132.44a.38.38,0,0,1,.37.37.37.37,0,0,1-.74,0A.38.38,0,0,1,234.41,132.44Z" style="fill:#ebebeb"></path><path d="M235.56,132.44a.38.38,0,0,1,.37.37.37.37,0,0,1-.37.37.36.36,0,0,1-.37-.37A.37.37,0,0,1,235.56,132.44Z" style="fill:#ebebeb"></path><path d="M236.7,132.44a.37.37,0,0,1,.37.37.36.36,0,0,1-.37.37.37.37,0,0,1-.37-.37A.38.38,0,0,1,236.7,132.44Z" style="fill:#ebebeb"></path><path d="M127.84,132.81c1.95-.18,3.9-.27,5.85-.34s3.9-.09,5.85-.1,3.9,0,5.85.1l2.92.12c1,.08,1.95.12,2.92.22-1,.1-1.95.14-2.92.21l-2.92.13c-1.95.07-3.9.09-5.85.1s-3.9,0-5.85-.11S129.79,133,127.84,132.81Z" style="fill:#ebebeb"></path><rect x="111.8" y="143.75" width="131.28" height="115.23" style="fill:#ebebeb"></rect><path d="M123,271.33a9.17,9.17,0,0,1-2,2.4,12.91,12.91,0,0,1-1.37,1.07h-.36a12.32,12.32,0,0,1-3.41-3.47,3.82,3.82,0,0,1-.23-3.64,1.79,1.79,0,0,1,1.6-.92,2.52,2.52,0,0,1,2.22,1.56,2.54,2.54,0,0,1,2.22-1.56,1.81,1.81,0,0,1,1.61.92A3.83,3.83,0,0,1,123,271.33Z" style="fill:#ebebeb"></path><path d="M148.1,275.26l-.57-.11-1.16-4.33-2.69-2.94.24-.54h9.48l.26.52ZM144.65,268l2.25,2.46.07.13,1,3.78,4.78-6.37Z" style="fill:#ebebeb"></path><rect x="146.02" y="268.84" width="8.02" height="0.64" transform="translate(-96.27 83.98) rotate(-23.93)" style="fill:#ebebeb"></rect><path d="M133.78,274.85a4.05,4.05,0,1,1,3.88-2.89l.61,2.5-.39.39-2.13-.5A4.09,4.09,0,0,1,133.78,274.85Zm0-7.44a3.4,3.4,0,0,0,0,6.8,3.5,3.5,0,0,0,1.76-.48l.24,0,1.74.41L137,272v-.17a3.42,3.42,0,0,0-3.24-4.45Z" style="fill:#ebebeb"></path><path d="M233.9,274.8l-.51-.26v-6.88l.32-.32h5.59l.32.32v6.88l-.51.26-2.6-2.37ZM234,268v5.92l2.28-2.13h.37L239,273.9V268Z" style="fill:#ebebeb"></path><path d="M115.27,281.19c4.67-.18,9.33-.26,14-.33s9.33-.07,14-.1,9.33,0,14,.1l7,.12c2.34.07,4.67.11,7,.21-2.33.1-4.66.14-7,.22l-7,.12c-4.67.07-9.33.06-14,.1s-9.33,0-14-.1S119.94,281.37,115.27,281.19Z" style="fill:#ebebeb"></path><path d="M115.27,287.91c8.81-.18,17.62-.27,26.43-.34l26.44-.1,26.43.1,13.21.13,13.22.21-13.22.21-13.21.13-26.43.1-26.44-.11C132.89,288.17,124.08,288.09,115.27,287.91Z" style="fill:#ebebeb"></path><path d="M115.27,291.27c7-.18,14.1-.27,21.15-.34l21.15-.1,21.15.1,10.57.12,10.57.22-10.57.21-10.57.12-21.15.1-21.15-.1C129.37,291.53,122.32,291.45,115.27,291.27Z" style="fill:#ebebeb"></path></g><g id="freepik--Plant--inject-7"><path d="M87.41,371.6s-19.72-4.48-30.54-14.44S40,329.35,40,329.35a170.29,170.29,0,0,1,22.12,5.81c1.77,1.89,5.13,5.78,6.7,9.46a45.52,45.52,0,0,0,0-6.76,30.6,30.6,0,0,1,7,4.26C84.88,350,87.41,371.6,87.41,371.6Z" style="fill:#FF2D55"></path><path d="M52.34,338c-2.69-1.86-5.43-3.65-8.11-5.53a.16.16,0,0,1,.17-.26c5.08,3,10.09,6.28,14.94,9.68,1.69,1.18,3.35,2.42,5,3.67L64,345c-.59-1-1.22-2-1.84-2.94A43.11,43.11,0,0,0,58,336.47c-.06-.06,0-.15.1-.09,1.53,1.77,3.06,3.53,4.47,5.41.66.89,1.28,1.81,1.87,2.76.31.49.61,1,.89,1.49.09.17.2.34.29.51,2.56,2,5,4.09,7.41,6.3,1.46,1.36,2.87,2.78,4.24,4.23-.76-2.38-1.43-4.8-2.32-7.15,0-.08.11-.11.13,0,.86,2.46,1.8,4.94,2.47,7.47,1.51,1.64,2.95,3.33,4.32,5.09,0-.11,0-.22-.08-.32-.22-.93-.45-1.86-.7-2.78-.48-1.79-1-3.56-1.61-5.31a30.71,30.71,0,0,0-5.3-10c0-.06,0-.16.1-.09a38.6,38.6,0,0,1,7.56,15.78c.21.84.41,1.68.6,2.53.1.44.22.9.29,1.36.6.8,1.18,1.62,1.74,2.45a85.28,85.28,0,0,1,8.35,16.37,186.73,186.73,0,0,1,6.32,19.71c0,.13-.16.18-.2.05C95,390.66,91.1,379,84.5,368.63a75.88,75.88,0,0,0-4.51-6.3,37.35,37.35,0,0,1-9.59-1.91,42.65,42.65,0,0,1-9.61-4.65,57.32,57.32,0,0,1-4.93-3.72.06.06,0,1,1,.08-.1,39.84,39.84,0,0,0,9,5.47,50.06,50.06,0,0,0,10,3.34c1.45.32,2.93.55,4.41.75a82.67,82.67,0,0,0-5.82-6.44c-.66-.67-1.35-1.31-2-1.95a47.42,47.42,0,0,0-7.29-4.18c-3.23-1.56-6.42-3.21-9.62-4.84-1.8-.92-3.59-1.86-5.41-2.75-.08,0,0-.15.07-.11,3.24,1.57,6.53,3,9.81,4.53,3.08,1.41,6.19,2.83,9.15,4.49l.37.22c-2.67-2.33-5.44-4.54-8.27-6.68Q56.39,340.83,52.34,338Z" style="fill:#263238"></path><path d="M53.46,348.2c1.6.7,3.24,1.32,4.83,2.06s3.18,1.66,4.73,2.58c.07,0,0,.14-.07.1-1.57-.75-3.16-1.45-4.72-2.24s-3.17-1.66-4.81-2.38C53.34,348.29,53.38,348.16,53.46,348.2Z" style="fill:#263238"></path><path d="M151.5,272.18a28.18,28.18,0,0,0-5.9,16.38c-.06,1.77.22,4.24.42,7.14-7.35,3.92-12.87,11-12.87,11,4.18-2.51,9.91-3.53,13-3.12a40,40,0,0,1-.75,5.9c-1.37-.08-4,.1-8.37,1.65a18.86,18.86,0,0,1,7.54,1.5c-3.51,11.19-14,22.69-42.83,27.57a60.57,60.57,0,0,1,5.11-40.62C115.51,282.56,151.5,272.18,151.5,272.18Z" style="fill:#FF2D55"></path><path d="M91.76,388.07q.75-7.17,1.87-14.3a283,283,0,0,1,5.82-28.25,113.76,113.76,0,0,1,4.16-12.88,19.84,19.84,0,0,1-.1-2.31c0-.92,0-1.85,0-2.77,0-1.85.11-3.7.27-5.54a66,66,0,0,1,1.77-10.82c.53-2.06,1.14-4.08,1.75-6.12,0-.08.15,0,.13,0a80.72,80.72,0,0,0-2.14,10.81,103.21,103.21,0,0,0-1,10.83q-.06,1.49-.06,3c0,.42,0,.85,0,1.28a92.33,92.33,0,0,1,4.87-10.07A122.7,122.7,0,0,1,119,306.16a5.85,5.85,0,0,1,.23-1.61l.42-1.93c.3-1.32.63-2.63,1-3.94.71-2.61,1.66-5.14,2.48-7.72a.07.07,0,1,1,.13,0c-.76,2.55-1.27,5.2-1.86,7.8-.28,1.29-.57,2.58-.85,3.87-.14.64-.28,1.29-.41,1.93l0,.15q1.75-2.22,3.58-4.36c5.51-6.46,11.55-12.42,17.63-18.34.75-.73,1.52-1.44,2.28-2.16.06-.06.15,0,.09.1-5.81,6.06-11.54,12.2-17,18.62-1.29,1.52-2.55,3.07-3.8,4.63l2-1.3c1.68-1.1,3.38-2.17,5.13-3.15s3.52-1.94,5.32-2.83,3.83-1.67,5.61-2.71c.08,0,.15.09.07.12a43,43,0,0,0-5.27,2.92c-1.76,1-3.51,2.09-5.24,3.18s-3.4,2.14-5.08,3.24c-1.41.91-2.79,1.9-4.25,2.75A137.58,137.58,0,0,0,112,318.92a96.73,96.73,0,0,0-4.78,9.06l1-.45,2.65-1.17c1.69-.76,3.4-1.49,5.1-2.23,3.24-1.41,6.53-2.7,9.7-4.25a44.3,44.3,0,0,0,5.18-2.87.07.07,0,1,1,.07.11c-5.92,4.08-12.55,7-19.1,9.86L109,328.23c-.78.35-1.56.73-2.36,1a100.16,100.16,0,0,0-4.88,13.37,272.17,272.17,0,0,0-6.28,27.93C93.79,380,92.67,389.49,91.81,399c-.11,1.19-.22,2.38-.35,3.57a.38.38,0,0,1-.76,0C90.76,397.72,91.25,392.88,91.76,388.07Z" style="fill:#263238"></path><path d="M109.32,308.35c.53-2.93,1.31-5.8,2.1-8.67,0-.08.15-.05.13,0-.73,2.82-1.25,5.69-1.78,8.55s-1,5.85-1.43,8.79c0,.05-.09.05-.08,0A77.54,77.54,0,0,1,109.32,308.35Z" style="fill:#263238"></path><path d="M121.76,316.31a52.13,52.13,0,0,1,6.28-3.53c1.05-.54,2.11-1.06,3.18-1.58s2.24-1,3.33-1.52a.07.07,0,0,1,.06.12c-1.05.53-2.05,1.17-3.09,1.73l-3.2,1.76c-2.12,1.13-4.19,2.39-6.41,3.31A.16.16,0,0,1,121.76,316.31Z" style="fill:#263238"></path><path d="M87.06,337.42s-18.26-4.36-26.64-16.6c-8-11.7-10.59-31.63-10.8-33.39.33,1.61,4.1,19,16.53,27.15C75.66,320.8,84.85,325.91,87.06,337.42Z" style="fill:#263238;opacity:0.1"></path><path d="M70.21,305.88A23.36,23.36,0,0,1,76.94,317s0,0-.06,0a27.31,27.31,0,0,0-6.76-11A.07.07,0,1,1,70.21,305.88Z" style="fill:#263238"></path><path d="M87.06,337.42s-18.26-4.36-26.64-16.6c-8-11.7-10.59-31.63-10.8-33.39a.56.56,0,0,1,0-.12s8.75,12.44,18,15.62S89.69,317.08,87.06,337.42Z" style="fill:#FF2D55"></path><path d="M52.84,294.17a73.25,73.25,0,0,0,5.64,9.65A38.74,38.74,0,0,0,66,311.55c2.48,2,5.1,3.75,7.61,5.69l-.06-.1c-.47-.7-1-1.37-1.49-2-1-1.33-2.19-2.59-3.34-3.84-2.27-2.46-4.58-4.88-6.62-7.54A28.31,28.31,0,0,1,59.17,299c0-.07.09-.12.12,0,3,6.17,8.88,10.12,13.1,15.33a23.89,23.89,0,0,1,1.68,2.31,9.35,9.35,0,0,1,1.06,1.85,38.22,38.22,0,0,1,6.22,6.3,24.83,24.83,0,0,0-.73-3.55,18,18,0,0,0-1.93-4.62c0-.07.06-.15.11-.08a22.58,22.58,0,0,1,2.13,4.6,16.08,16.08,0,0,1,.66,3.94h0a36.87,36.87,0,0,1,2.47,3.84c-.08-.39-.15-.78-.23-1.17-.36-1.82-.76-3.63-1.24-5.43A32.32,32.32,0,0,0,78.21,312c0-.07.07-.15.12-.08A39.29,39.29,0,0,1,83.19,322c.58,1.8,1,3.62,1.46,5.46.2.89.38,1.79.55,2.7.09.47.19.94.27,1.42A66.68,66.68,0,0,1,89.68,344,182,182,0,0,1,93.57,367a192.93,192.93,0,0,1,1.26,24.51c0,1-.08,2-.13,3.08,0,.26-.41.3-.43,0-.18-4.05-.28-8.1-.52-12.15s-.59-8.09-1-12.13a216.31,216.31,0,0,0-3.8-23.6c-1.48-6.67-3.4-13.39-7-19.24a36.3,36.3,0,0,0-6.58-7.83c-2.56-2.3-5.36-4.31-8.06-6.44a44,44,0,0,1-7.39-7.11A57.63,57.63,0,0,1,54,296.72c-.43-.83-.87-1.65-1.31-2.47C52.68,294.17,52.8,294.1,52.84,294.17Z" style="fill:#263238"></path><path d="M56,296.85A62.4,62.4,0,0,0,60.05,304,.05.05,0,1,1,60,304a50,50,0,0,1-4.11-7.13C55.82,296.82,56,296.77,56,296.85Z" style="fill:#263238"></path><path d="M154,329.35s.29,25.94-15.22,33.43S115,364,104.45,366.54c0,0,0,0,0,0,.41-.62,7.93-11.43,19.9-14.41C136.68,349.05,150.31,340.16,154,329.35Z" style="fill:#FF2D55"></path><path d="M154,329.35s.29,25.94-15.22,33.43S115,364,104.45,366.54c0,0,0,0,0,0a58.46,58.46,0,0,1,17.64-5.21C131.89,360.15,150.57,353.77,154,329.35Z" style="opacity:0.1"></path><path d="M103.43,367a26.11,26.11,0,0,1,6.17-4.18l1-.43a5.78,5.78,0,0,1,.52-.59,19.18,19.18,0,0,1,1.46-1.39,20.94,20.94,0,0,1,3.12-2.25c2.57-1.51,5.38-2.57,8-4,.08,0,.14.07.07.11-1.3.68-2.56,1.42-3.82,2.16s-2.49,1.4-3.69,2.17a27.37,27.37,0,0,0-3.07,2.31c-.27.23-.53.49-.79.76a41.3,41.3,0,0,1,5.24-1.4c2.84-.57,5.71-1,8.54-1.58a41,41,0,0,0,4.12-1.11c1.29-1,2.57-2.07,3.79-3.19a31.38,31.38,0,0,0,4-4.45c.05-.07.17,0,.11.07a47.45,47.45,0,0,1-6.35,7c.66-.25,1.33-.52,2-.82a32.08,32.08,0,0,0,13.22-11c0-.07.16,0,.11.07a36.34,36.34,0,0,1-10.69,10.27,32.43,32.43,0,0,1-6.76,3.2,63.5,63.5,0,0,1-8.39,2,59.21,59.21,0,0,0-8.22,2,24.87,24.87,0,0,0-6.9,3.62A32.18,32.18,0,0,0,97,377.87c-2.94,5.89-4.34,12.47-5.12,19,0,.27-.47.27-.45,0C92.11,385.92,95,374.57,103.43,367Z" style="fill:#263238"></path><path d="M121.43,358.54a9,9,0,0,1,3.19-2.89,11.66,11.66,0,0,0,3.8-3.14c.05-.07.16,0,.11.07a12.61,12.61,0,0,1-3.35,3,11.71,11.71,0,0,0-3.65,3A.06.06,0,0,1,121.43,358.54Z" style="fill:#263238"></path><polygon points="113.2 386.15 112.5 400.41 110.33 444 77.8 444 75.63 400.41 74.93 386.15 113.2 386.15" style="fill:#37474f"></polygon><polygon points="113.2 386.15 112.5 400.41 75.63 400.41 74.93 386.15 113.2 386.15" style="fill:#263238"></polygon><rect x="72.65" y="380.19" width="42.84" height="13.61" style="fill:#37474f"></rect></g><g id="freepik--Floor--inject-7"><polygon points="459.98 448.72 407.49 448.97 354.99 449.06 250 449.22 145.01 449.06 92.52 448.97 40.02 448.72 92.52 448.48 145.01 448.39 250 448.23 354.99 448.39 407.49 448.48 459.98 448.72" style="fill:#263238"></polygon></g><g id="freepik--screen-2--inject-7"><rect x="40.55" y="50.04" width="337.29" height="168.44" style="fill:#fff"></rect><path d="M377.84,218.47l-337.29.09h-.23v-.09L40,50v-.21h.53l337.29.09h.3V50Zm0,0L377.54,50l.3.11-337.29.09.52-.2-.29,168.43-.23-.09Z" style="fill:#263238"></path><path d="M225.64,67.76a4.43,4.43,0,0,1-1.41.59,4.83,4.83,0,0,1-3.73-.59,4.9,4.9,0,1,1,5.14,0Z" style="fill:#37474f"></path><path d="M224.56,63a1.49,1.49,0,1,1-1.49-1.49A1.49,1.49,0,0,1,224.56,63Z" style="fill:#fff"></path><path d="M225.64,67.15v.61a4.43,4.43,0,0,1-1.41.59,4.83,4.83,0,0,1-3.73-.59v-.61a2.57,2.57,0,0,1,5.14,0Z" style="fill:#fff"></path><path d="M364.68,63.05a.47.47,0,0,1,.46.46.46.46,0,0,1-.92,0A.47.47,0,0,1,364.68,63.05Z"></path><path d="M366.09,63.05a.47.47,0,0,1,.46.46.46.46,0,0,1-.46.45.45.45,0,0,1-.45-.45A.46.46,0,0,1,366.09,63.05Z"></path><path d="M367.51,63.05a.47.47,0,0,1,.46.46.46.46,0,0,1-.92,0A.47.47,0,0,1,367.51,63.05Z"></path><path d="M233,63.51c2.41-.23,4.82-.33,7.23-.42s4.81-.11,7.22-.12,4.82,0,7.23.12l3.61.15c1.2.09,2.41.14,3.61.27-1.2.12-2.41.17-3.61.26l-3.61.15c-2.41.1-4.82.11-7.23.13s-4.82,0-7.22-.13S235.44,63.73,233,63.51Z" style="fill:#263238"></path><path d="M227.78,185.23a11.41,11.41,0,0,1-2.52,3,17.68,17.68,0,0,1-1.69,1.33h-.44a15.11,15.11,0,0,1-4.21-4.3,4.67,4.67,0,0,1-.29-4.49,2.19,2.19,0,0,1,2-1.14,3.12,3.12,0,0,1,2.75,1.93,3.12,3.12,0,0,1,2.74-1.93,2.22,2.22,0,0,1,2,1.14A4.67,4.67,0,0,1,227.78,185.23Z" style="fill:#FF2D55"></path><path d="M258.74,190.09,258,190l-1.44-5.36L253.28,181l.29-.66h11.71l.32.63Zm-4.27-9,2.78,3,.09.17,1.25,4.66,5.9-7.86Z" style="fill:#ebebeb"></path><rect x="256.17" y="182.15" width="9.91" height="0.8" transform="translate(-51.6 121.62) rotate(-23.93)" style="fill:#ebebeb"></rect><path d="M241.05,189.59a5,5,0,1,1,5-5,4.93,4.93,0,0,1-.21,1.42l.75,3.08-.47.48-2.64-.62A5,5,0,0,1,241.05,189.59Zm0-9.2a4.2,4.2,0,1,0,0,8.4,4.26,4.26,0,0,0,2.17-.59l.29,0,2.16.51L245,186.1v-.22a4.33,4.33,0,0,0,.2-1.28A4.21,4.21,0,0,0,241.05,180.39Z" style="fill:#ebebeb"></path><path d="M364.73,189.52l-.63-.33V180.7l.39-.39h6.9l.4.39v8.49l-.63.33-3.22-2.92Zm.16-8.42v7.31l2.82-2.63h.47l2.81,2.63V181.1Z" style="fill:#ebebeb"></path><path d="M218.18,80.21c5.77-.22,11.53-.33,17.3-.41s11.53-.08,17.29-.13,11.53,0,17.3.12l8.64.16c2.89.08,5.77.14,8.65.26-2.88.12-5.76.17-8.65.26l-8.64.16c-5.77.08-11.53.08-17.3.12s-11.53,0-17.29-.13S224,80.43,218.18,80.21Z" style="fill:#ebebeb"></path><path d="M218.18,88.51c10.89-.23,21.77-.33,32.65-.42L283.49,88l32.65.12,16.32.15,16.33.27-16.33.26-16.32.15-32.65.13-32.66-.13C240,88.83,229.07,88.73,218.18,88.51Z" style="fill:#ebebeb"></path><path d="M218.18,92.92c8.71-.22,17.42-.32,26.13-.41l26.12-.13,26.13.13,13.06.15,13.06.26-13.06.27-13.06.15-26.13.12-26.12-.12C235.6,93.25,226.89,93.15,218.18,92.92Z" style="fill:#ebebeb"></path><path d="M218.18,97.24c9.69-.23,19.38-.33,29.07-.42l29.08-.12,29.07.12,14.54.15,14.54.27-14.54.26-14.54.15-29.07.13-29.08-.13C237.56,97.56,227.87,97.46,218.18,97.24Z" style="fill:#ebebeb"></path><path d="M218.18,101.39c8.71-.23,17.42-.33,26.13-.42l26.12-.12,26.13.12,13.06.15,13.06.27-13.06.26-13.06.15-26.13.13-26.12-.13C235.6,101.71,226.89,101.61,218.18,101.39Z" style="fill:#ebebeb"></path><path d="M218.18,109.26c8.71-.22,17.42-.33,26.13-.41l26.12-.13,26.13.13,13.06.15,13.06.26-13.06.27-13.06.15-26.13.12-26.12-.13C235.6,109.59,226.89,109.48,218.18,109.26Z" style="fill:#ebebeb"></path><path d="M218.18,113.57c9.69-.22,19.38-.32,29.07-.41l29.08-.13,29.07.13,14.54.15,14.54.26-14.54.27L305.4,114l-29.07.12L247.25,114C237.56,113.9,227.87,113.8,218.18,113.57Z" style="fill:#ebebeb"></path><path d="M218.18,117.72c8.71-.22,17.42-.32,26.13-.41l26.12-.13,26.13.13,13.06.15,13.06.26-13.06.27-13.06.15-26.13.12-26.12-.12C235.6,118.05,226.89,118,218.18,117.72Z" style="fill:#ebebeb"></path><rect x="40.55" y="49.96" width="168.51" height="168.51" style="fill:#c7c7c7"></rect><path d="M171.88,218.47H54.75c5.89-5.71,11.37-10.35,13.41-11.45,4.27-2.29,15.27-17.81,22.88-29.08l0,0c.12-.19.25-.38.38-.56,4.33-6.43,7.48-11.33,7.48-11.33l20-.25,27.66-.34,3.33,0,13.68-.17s.35,1.89.91,5l.6,3.3c.12.71.26,1.45.39,2.22.29,1.58.59,3.29.9,5.08C168.7,194.1,171.66,212.06,171.88,218.47Z" style="fill:#FF2D55"></path><path d="M171.88,218.47H54.75c5.89-5.71,11.37-10.35,13.41-11.45,4.27-2.29,15.27-17.81,22.88-29.08l0,0c.12-.19.25-.38.38-.56,4.33-6.43,7.48-11.33,7.48-11.33l20-.25,27.66-.34,3.33,0,13.68-.17s.35,1.89.91,5l.6,3.3c.12.71.26,1.45.39,2.22.29,1.58.59,3.29.9,5.08C168.7,194.1,171.66,212.06,171.88,218.47Z" style="fill:#fff;opacity:0.5"></path><path d="M90.53,177.45S110,197.1,144,192.22c24.87-3.56,28.18-22.77,28.18-22.77Z" style="fill:#455a64"></path><path d="M138.05,96.33c-.81-2.9,6.41-13.2,9.16-16.67s18-8.71,22.84-6.06c1.91,1,5.48,8.34,10.29,14.67,7.44,9.81,16.14,20.1,13,22.88-7.61,6.77-25-3.8-30.7-7.35s-10.83-7.88-12.21-7.72c-1.81.21-5.63,3.1-7.15,3.27C139.65,99.77,138.05,96.33,138.05,96.33Z" style="fill:#FF2D55"></path><path d="M103.67,84.66c-17.73,10.68-25.52,39-26,43.49-.38,3.69-8.81,16.76-7.25,30.78,1,9,17.25,20.94,30.43,20.78,2.43,0,23,7.34,40.3,6.08s30.5-15.29,31-16.34,15.07-5.35,15.9-19.85c1.33-23.13-23-58.53-29.78-63.89C147.09,76.83,115.72,77.4,103.67,84.66Z" style="fill:#FF2D55"></path><path d="M103.67,84.66c-17.73,10.68-25.52,39-26,43.49-.38,3.69-8.81,16.76-7.25,30.78,1,9,17.25,20.94,30.43,20.78,2.43,0,23,7.34,40.3,6.08s30.5-15.29,31-16.34,15.07-5.35,15.9-19.85c1.33-23.13-23-58.53-29.78-63.89C147.09,76.83,115.72,77.4,103.67,84.66Z" style="fill:#fff;opacity:0.5"></path><path d="M145.08,137.07c-10.9-.31-16.29,11.18-17.71,14.17s-8.4,9.7-8.85,17,13.06,15.88,27.73,13.86,22.59-9.92,22.78-17.3c.15-5.95-5.26-11.3-5.82-12.89S155,137.34,145.08,137.07Z" style="fill:#FF2D55"></path><path d="M145.08,137.07c-10.9-.31-16.29,11.18-17.71,14.17s-8.4,9.7-8.85,17,13.06,15.88,27.73,13.86,22.59-9.92,22.78-17.3c.15-5.95-5.26-11.3-5.82-12.89S155,137.34,145.08,137.07Z" style="fill:#fff;opacity:0.2"></path><path d="M95,137.93a31.2,31.2,0,0,1-1.37-12.48,22.31,22.31,0,0,1,1.49-6.35,14.89,14.89,0,0,1,1.58-3,13.77,13.77,0,0,1,2.21-2.62,10.91,10.91,0,0,1,1.35-1.09c.47-.33,1-.6,1.45-.89l.73-.42.79-.32a13.14,13.14,0,0,1,1.58-.6,17.62,17.62,0,0,1,6.59-.65,22.59,22.59,0,0,1,11.74,4.58A33.54,33.54,0,0,0,111.3,112a17.85,17.85,0,0,0-5.58,1,13.38,13.38,0,0,0-1.28.56l-.64.28-.59.37c-.39.25-.8.47-1.17.73a12.42,12.42,0,0,0-1.05.87,13.26,13.26,0,0,0-3.19,4.47,24.7,24.7,0,0,0-1.8,5.53A59.63,59.63,0,0,0,95,137.93Z" style="fill:#FF2D55"></path><path d="M175.74,130.58a46.63,46.63,0,0,0-.74-10.31c-.69-3.26-2-6.32-4.26-8.34a11.48,11.48,0,0,0-1.84-1.33,8.4,8.4,0,0,0-2-.78,17.79,17.79,0,0,0-4.78-.36,65.06,65.06,0,0,0-10.24,1.61,24.75,24.75,0,0,1,4.72-2.56c.84-.34,1.69-.65,2.56-.92s1.76-.47,2.67-.64a15.78,15.78,0,0,1,5.7-.08,9.67,9.67,0,0,1,2.9,1,11.89,11.89,0,0,1,2.42,1.74,13.15,13.15,0,0,1,3.3,4.83,18.06,18.06,0,0,1,1.21,5.49A24.73,24.73,0,0,1,175.74,130.58Z" style="fill:#FF2D55"></path><path d="M125.49,132.65c-.06-.18-.42.26-.41.47.41,5,0,10.77-4.92,12.66-.15.06-.12.31.06.28C126.23,145,126.75,137.31,125.49,132.65Z" style="fill:#263238"></path><path d="M120.35,127.67c-8.85-.2-8.78,16-.58,16.13S127.76,127.83,120.35,127.67Z" style="fill:#263238"></path><path d="M155.22,129.56c0-.2.45.19.47.39.32,5,1.62,10.65,6.72,11.81.16,0,.17.29,0,.28C156.29,141.87,154.65,134.35,155.22,129.56Z" style="fill:#263238"></path><path d="M159.58,123.87c8.72-1.49,11,14.5,2.93,15.88S152.27,125.11,159.58,123.87Z" style="fill:#263238"></path><path d="M144.57,144.29c-1.41.36-10.34-2.84-9.42-5.72,1-3.11,14.59-4.17,16.17-2S146.05,143.91,144.57,144.29Z" style="fill:#263238"></path><path d="M131.24,150.32a36,36,0,0,0,5.57,3.71,7,7,0,0,0,3,.91c.63.13,1.15-.79,1.51-1.65a27.48,27.48,0,0,0,1.37-5.69c.31-1.94.49-3.92.67-5.87l.5-5.41,1.53,5.25c.47,1.62,1,3.24,1.57,4.84a38.84,38.84,0,0,0,2,4.7,10.51,10.51,0,0,0,.65,1.07,3.32,3.32,0,0,0,.77.84,1.2,1.2,0,0,0,.92.1,4.39,4.39,0,0,0,1.18-.53,17.66,17.66,0,0,0,3.92-3.8,13.3,13.3,0,0,1-3.31,4.4,4.78,4.78,0,0,1-1.43.81,3.36,3.36,0,0,1-1,.14,2,2,0,0,1-1-.26,4.39,4.39,0,0,1-1.23-1.07,12.19,12.19,0,0,1-.83-1.14,29.22,29.22,0,0,1-2.39-4.78c-.68-1.62-1.24-3.25-1.76-4.92l2-.16a52.72,52.72,0,0,1-.73,6c-.17,1-.41,2-.68,3a16.57,16.57,0,0,1-1.09,3,6.43,6.43,0,0,1-1,1.47,3.09,3.09,0,0,1-.89.67,2,2,0,0,1-.68.2,2.53,2.53,0,0,1-.61,0,7.75,7.75,0,0,1-3.58-1.37A23.55,23.55,0,0,1,131.24,150.32Z" style="fill:#263238"></path><path d="M142.69,153.13s.38,7.37,3.23,7,2.67-8,2.67-8l-4.2-8.61Z" style="fill:#263238"></path><path d="M143,155.67a2.7,2.7,0,0,1,1.5-.74,5.5,5.5,0,0,1,1.61.6,1.47,1.47,0,0,1,1.19-.54c1.23.15,2.7,3,3,5.57s.07,6.27-2.34,6.12-2.05-6.6-2.05-6.6S143.72,160.75,143,155.67Z" style="fill:#ff98b9"></path><path d="M146.11,155.53a4.47,4.47,0,0,1,1.54,1.66,8.77,8.77,0,0,1,.82,2.13,14.67,14.67,0,0,0-1-2A5.76,5.76,0,0,0,146.11,155.53Z" style="fill:#263238"></path><path d="M145.92,160.08a8.1,8.1,0,0,0-1.14-1.2A1.78,1.78,0,0,1,145.92,160.08Z" style="fill:#263238"></path><path d="M138.63,133.58c-.06-.36-.12-.72-.2-1.08h0c-.12-.57-.27-1.14-.43-1.69a20.17,20.17,0,0,0-36.34-4.89,20.06,20.06,0,0,0-2.7,15,20.18,20.18,0,0,0,24,15.53c.34-.07.67-.15,1-.24a20,20,0,0,0,8.45-4.65l.23-.22a20.15,20.15,0,0,0,5.52-9.14,19.46,19.46,0,0,0,.7-3.89c.05-.65.07-1.3.06-2A18.35,18.35,0,0,0,138.63,133.58Zm-2.86,6.88a17.48,17.48,0,1,1-20.72-20.85,17.8,17.8,0,0,1,4.33-.38,17.54,17.54,0,0,1,16.42,13.83,17.18,17.18,0,0,1,.36,4.38h0a16.87,16.87,0,0,1-.3,2.56Z" style="fill:#455a64"></path><path d="M178.79,131.72a26,26,0,0,0-1.57-7.18,22.25,22.25,0,0,0-2.31-4.6,19,19,0,0,0-1.46-2c-3.14-3.68-7.1-5.55-11.2-5.22s-7.73,2.77-10.26,6.89A22.83,22.83,0,0,0,148.82,130a25.69,25.69,0,0,0,0,3.4c0,.23,0,.46,0,.69,0,.53.1,1,.17,1.56.11.81.25,1.6.43,2.37s.36,1.44.59,2.13a21.09,21.09,0,0,0,5.8,9.32.8.8,0,0,0,.13.13,13.13,13.13,0,0,0,7.91,3.45h.19a11.63,11.63,0,0,0,1.32,0C173.64,152.36,179.65,142.82,178.79,131.72Zm-13.62,18.6a8.72,8.72,0,0,1-2.93-.26c-4.14-1.06-7.72-5-9.53-10.36a23.72,23.72,0,0,1-1.19-5.85,21.48,21.48,0,0,1,2.77-12.78c2.07-3.37,5-5.36,8.17-5.61.34,0,.68,0,1,0a11.14,11.14,0,0,1,7.91,4.3,20.62,20.62,0,0,1,4.37,9.55s0,0,0,0c.05.28.09.56.14.83.08.59.15,1.19.2,1.79C176.85,141.54,171.94,149.79,165.17,150.32Z" style="fill:#455a64"></path><path d="M137.65,134.26,136,132.14c3.14-2.48,10.32-5.71,15.08-.29l-2,1.78C144.78,128.76,137.94,134,137.65,134.26Z" style="fill:#455a64"></path><path d="M68.57,132.41l-2.1-1.69c.79-1,7.88-9.57,14-9.33,5.7.25,21.29,4.51,22.77,5l-.79,2.58c-10-3-17.68-4.67-22.09-4.84C76.32,123.93,70.48,130,68.57,132.41Z" style="fill:#455a64"></path><path d="M107.16,93.69C107,90.52,96.45,82.59,92.57,80s-20.78-2.83-24.79,1.4c-1.57,1.66-2.76,10.12-5.49,18-4.24,12.22-9.57,25.33-5.53,27.1,9.81,4.27,23.78-12,28.27-17.37s8.26-11.4,9.68-11.69c1.88-.39,6.63,1.25,8.21.93C106.68,97.64,107.16,93.69,107.16,93.69Z" style="fill:#FF2D55"></path></g><g id="freepik--screen-1--inject-7"><rect x="287.37" y="111.37" width="172.46" height="221.28" style="fill:#fff"></rect><path d="M459.83,332.65l-172.46.12h-.12v-.12l-.15-221.28v-.27h.27l172.46.12H460v.15Zm0,0-.15-221.28.15.16-172.46.11.27-.27-.15,221.28-.12-.12Z" style="fill:#263238"></path><path d="M304.94,129a4.63,4.63,0,0,1-1.41.59,4.89,4.89,0,0,1-5.92-3.59,4.89,4.89,0,1,1,7.33,3Z" style="fill:#37474f"></path><path d="M303.85,124.31a1.49,1.49,0,1,1-1.49-1.49A1.49,1.49,0,0,1,303.85,124.31Z" style="fill:#fff"></path><path d="M304.94,128.42V129a4.63,4.63,0,0,1-1.41.59,4.85,4.85,0,0,1-3.74-.59v-.61a2.58,2.58,0,0,1,5.15,0Z" style="fill:#fff"></path><path d="M444,124.32a.46.46,0,1,1-.46.46A.47.47,0,0,1,444,124.32Z"></path><path d="M445.38,124.32a.46.46,0,1,1-.45.46A.46.46,0,0,1,445.38,124.32Z"></path><path d="M446.8,124.32a.46.46,0,1,1-.46.46A.47.47,0,0,1,446.8,124.32Z"></path><path d="M312.32,124.78c2.41-.23,4.82-.33,7.23-.42s4.81-.11,7.22-.12,4.82,0,7.23.12l3.61.15c1.2.09,2.41.14,3.61.27-1.2.12-2.41.17-3.61.26l-3.61.15c-2.41.1-4.82.11-7.23.13s-4.81,0-7.22-.13S314.73,125,312.32,124.78Z" style="fill:#263238"></path><rect x="292.51" y="138.29" width="162.17" height="142.34" style="fill:#c7c7c7"></rect><path d="M306.4,295.89a12,12,0,0,1-2.52,3,18,18,0,0,1-1.69,1.32h-.45a15,15,0,0,1-4.21-4.29,4.72,4.72,0,0,1-.29-4.5,2.21,2.21,0,0,1,2-1.13,3.09,3.09,0,0,1,2.74,1.93,3.11,3.11,0,0,1,2.74-1.93,2.25,2.25,0,0,1,2,1.13A4.74,4.74,0,0,1,306.4,295.89Z" style="fill:#FF2D55"></path><path d="M337.35,300.75l-.7-.13-1.44-5.36-3.32-3.63.29-.67H343.9l.31.64Zm-4.26-9,2.77,3,.09.16,1.26,4.67,5.89-7.86Z" style="fill:#ebebeb"></path><rect x="334.78" y="292.81" width="9.91" height="0.8" transform="translate(-89.73 163.02) rotate(-23.93)" style="fill:#ebebeb"></rect><path d="M319.66,300.25a5,5,0,1,1,4.79-3.57l.76,3.07-.48.48-2.63-.61A5.07,5.07,0,0,1,319.66,300.25Zm0-9.2a4.2,4.2,0,1,0,2.17,7.8l.29,0,2.16.5-.63-2.55v-.22a4,4,0,0,0,.2-1.29A4.21,4.21,0,0,0,319.66,291.05Z" style="fill:#ebebeb"></path><path d="M443.34,300.17l-.63-.32v-8.49l.4-.4H450l.39.4v8.49l-.63.32-3.21-2.92Zm.16-8.41v7.31l2.82-2.63h.47l2.82,2.63v-7.31Z" style="fill:#ebebeb"></path><path d="M296.79,308.07c5.77-.22,11.53-.32,17.3-.41s11.53-.08,17.29-.12,11.53,0,17.3.12l8.65.15c2.88.09,5.76.14,8.64.26-2.88.13-5.76.18-8.64.27l-8.65.15c-5.77.09-11.53.08-17.3.12s-11.53,0-17.29-.12S302.56,308.3,296.79,308.07Z" style="fill:#ebebeb"></path><path d="M296.79,316.37c10.89-.22,21.77-.33,32.66-.41l32.65-.13,32.65.13,16.33.15,16.32.26-16.32.27-16.33.15-32.65.12-32.65-.12C318.56,316.7,307.68,316.59,296.79,316.37Z" style="fill:#ebebeb"></path><path d="M296.79,320.52c8.71-.22,17.42-.33,26.13-.41L349,320l26.13.13,13.06.15,13.06.26-13.06.26-13.06.16-26.13.12-26.12-.13C314.21,320.85,305.5,320.74,296.79,320.52Z" style="fill:#ebebeb"></path><path d="M418.06,280.63h-99.2c5.22-5.32,13.73-17.41,20-26.65l0,0c.12-.19.25-.38.38-.56,4.33-6.43,7.48-11.33,7.48-11.33l20-.25,27.66-.34,3.33,0,13.68-.17s.35,1.89.91,5l.6,3.29c.12.71.26,1.46.39,2.23.29,1.58.59,3.29.9,5.08C415.46,264.26,417,273.13,418.06,280.63Z" style="fill:#FF2D55"></path><path d="M418.06,280.63h-99.2c5.22-5.32,13.73-17.41,20-26.65l0,0c.12-.19.25-.38.38-.56,4.33-6.43,7.48-11.33,7.48-11.33l20-.25,27.66-.34,3.33,0,13.68-.17s.35,1.89.91,5l.6,3.29c.12.71.26,1.46.39,2.23.29,1.58.59,3.29.9,5.08C415.46,264.26,417,273.13,418.06,280.63Z" style="fill:#fff;opacity:0.5"></path><path d="M338.31,253.49s19.44,19.65,53.48,14.77C416.66,264.7,420,245.49,420,245.49Z" style="fill:#455a64"></path><path d="M385.84,172.37c-.81-2.9,6.4-13.21,9.16-16.67s18-8.71,22.83-6.06c1.91,1,5.49,8.33,10.3,14.67,7.44,9.81,16.13,20.09,13,22.88-7.61,6.77-25.05-3.8-30.7-7.35s-10.84-7.88-12.21-7.72c-1.82.21-5.63,3.09-7.15,3.27C387.44,175.81,385.84,172.37,385.84,172.37Z" style="fill:#FF2D55"></path><path d="M351.46,160.7c-17.73,10.68-25.52,39-26,43.49-.38,3.69-8.8,16.76-7.24,30.78,1,9,17.24,20.94,30.43,20.77,2.42,0,23,7.35,40.3,6.09s30.49-15.29,31-16.34,15.08-5.36,15.91-19.85c1.33-23.13-23-58.53-29.78-63.89C394.88,152.87,363.5,153.44,351.46,160.7Z" style="fill:#FF2D55"></path><path d="M351.46,160.7c-17.73,10.68-25.52,39-26,43.49-.38,3.69-8.8,16.76-7.24,30.78,1,9,17.24,20.94,30.43,20.77,2.42,0,23,7.35,40.3,6.09s30.49-15.29,31-16.34,15.08-5.36,15.91-19.85c1.33-23.13-23-58.53-29.78-63.89C394.88,152.87,363.5,153.44,351.46,160.7Z" style="fill:#fff;opacity:0.5"></path><path d="M392.86,213.1c-10.89-.3-16.28,11.18-17.71,14.17s-8.4,9.71-8.84,17,13.06,15.89,27.72,13.86,22.59-9.91,22.78-17.3c.16-5.94-5.26-11.29-5.82-12.88S402.79,213.38,392.86,213.1Z" style="fill:#FF2D55"></path><path d="M392.86,213.1c-10.89-.3-16.28,11.18-17.71,14.17s-8.4,9.71-8.84,17,13.06,15.89,27.72,13.86,22.59-9.91,22.78-17.3c.16-5.94-5.26-11.29-5.82-12.88S402.79,213.38,392.86,213.1Z" style="fill:#fff;opacity:0.2"></path><path d="M342.76,214a31,31,0,0,1-1.38-12.48,22.65,22.65,0,0,1,1.49-6.35,15.69,15.69,0,0,1,1.58-3,14.55,14.55,0,0,1,2.21-2.63,15.68,15.68,0,0,1,1.35-1.09c.47-.32,1-.59,1.45-.88l.74-.42.78-.33a13.22,13.22,0,0,1,1.59-.59,17.6,17.6,0,0,1,6.59-.65,22.62,22.62,0,0,1,11.74,4.58A33.19,33.19,0,0,0,359.08,188a17.57,17.57,0,0,0-5.58,1c-.44.14-.85.38-1.28.55l-.63.29-.59.37c-.39.25-.81.47-1.18.73a10.89,10.89,0,0,0-1,.87,13.43,13.43,0,0,0-3.2,4.47,24.68,24.68,0,0,0-1.79,5.53A58.93,58.93,0,0,0,342.76,214Z" style="fill:#FF2D55"></path><path d="M423.53,206.62a46.63,46.63,0,0,0-.75-10.31c-.68-3.26-2-6.32-4.26-8.34a11.4,11.4,0,0,0-1.83-1.33,7.71,7.71,0,0,0-2-.78,17.68,17.68,0,0,0-4.77-.36,65.06,65.06,0,0,0-10.24,1.61,24.75,24.75,0,0,1,4.72-2.56c.83-.34,1.68-.65,2.55-.92s1.76-.47,2.68-.64a15.77,15.77,0,0,1,5.7-.08,10,10,0,0,1,2.9,1,12.22,12.22,0,0,1,2.42,1.75,13,13,0,0,1,3.29,4.83,17.78,17.78,0,0,1,1.22,5.49A24.88,24.88,0,0,1,423.53,206.62Z" style="fill:#FF2D55"></path><path d="M373.27,208.69c0-.19-.42.26-.4.46.41,5,0,10.78-4.92,12.67-.15.06-.13.31.06.28C374,221,374.54,213.35,373.27,208.69Z" style="fill:#263238"></path><path d="M368.13,203.7c-8.84-.19-8.77,16-.58,16.14S375.54,203.87,368.13,203.7Z" style="fill:#263238"></path><path d="M403,205.59c0-.19.45.2.46.4.33,5,1.62,10.65,6.73,11.81.15,0,.16.29,0,.28C404.07,217.91,402.44,210.39,403,205.59Z" style="fill:#263238"></path><path d="M407.36,199.91c8.72-1.49,11,14.5,2.94,15.87S400.06,201.15,407.36,199.91Z" style="fill:#263238"></path><path d="M392.36,220.33c-1.42.36-10.34-2.84-9.42-5.72,1-3.11,14.58-4.17,16.16-2S393.84,219.94,392.36,220.33Z" style="fill:#263238"></path><path d="M379,226.35a35,35,0,0,0,5.56,3.71,7,7,0,0,0,3,.92c.63.13,1.15-.79,1.51-1.66a26.75,26.75,0,0,0,1.36-5.68c.32-1.94.5-3.92.68-5.87l.49-5.41,1.53,5.25c.47,1.61,1,3.24,1.58,4.84a38.84,38.84,0,0,0,2,4.7,9,9,0,0,0,.65,1.07,3.49,3.49,0,0,0,.76.84,1.21,1.21,0,0,0,.92.1,4.57,4.57,0,0,0,1.18-.53,17.71,17.71,0,0,0,3.93-3.8,13.16,13.16,0,0,1-3.31,4.39,4.92,4.92,0,0,1-1.43.82,3.46,3.46,0,0,1-1,.14,2.1,2.1,0,0,1-1.05-.26,4.12,4.12,0,0,1-1.23-1.07,9.91,9.91,0,0,1-.84-1.15,29.94,29.94,0,0,1-2.39-4.77c-.68-1.62-1.23-3.25-1.75-4.92l2-.16a50.84,50.84,0,0,1-.74,6,28.47,28.47,0,0,1-.68,3,15.67,15.67,0,0,1-1.09,3,6,6,0,0,1-1,1.46,3.11,3.11,0,0,1-.89.68,2.11,2.11,0,0,1-.67.2,2.53,2.53,0,0,1-.61,0,7.7,7.7,0,0,1-3.58-1.37A22.84,22.84,0,0,1,379,226.35Z" style="fill:#263238"></path><path d="M390.48,229.17s.37,7.37,3.22,7,2.67-8,2.67-8l-4.19-8.61Z" style="fill:#263238"></path><path d="M390.79,231.71a2.64,2.64,0,0,1,1.5-.74,5.14,5.14,0,0,1,1.6.6,1.47,1.47,0,0,1,1.19-.54c1.24.15,2.71,3,3,5.57s.07,6.27-2.35,6.12-2.05-6.6-2.05-6.6S391.51,236.78,390.79,231.71Z" style="fill:#ff98b9"></path><path d="M393.89,231.57a4.39,4.39,0,0,1,1.54,1.66,8.27,8.27,0,0,1,.83,2.13,16,16,0,0,0-1-2A5.61,5.61,0,0,0,393.89,231.57Z" style="fill:#263238"></path><path d="M393.7,236.12a8.14,8.14,0,0,0-1.14-1.21A1.75,1.75,0,0,1,393.7,236.12Z" style="fill:#263238"></path><path d="M386.66,212.36a18.35,18.35,0,0,0-.24-2.75c-.06-.36-.12-.72-.2-1.08-.12-.57-.27-1.14-.44-1.69A20.17,20.17,0,0,0,349.45,202a20.06,20.06,0,0,0-2.7,15,20.23,20.23,0,0,0,18.95,16,20.8,20.8,0,0,0,5-.43c.34-.07.67-.15,1-.24a20,20,0,0,0,8.44-4.66,2.19,2.19,0,0,0,.23-.21,20.2,20.2,0,0,0,5.53-9.14,19.46,19.46,0,0,0,.7-3.89c0-.53.07-1.06.07-1.6C386.67,212.61,386.67,212.49,386.66,212.36Zm-3.1,4.14a17.48,17.48,0,1,1-20.72-20.85,17.32,17.32,0,0,1,4.33-.38,17.54,17.54,0,0,1,16.42,13.83,17.18,17.18,0,0,1,.36,4.38,16.85,16.85,0,0,1-.3,2.57Z" style="fill:#455a64"></path><path d="M426.58,207.76a25.88,25.88,0,0,0-1.57-7.18A22.17,22.17,0,0,0,422.7,196a17.49,17.49,0,0,0-1.46-2c-3.14-3.68-7.11-5.55-11.2-5.22s-7.73,2.76-10.26,6.89A22.84,22.84,0,0,0,396.61,206a27.18,27.18,0,0,0,0,3.38c0,.23,0,.46,0,.7,0,.52.1,1,.17,1.55.11.81.25,1.6.43,2.38s.36,1.44.59,2.13a21.11,21.11,0,0,0,5.81,9.32l.13.13a13.13,13.13,0,0,0,7.91,3.45h.19a11.63,11.63,0,0,0,1.32,0C421.43,228.4,427.44,218.85,426.58,207.76ZM413,226.36a8.68,8.68,0,0,1-2.92-.26c-4.14-1-7.72-5-9.54-10.35a23.79,23.79,0,0,1-1.19-5.87,21.45,21.45,0,0,1,2.77-12.77c2.07-3.37,5-5.36,8.17-5.61a8.68,8.68,0,0,1,1,0,11.1,11.1,0,0,1,7.91,4.3,20.61,20.61,0,0,1,4.37,9.56s0,0,0,0c.05.27.09.55.13.83.09.59.16,1.18.21,1.78C424.64,217.58,419.73,225.83,413,226.36Z" style="fill:#455a64"></path><path d="M385.44,210.3l-1.67-2.12c3.14-2.48,10.32-5.72,15.08-.3l-2,1.78C392.56,204.8,385.73,210.07,385.44,210.3Z" style="fill:#455a64"></path><path d="M316.35,208.45l-2.1-1.7c.79-1,7.89-9.56,14-9.32,5.69.25,21.29,4.51,22.76,5l-.78,2.58c-10-3-17.69-4.67-22.09-4.84C324.1,200,318.27,206.08,316.35,208.45Z" style="fill:#455a64"></path><path d="M355,169.72c-.14-3.16-10.71-11.1-14.59-13.66s-20.79-2.84-24.79,1.4c-1.57,1.66-2.76,10.12-5.5,18-4.23,12.22-9.56,25.33-5.52,27.09,9.81,4.28,23.78-12,28.27-17.36s8.25-11.4,9.68-11.69c1.88-.39,6.63,1.25,8.21.93C354.47,173.68,355,169.72,355,169.72Z" style="fill:#FF2D55"></path></g><g id="freepik--Character--inject-7"><path d="M50.78,449.59c2.89,1.11,86.82,2.63,90.1.76.36-.21.26-3.92,1.49-13.5.07-.46,2-2.23,5-4.74,11.22-9.41,37.59-29.24,37.59-29.24l-41.88-36.39-40.58,39.9L91.91,416.75s-34.29,18.51-37.68,21S47.89,448.48,50.78,449.59Z" style="fill:#d3766a"></path><path d="M50.78,449.58c2.9,1.12,86.82,2.64,90.1.77.35-.21.25-3.91,1.5-13.5.05-.46,2-2.23,5-4.75,3.9-3.27,5.76-4.76,11.56-9.28l-53.24-19.58-3.2,3.14L91.91,416.75s-34.29,18.51-37.68,21S47.89,448.47,50.78,449.58Z" style="fill:#ebebeb"></path><path d="M45,450.74c2.91,1,92.33,2,95.55,0,.76-.46,1.45-5.65,2-12.77.07-.89,9.12-8.13,10.36-9.47L98.13,410.05l-6.92,6.51s-40.32,18.77-43.62,21.32S42.08,449.73,45,450.74Z" style="fill:#FF2D55"></path><path d="M46.24,447.41c14-.18,76.36.41,90.26,1.3.12,0,.12.09,0,.09-13.92.48-76.23-.57-90.26-1.16C45.94,447.62,45.94,447.41,46.24,447.41Z" style="fill:#263238"></path><path d="M86.74,417.16c5.54-1,12.29,0,16.46,3.94.17.16,0,.39-.23.33a77.45,77.45,0,0,0-16.22-3.58A.35.35,0,0,1,86.74,417.16Z" style="fill:#263238"></path><path d="M82.72,419.51c5.54-1,12.29,0,16.47,3.95.16.16-.06.38-.24.32a78,78,0,0,0-16.21-3.57A.35.35,0,0,1,82.72,419.51Z" style="fill:#263238"></path><path d="M78.71,421.87c5.53-1,12.28,0,16.46,3.95.16.15-.06.38-.24.32a78,78,0,0,0-16.21-3.57A.35.35,0,0,1,78.71,421.87Z" style="fill:#263238"></path><path d="M74.69,424.23c5.54-1,12.29,0,16.46,3.95.17.15-.06.38-.24.32a77.34,77.34,0,0,0-16.21-3.57A.35.35,0,0,1,74.69,424.23Z" style="fill:#263238"></path><path d="M79.07,412.16c3.87,3.08,8.94,4.38,13.49,6.13a.68.68,0,0,0,.87-.68c.09,0,.17-.09.13-.2a29.42,29.42,0,0,0-8.36-12.76c-2.28-2-6.31-3.36-8.52-.39C74.59,407.06,76.81,410.35,79.07,412.16Zm-1.36-4.47c-.9-6.07,5.57-2.81,7.2-1.3a33.66,33.66,0,0,1,2.89,3.2,87.74,87.74,0,0,1,5,7.35c-2.18-1-4.43-1.79-6.64-2.71C83.57,413.15,78.21,411,77.71,407.69Z" style="fill:#263238"></path><path d="M112.11,409.2c-1.29-3.46-5.55-3.24-8.29-2a29.48,29.48,0,0,0-11.58,9.94.15.15,0,0,0,.07.22.69.69,0,0,0,.66.9c4.85-.41,10.08-.25,14.66-2.14C110.3,415,113.34,412.48,112.11,409.2Zm-11.92,6.94c-2.38.26-4.76.4-7.13.75a88.77,88.77,0,0,1,6.89-5.65,32,32,0,0,1,3.67-2.27c2-1,9.1-2.34,6.55,3.25C108.76,415.3,103,415.83,100.19,416.14Z" style="fill:#263238"></path><path d="M101.89,404.15,153.66,431s53.93-48.82,58.87-49.18,77.5,48.87,114,49c37.83.16,39.74-39.48,39.74-39.48l-55.19-12.67c-39.78-19.61-81.22-54.83-108.32-51.54C173.35,330.7,101.89,404.15,101.89,404.15Z" style="fill:#263238"></path><path d="M114.54,397.32c8.73,4.32,6.28,3,15,7.37,4.25,2.16,25.66,13,29.29,15.64a.1.1,0,0,1-.09.17c-4.28-1.44-25.44-12.7-29.66-14.93-8.61-4.57-6.09-3.35-14.65-8A.14.14,0,1,1,114.54,397.32Z" style="fill:#37474f"></path><path d="M162.83,418.61c10.12-8.93,43.28-38,44.63-39.06a18.1,18.1,0,0,1,3.45-2.59,3.67,3.67,0,0,1,3.19.26c1.53.72,3,1.5,4.56,2.24l9,4.38c11.6,5.67,23.13,11.47,34.82,17,11.24,5.26,19.26,10.22,31,14.27a176.16,176.16,0,0,0,36,8.58c1.51.19,3,.35,4.55.49a.09.09,0,1,1,0,.17,145.08,145.08,0,0,1-35.44-6.59c-11.63-3.58-19.52-8.22-30.56-13.3-11.45-5.27-22.73-10.9-34-16.51-5.95-3-11.9-5.95-17.87-8.88-1.36-.66-3.28-2.1-4.83-1.39a8.9,8.9,0,0,0-1.79,1.32l-2,1.65C205,382.73,164.3,417.75,163,418.75,162.86,418.83,162.73,418.7,162.83,418.61Z" style="fill:#37474f"></path><path d="M366.41,391.34s6.19,35.79-11.71,49.85-149,12.37-168.9,5.94-20.52-38.53,1.23-46c20.68-7.08,108.69-10.52,110.86-11.38.54-.22-7.81-5.23-7.77-5.53l20-6.12Z" style="fill:#263238"></path><path d="M339.24,390.44c0-.16.27-.11.27,0a17.7,17.7,0,0,0,4.13,11.37c3.05,3.52,7.54,5.49,11.61,7.54.4.2.1.81-.31.69a35.6,35.6,0,0,1-7.18-3.09,17.41,17.41,0,0,1-5.41-4.5A15.47,15.47,0,0,1,339.24,390.44Z" style="fill:#37474f"></path><path d="M299.33,386c.91-1.16,1.9-2.26,2.84-3.39,2.25-2.67,4.5-5.35,6.85-7.92.22-.24.65.1.45.37-1.58,2.07-3.26,4.07-4.9,6.09L302,384.24a19.49,19.49,0,0,0-2.37,3c-.62,1.15.19,2.13,1.38,2.25a4.08,4.08,0,0,0,2.86-1.05,37.88,37.88,0,0,0,4.85-5.19c.95-1.06,1.89-2.12,2.85-3.17s2.1-2.17,3.12-3.29c.07-.07.19,0,.13.11-.88,1.22-1.7,2.49-2.59,3.71s-1.79,2.43-2.71,3.63-1.77,2.24-2.7,3.33a11,11,0,0,1-2.73,2.44c-1.7,1-4.66,1.22-5.56-1A3.09,3.09,0,0,1,299.33,386Z" style="fill:#37474f"></path><path d="M188.52,447.25c6.85.13,13.69.52,20.54.67s13.59.18,20.39.12q20.48-.19,40.91-1.59c13.76-.95,28.6-2.32,42.27-4.22,6.54-.9,13.17-1.66,19.64-3.05a30.86,30.86,0,0,0,15.48-7.91c8.86-8.58,12.3-21.21,13.71-33.27q.29-2.43.48-4.86c0-.11.18-.11.17,0-.8,12.37-2.72,25.26-10.5,35.2a30.86,30.86,0,0,1-12.67,9.84c-6.13,2.46-12.92,3-19.38,3.91-13.73,1.86-28.63,3.3-42.43,4.37s-27.82,1.75-41.74,2-27.87,0-41.79-.67c-1.7-.09-3.39-.19-5.09-.34C188.42,447.4,188.42,447.25,188.52,447.25Z" style="fill:#37474f"></path><path d="M231.7,394.64c4.32-.64,8.62-1.26,13-1.71s8.77-.85,13.15-1.22c8.68-.73,17.37-1.39,26.07-1.8,4.94-.23,9.88-.25,14.83-.19.15,0,.14.23,0,.24-8.7.79-17.4,1.34-26.11,1.91s-17.37,1.35-26,2.17c-4.92.47-9.84.83-14.76,1.23C231.41,395.3,231.34,394.69,231.7,394.64Z" style="fill:#37474f"></path><path d="M289.1,383.81a67.4,67.4,0,0,1,10,5.35,80,80,0,0,1,9.24,6.46c.08.07,0,.17-.11.13-3.39-1.56-6.64-3.52-9.87-5.4a92.62,92.62,0,0,1-9.45-6.08C288.68,384.11,288.81,383.69,289.1,383.81Z" style="fill:#37474f"></path><path d="M324.65,258.12s11.18-7,23.88,3.81,5.13,47.36,2.06,52.64c0,0-28.29,8-49.8-6.19,0,0,17.32-24.81,17.55-38C318.47,262.73,324.65,258.12,324.65,258.12Z" style="fill:#263238"></path><path d="M315.56,280.19c-.12.24-.23.47-.36.7a54.45,54.45,0,0,1-5.51,8.34,33.17,33.17,0,0,1-6.75,6.69c-.07.05-.16-.05-.09-.1a29.83,29.83,0,0,0,6.44-7.27,83,83,0,0,0,4.95-8.12,78,78,0,0,0,7-18c0-.12.25-.08.22.05-.15.88-.32,1.76-.5,2.64a.1.1,0,0,1,.12.14,88.32,88.32,0,0,1-5.28,17.12,66.45,66.45,0,0,1-9.53,14.95,83.8,83.8,0,0,1-6.8,7.3s-.09,0-.05-.06A86,86,0,0,0,315.56,280.19Z" style="fill:#263238"></path><path d="M345.88,260.05c11.58,10.09,12.69,26.27,10.28,40.05a65.32,65.32,0,0,1-3.35,12.46c0,.07-.14,0-.11-.05a77.27,77.27,0,0,0,3.33-22c0-7-.68-14.33-3.57-20.87a26.86,26.86,0,0,0-6.71-9.41C345.64,260.13,345.77,260,345.88,260.05Z" style="fill:#263238"></path><path d="M264.12,257.55l11,34.91c.44,1,0,1.9-1.05,2l-18.29,1.07a3,3,0,0,1-2.65-1.73l-11-34.91a1.28,1.28,0,0,1,1.06-2l18.28-1.08A3,3,0,0,1,264.12,257.55Z" style="fill:#263238"></path><path d="M262,257.66l11,34.91a1.27,1.27,0,0,1-1.05,2l-18.29,1.07a3,3,0,0,1-2.65-1.73L240,259c-.44-1,0-1.9,1.06-2l18.28-1.08A3,3,0,0,1,262,257.66Z" style="fill:#455a64"></path><path d="M257,259.57a1.56,1.56,0,1,0,1.43-1.67A1.56,1.56,0,0,0,257,259.57Z" style="fill:#263238"></path><path d="M326.74,318.05c-14.05,19.93-35.49,45.51-45.12,45.13-4.57-.18-12.8.49-18.53-5.08-12.5-12.16-23.21-33.83-25.58-45.71-.88-4.46,23.37-14.69,26.39-10.89C271,310.42,279.72,329.35,281,329c4.34-1.31,18.54-11,33.88-19.53C331.81,300,332.93,309.26,326.74,318.05Z" style="fill:#d3766a"></path><path d="M236,291.41c1.69-9.22,3.53-11.32.82-19.86-1.78-5.6,1-9.14,5.38-4.84,7.11,7,7.44,19.37,6.32,23.69Z" style="fill:#d3766a"></path><path d="M239.44,318.26s-4.9-12.36-4.08-22.36c.57-6.91,3.48-21.82,22.12-30.85,4.42-2.14,12.24-2.06,6.29,4.06-4.23,4.35-8.22,5.83-10.22,8.81,0,0,9.93,1.29,11.91,5.8a90.51,90.51,0,0,1,4.31,12.16,19,19,0,0,1-2.2,1s1.71,4.28-1.11,10.72Z" style="fill:#d3766a"></path><path d="M237,289.39c2.6-2.54,8.22-7.81,14.32-10.54,6.77-3,20.63-7,22.81-2,1.6,3.68-3.56,5.67-3.56,5.67s6.08-.44,6.8,3.2c.65,3.32-3.43,4.62-3.43,4.62s3.73.37,3.74,3.68c0,4-7.81,2.58-11.29,6.63C265.57,301.57,237,289.39,237,289.39Z" style="fill:#d3766a"></path><path d="M253.28,286.54a29.57,29.57,0,0,1,17.13-4.1c.15,0,.22.14.08.15a72.85,72.85,0,0,0-17.18,4S253.25,286.57,253.28,286.54Z" style="fill:#263238"></path><path d="M256.53,293.29c2.63-1.46,10.6-4,17.34-3.07.15,0,.21.15.07.16a77.63,77.63,0,0,0-17.39,3S256.49,293.31,256.53,293.29Z" style="fill:#263238"></path><path d="M298.18,318.24l17.61,16.38s8.91-12.32,13.31-19.27c5.83-9.2,3.41-14.32-9.12-9.75C311.55,308.68,298.18,318.24,298.18,318.24Z" style="fill:#455a64"></path><path d="M301.64,316.54c2.65,2.23,5.26,4.5,7.74,6.91q1.86,1.8,3.64,3.67c1.19,1.24,2.23,2.65,3.44,3.87.06.06-.07.19-.14.12-1.12-1.3-2.48-2.42-3.69-3.63s-2.44-2.44-3.67-3.65c-2.47-2.41-4.93-4.83-7.46-7.17C301.43,316.6,301.57,316.48,301.64,316.54Z" style="fill:#263238"></path><path d="M304.82,324.42l11,10.19s8.91-12.32,13.32-19.27c2.57-4,3.53-7.3,2.74-9.29Z" style="opacity:0.1"></path><path d="M292,383.17,368,398c.11-1.57-5.09-48.76-11.44-66.67-8.14-23-13.41-25.34-16.55-26.88-4-2-11.53-2.07-13.39-1.44-2.11.71-9.74,11.13-13,19C307.26,338,291.06,382.06,292,383.17Z" style="fill:#455a64"></path><path d="M335.86,376.19a6.66,6.66,0,0,0-1.63,2,6.71,6.71,0,0,0,2.19-1.29,7.06,7.06,0,0,0,1.64-2A6.71,6.71,0,0,0,335.86,376.19Zm-14.19-60.26a6.64,6.64,0,0,0-1.63,2,7.41,7.41,0,0,0,3.83-3.27A6.84,6.84,0,0,0,321.67,315.93ZM299.8,366.47a6.68,6.68,0,0,0-1.62,2,7.4,7.4,0,0,0,3.82-3.26A6.9,6.9,0,0,0,299.8,366.47ZM357,349.11a6.69,6.69,0,0,0-2-1.63,7,7,0,0,0,1.29,2.21,6.9,6.9,0,0,0,2,1.62A7.22,7.22,0,0,0,357,349.11Zm-12.59-30.4a6.83,6.83,0,0,0-2-1.62,6.67,6.67,0,0,0,1.3,2.19,7.18,7.18,0,0,0,2,1.64A7,7,0,0,0,344.41,318.71Zm-41.65,63.67a6.63,6.63,0,0,0-2-1.62,6.79,6.79,0,0,0,1.29,2.2,7,7,0,0,0,2,1.62A6.69,6.69,0,0,0,302.76,382.38Zm23.05-36.69a7,7,0,0,0-2-1.62,6.79,6.79,0,0,0,1.29,2.2,7,7,0,0,0,2,1.62A7.19,7.19,0,0,0,325.81,345.69Zm27.25,40.5a6.74,6.74,0,0,0-2.54.24,7,7,0,0,0,2.47.64,6.78,6.78,0,0,0,2.55-.25A6.78,6.78,0,0,0,353.06,386.19Zm-12.73-30.94a6.9,6.9,0,0,0-2.54.25,7.43,7.43,0,0,0,5,.39A6.79,6.79,0,0,0,340.33,355.25Zm-34.16-6.75a6.9,6.9,0,0,0-2.54.25,6.63,6.63,0,0,0,2.47.63,6.72,6.72,0,0,0,2.54-.24A7,7,0,0,0,306.17,348.5Zm14.6,34.71a6.87,6.87,0,0,0-2.53.25,7.43,7.43,0,0,0,5,.39A6.9,6.9,0,0,0,320.77,383.21ZM357,332.37a5.25,5.25,0,0,0-1.49.26,6,6,0,0,0,1.75.53C357.12,332.9,357,332.64,357,332.37Zm-29.3-4.78a6.53,6.53,0,0,0-2.54.25,6.88,6.88,0,0,0,2.47.63,6.7,6.7,0,0,0,2.54-.24A6.51,6.51,0,0,0,327.65,327.59Zm8.7-24.28a5.58,5.58,0,0,0-.69-.13,11.47,11.47,0,0,0-.19,1.27,6.77,6.77,0,0,0,.24,2.55,7,7,0,0,0,.64-2.48A9.77,9.77,0,0,0,336.35,303.31Zm-18.07,59.88a7.43,7.43,0,0,0-.39,5,6.79,6.79,0,0,0,.64-2.47A6.87,6.87,0,0,0,318.28,363.19Zm36.88,1.92a6.92,6.92,0,0,0-.65,2.47,6.84,6.84,0,0,0,.25,2.53,6.4,6.4,0,0,0,.63-2.46A6.5,6.5,0,0,0,355.16,365.11Zm-44.78-34.58-.62,1.59v0c0,.2-.06.42-.07.62a6.52,6.52,0,0,0,.23,2.54,7,7,0,0,0,.65-2.47A7.3,7.3,0,0,0,310.38,330.53Zm32.4,4.83a6.78,6.78,0,0,0-.63,2.49,6.69,6.69,0,0,0,.24,2.53,7,7,0,0,0,.64-2.46A7,7,0,0,0,342.78,335.36Z" style="fill:#fff"></path><path d="M346.25,309.74c25.86,26.91,63.55,95.05,68.2,104.83,3.17,6.63-31.51,24.11-33,19.29-1.89-6.18-32.09-82.44-40.12-111.22C336.93,306.78,340.91,304.18,346.25,309.74Z" style="fill:#d3766a"></path><path d="M379.84,429.3c1.2,3.3,5.32,17.34,8.2,19.08s18,1.38,25.61,1.38,9.12-2.13,9-4.75-16.11-3.12-16.11-3.12S427.88,448,433.25,449s17.74,4.12,19.53-.33c.81-2-2.58-4-2.58-4s5.19,1.51,6-1.07c.93-2.94-3.19-4.55-3.19-4.55s3.24.65,3.32-1.74c.16-5.35-20.14-8-20.14-8s15.55,7.57,16.05,3.2c.69-6-31.17-12.67-34.49-15.3a22.41,22.41,0,0,1-5.31-6.56Z" style="fill:#d3766a"></path><path d="M422.53,446.34a2.35,2.35,0,0,0-.73-2,6.62,6.62,0,0,0-1.85-1.2,24.8,24.8,0,0,0-4.37-1.42c-3-.76-6.08-1.3-9.14-2.09a37,37,0,0,1,9.41,1.06,17.53,17.53,0,0,1,4.49,1.71,6.15,6.15,0,0,1,1.87,1.62A2.41,2.41,0,0,1,422.53,446.34Z" style="fill:#263238"></path><path d="M450.2,444.64c-2.2-.54-4.36-1.16-6.52-1.78s-4.31-1.29-6.46-1.94l-6.43-2c-2.15-.68-4.29-1.34-6.46-2a49.8,49.8,0,0,1,6.67,1.19c2.21.5,4.37,1.14,6.53,1.79s4.29,1.38,6.4,2.18S448.15,443.68,450.2,444.64Z" style="fill:#263238"></path><path d="M429.49,431.59a42.84,42.84,0,0,1,6.16.85,59.72,59.72,0,0,1,6,1.55,54.4,54.4,0,0,1,5.83,2.18A43.75,43.75,0,0,1,453,439c-2-.68-3.88-1.43-5.83-2.08s-3.89-1.33-5.85-1.93-3.92-1.19-5.9-1.77S431.49,432.13,429.49,431.59Z" style="fill:#263238"></path><path d="M432.63,426.49a41.34,41.34,0,0,1,18.82,6.44c-3.16-1.12-6.23-2.31-9.36-3.35S435.81,427.52,432.63,426.49Z" style="fill:#263238"></path><path d="M372.4,337.82l-29.27,1s-4-14.16-5.13-22.31c-1.49-10.79,2.17-13.87,12.24-5.11C357,317.29,372.4,337.82,372.4,337.82Z" style="fill:#455a64"></path><path d="M346.7,338.73c-.31-.05-3.32,0-3.54,0-.43-1.67-.84-3.36-1.29-5-.22-.83-.46-1.67-.71-2.5s-.55-2-.79-2.77a.09.09,0,1,0-.18,0c.22,1.08.41,1.88.6,2.81s.36,1.67.57,2.5c.44,1.75.83,3.63,1.36,5.36a30,30,0,0,0,4-.32A.06.06,0,0,0,346.7,338.73Z" style="fill:#263238"></path><path d="M369.33,335.15c-4.27-.15-8.53-.23-12.8-.13-2.13.06-4.26.14-6.39.26s-4.24.45-6.37.54a.09.09,0,0,0,0,.18c2.11-.2,4.28-.11,6.4-.19l6.39-.21c4.25-.12,8.51-.25,12.77-.27C369.47,335.33,369.45,335.15,369.33,335.15Z" style="fill:#263238"></path><path d="M325.45,318.73c4.39,1.12,12.07-5.48,15.16-10.88.21-.37-.3-4.33-.68-9.16-.22-2.93-.4-6.2-.34-9.2,0-.62-18.88,4.23-18.88,4.23a48,48,0,0,1,1.61,11.54,6.66,6.66,0,0,1-.16,1.22,2.11,2.11,0,0,1,0,.21C321.71,309,321.21,317.64,325.45,318.73Z" style="fill:#d3766a"></path><path d="M338.43,289.55c-1,5.05-4.34,17.23-14.37,17.28a11.39,11.39,0,0,1-1.92-.14.66.66,0,0,1,0-.21,7.54,7.54,0,0,0,.15-1.22,47.61,47.61,0,0,0-1.61-11.55S334.34,290.22,338.43,289.55Z" style="fill:#263238"></path><path d="M344.54,269.84c1.1,6.88-5,25.48-10.29,29.09-7.66,5.23-18.89,4.28-23-4.63-4-8.63,4.41-32.73,10.18-35.87C330,253.8,342.9,259.67,344.54,269.84Z" style="fill:#d3766a"></path><path d="M328.73,275.43a15.13,15.13,0,0,1-1.55-.8,2.85,2.85,0,0,1-1.44-1.11.92.92,0,0,1,.29-1.06,2.21,2.21,0,0,1,2.26.07,3.3,3.3,0,0,1,1.69,1.66A1,1,0,0,1,328.73,275.43Z" style="fill:#263238"></path><path d="M315.61,271.47a16.91,16.91,0,0,0,1.74.1,2.77,2.77,0,0,0,1.8-.24.89.89,0,0,0,.29-1.06,2.23,2.23,0,0,0-2-1.08,3.33,3.33,0,0,0-2.29.58A1,1,0,0,0,315.61,271.47Z" style="fill:#263238"></path><path d="M322.59,291.26a2,2,0,0,1-1.29.4,3.63,3.63,0,0,1-1.25-.75,0,0,0,0,0-.07,0,1.78,1.78,0,0,0,1.37,1.2,1.43,1.43,0,0,0,1.35-.79C322.74,291.29,322.65,291.23,322.59,291.26Z" style="fill:#263238"></path><path d="M322.49,287.08a4.53,4.53,0,0,1-3.47,1,5.73,5.73,0,0,1-1.56-.42,1.82,1.82,0,0,1-.28-.13l-.26-.13a.34.34,0,0,1-.17-.37h0a.5.5,0,0,1,.05-.13h0l0-.11c.29-1,.85-2.41.85-2.41-.41.06-2.47.29-2.28-.2,1.6-4.1,3.37-8.66,5.83-12.4a.12.12,0,0,1,.21.1c-1.37,4-3.44,7.73-4.89,11.73a7.69,7.69,0,0,1,2.21,0c.13.08-1.14,2.76-1.24,3.21v.05a6.22,6.22,0,0,0,4.86.05C322.52,286.89,322.59,287,322.49,287.08Z" style="fill:#263238"></path><path d="M318.19,287.33a5.32,5.32,0,0,0,1.52,2.23,2.45,2.45,0,0,0,1.36.53c1.09.06,1.41-.85,1.48-1.7a5.71,5.71,0,0,0-.06-1.35A6.91,6.91,0,0,1,318.19,287.33Z" style="fill:#263238"></path><path d="M319.71,289.56a2.45,2.45,0,0,0,1.36.53c1.09.06,1.41-.85,1.48-1.7A2.47,2.47,0,0,0,319.71,289.56Z" style="fill:#ff98b9"></path><path d="M314.69,275.71a1.94,1.94,0,0,1,.74-.67,1.34,1.34,0,0,1,1.09,0,1.21,1.21,0,0,1,.69.85,2.19,2.19,0,0,1,0,1,4.18,4.18,0,0,1-.2.56,2.64,2.64,0,0,1-.72,1,3.88,3.88,0,0,0,.31-.84,5.76,5.76,0,0,0,.15-.79c0-.55-.05-1.08-.45-1.22a1.07,1.07,0,0,0-1.21.43,8.24,8.24,0,0,0-1,1.42A3.74,3.74,0,0,1,314.69,275.71Z" style="fill:#263238"></path><path d="M324.31,279.07a1.87,1.87,0,0,1,.64-.77,1.34,1.34,0,0,1,1.07-.16,1.26,1.26,0,0,1,.81.75,2.27,2.27,0,0,1,.1,1c0,.19-.08.39-.13.58a2.64,2.64,0,0,1-.58,1.08,3.91,3.91,0,0,0,.2-.87,4.49,4.49,0,0,0,0-.81c0-.55-.19-1.06-.6-1.14a1.05,1.05,0,0,0-1.15.58,9.54,9.54,0,0,0-.78,1.53A3.78,3.78,0,0,1,324.31,279.07Z" style="fill:#263238"></path><path d="M338.43,287.12c-.89-1.17-1-7.75-1-7.75s-11.09-7-10.47-18.09c0,0-6.59,6.13-11.88,6.59,0,0,2.38-11.65,12.95-11.24,0,0,10.36-2.33,17.13,8.86s-3.66,22.44-3.66,22.44Z" style="fill:#263238"></path><path d="M327.62,259.29a10.54,10.54,0,0,0-.68,5.51,19.61,19.61,0,0,0,1.35,5.37,17.35,17.35,0,0,0,2.81,4.91,22,22,0,0,0,5.08,4c.06,0,0,.14-.06.1a24.7,24.7,0,0,1-5.45-3.89,17.31,17.31,0,0,1-3.21-4.93A14.11,14.11,0,0,1,326,264.6a11.9,11.9,0,0,1,1.41-5.4A.11.11,0,0,1,327.62,259.29Z" style="fill:#263238"></path><path d="M337.34,284.47s5.28-5.47,7.82-3.49-2.09,10.38-5.56,11.08a3.37,3.37,0,0,1-4.18-2.5Z" style="fill:#d3766a"></path><path d="M343.77,283.35c.06,0,.06.08,0,.09-2.45.57-4,2.51-5.19,4.59a1.86,1.86,0,0,1,2.83-.07c.05.05,0,.14-.08.11a2.08,2.08,0,0,0-2.37.36,10.35,10.35,0,0,0-1.37,1.65c-.14.19-.49,0-.38-.2l0-.05C337.66,286.89,340.58,283.15,343.77,283.35Z" style="fill:#263238"></path><path d="M320.13,293.45a2.6,2.6,0,0,0,2.56.21,3,3,0,0,1-.62,2.2l.05-.79a5.33,5.33,0,0,1-1.2,2.35,3.07,3.07,0,0,1-.5-1.68l-.07,1A3.75,3.75,0,0,1,320.13,293.45Z" style="fill:#263238"></path></g><g id="freepik--Dog--inject-7"><path d="M200.29,414.51c-.89,1.82,2.07,15.14,3,17.88s4.21,18,6,18.71,10.38.75,11.6.32.09-3.06-1.29-4-3-2.38-3-2.38,3.15-23.35,2.75-26S202.7,409.61,200.29,414.51Z" style="fill:#FF2D55"></path><path d="M217.35,450.3a3.66,3.66,0,0,0-.53-1.31,4.52,4.52,0,0,0-1-1,3,3,0,0,0-1.21-.63.06.06,0,0,0-.06.1c.15.15.32.27.46.42l.45.47a7.25,7.25,0,0,1,.71,1c.2.37.4.74.57,1.13a12.1,12.1,0,0,1,.41,1.2.09.09,0,0,0,.17,0A3.21,3.21,0,0,0,217.35,450.3Z" style="opacity:0.1"></path><path d="M219.9,449a4.33,4.33,0,0,0-2.05-1.89c-.06,0-.12,0-.07.08a7.19,7.19,0,0,1,1.62,1.94,3.15,3.15,0,0,1,.26,2.49s0,.05.06,0A2.54,2.54,0,0,0,219.9,449Z" style="opacity:0.1"></path><path d="M157.86,426.6c-.49.44-5-4.09-5.69-6.17s2.48-7.83,2-8.84-3-1.87-4.4-.38-5,9.75-4.36,13.34,7.58,11.76,8.33,11.74S157.86,426.6,157.86,426.6Z" style="fill:#FF2D55"></path><path d="M157.86,426.6c-.49.44-5-4.09-5.69-6.17s2.48-7.83,2-8.84-3-1.87-4.4-.38-5,9.75-4.36,13.34,7.58,11.76,8.33,11.74S157.86,426.6,157.86,426.6Z" style="fill:#fff;opacity:0.5"></path><path d="M157.86,426.6s-3.41,9.67-4.16,9.69c-.55,0-4.42-4.35-6.7-8.1l6.67-5.32C155.26,424.86,157.52,426.9,157.86,426.6Z" style="fill:#FF2D55"></path><path d="M184.74,388.44l34-.42s4.76,25.53,4.35,28.89S205,444.78,199.66,447.86s-33,2.48-40.36.66c-5.69-1.42-10.27-8.86-7.59-20.06,1.18-4.9,14.27-17.08,16.85-18.46C172.14,408.07,184.74,388.44,184.74,388.44Z" style="fill:#FF2D55"></path><path d="M184.74,388.44l34-.42s4.76,25.53,4.35,28.89S205,444.78,199.66,447.86s-33,2.48-40.36.66c-5.69-1.42-10.27-8.86-7.59-20.06,1.18-4.9,14.27-17.08,16.85-18.46C172.14,408.07,184.74,388.44,184.74,388.44Z" style="fill:#fff;opacity:0.5"></path><path d="M159.14,427.43s10.83-6.38,18.25-5,9.65,16.8,5.84,25.32c0,0,6.75,2.21,6.66,5.5,0,1.88-3.95,2.37-9.56,2.08s-16.76-.7-17-2.12a6.76,6.76,0,0,1,.82-3.33s-10-1.41-11.83-8.14S157.43,428.52,159.14,427.43Z" style="fill:#FF2D55"></path><path d="M159.14,427.43s10.83-6.38,18.25-5,9.65,16.8,5.84,25.32c0,0,6.75,2.21,6.66,5.5,0,1.88-3.95,2.37-9.56,2.08s-16.76-.7-17-2.12a6.76,6.76,0,0,1,.82-3.33s-10-1.41-11.83-8.14S157.43,428.52,159.14,427.43Z" style="fill:#fff;opacity:0.5"></path><path d="M183.43,447.73a16.23,16.23,0,0,0,2-7.38,25.72,25.72,0,0,0-.24-4.88c-.12-.85-.25-1.7-.45-2.53a19,19,0,0,1-.55-2.68c0-.08-.12-.06-.1,0a15.47,15.47,0,0,1,.3,2.63c.06.82.15,1.65.21,2.47a44.34,44.34,0,0,1,.15,4.75,19.38,19.38,0,0,1-2.1,8.55c0,.06.06.11.1.05a10.44,10.44,0,0,0,.58-.89,22.92,22.92,0,0,1,4.13,2s.07,0,.05,0A8,8,0,0,0,183.43,447.73Z" style="fill:#FF2D55"></path><path d="M173.11,448.27a27.15,27.15,0,0,1-9,1.74c-.06,0-.08.1,0,.11a14.59,14.59,0,0,0,9-1.78S173.16,448.25,173.11,448.27Z" style="fill:#FF2D55"></path><path d="M185.45,455.54a5.22,5.22,0,0,0-2.24-3.06,7.88,7.88,0,0,0-1.94-1c-.79-.3-1.61-.47-2.4-.74-.07,0-.12.08-.05.1a14,14,0,0,1,2,1,19.84,19.84,0,0,1,1.85,1.17,11.5,11.5,0,0,1,2.53,2.68C185.26,455.74,185.48,455.69,185.45,455.54Z" style="fill:#FF2D55"></path><path d="M184.22,450.22a.06.06,0,0,0,0,.11,8.59,8.59,0,0,1,4.46,4.66c0,.09.18.09.17,0A5.45,5.45,0,0,0,184.22,450.22Z" style="fill:#FF2D55"></path><path d="M163.05,425.44a44.8,44.8,0,0,1,5.17-2.11,30.24,30.24,0,0,1,5.44-1.34,15,15,0,0,1,2.85-.12,6.06,6.06,0,0,1,2.83.83,11.91,11.91,0,0,1,3.72,4.37A22.65,22.65,0,0,1,185.73,438a23.26,23.26,0,0,1-.79,5.58,22.43,22.43,0,0,1-2.15,5.15,25.09,25.09,0,0,0,2.1-10.72,24,24,0,0,0-2.69-10.46,11.93,11.93,0,0,0-3.32-4.12,5.53,5.53,0,0,0-2.44-.78,12.83,12.83,0,0,0-2.7,0A45.17,45.17,0,0,0,163.05,425.44Z" style="fill:#FF2D55"></path><path d="M183.36,417.33c-.89,1.82,2.07,15.14,3,17.88s4.2,18,6,18.71,10.38.75,11.61.32.08-3.06-1.3-4-3-2.38-3-2.38,3.15-23.35,2.75-26S185.76,412.43,183.36,417.33Z" style="fill:#FF2D55"></path><path d="M183.36,417.33c-.89,1.82,2.07,15.14,3,17.88s4.2,18,6,18.71,10.38.75,11.61.32.08-3.06-1.3-4-3-2.38-3-2.38,3.15-23.35,2.75-26S185.76,412.43,183.36,417.33Z" style="fill:#fff;opacity:0.5"></path><path d="M189.08,444.77c-.5-1.7-1.17-3.36-1.68-5.06,0-.07-.12,0-.1,0,.38,1.38.67,2.78,1,4.16-.06-.09-.11-.19-.17-.29a6.79,6.79,0,0,1-.9-1.73.05.05,0,1,0-.1,0,4.22,4.22,0,0,0,.33.83l.45.92c.2.4.42.79.64,1.18,0,0,0,.05,0,.08a52.66,52.66,0,0,0,1.69,5.06.08.08,0,0,0,.15,0C190.1,448.18,189.59,446.49,189.08,444.77Z" style="fill:#FF2D55"></path><path d="M201.82,430.88s-.07-.05-.07,0c-.21,1.35-.32,2.72-.47,4.07s-.36,2.81-.53,4.21c-.35,2.8-.84,5.58-1.11,8.39,0,.12.18.14.21,0a59.12,59.12,0,0,0,1.41-8.24c.17-1.37.28-2.75.38-4.13S201.85,432.32,201.82,430.88Z" style="fill:#FF2D55"></path><path d="M200.83,452.94a3.46,3.46,0,0,0-.52-1.31,5,5,0,0,0-1-1,3.12,3.12,0,0,0-1.21-.63c-.06,0-.11.06-.06.1s.32.27.46.43l.45.47a6.27,6.27,0,0,1,.71,1c.2.37.4.74.57,1.12s.27.8.41,1.2a.09.09,0,0,0,.17,0A3.11,3.11,0,0,0,200.83,452.94Z" style="fill:#FF2D55"></path><path d="M203.39,451.63a4.38,4.38,0,0,0-2-1.89c-.06,0-.12,0-.07.09a7.15,7.15,0,0,1,1.62,1.93,3.19,3.19,0,0,1,.26,2.49,0,0,0,0,0,.06,0A2.55,2.55,0,0,0,203.39,451.63Z" style="fill:#FF2D55"></path><path d="M182.71,396s11.15,9.33,28.73,5.1c12.85-3.1,13.63-13.32,13.63-13.32Z" style="fill:#455a64"></path><path d="M203.59,351.13c-.57-1.48,2.7-7.23,4-9.18s9-5.45,11.66-4.3c1.05.45,3.28,4.09,6.12,7.17,4.38,4.77,9.44,9.73,7.93,11.34-3.65,3.92-13.3-.75-16.44-2.33s-6.06-3.59-6.77-3.44c-.94.2-2.79,1.9-3.58,2.06A2.82,2.82,0,0,1,203.59,351.13Z" style="fill:#FF2D55"></path><path d="M185,346.72c-8.75,6.47-11.43,21.67-11.45,24,0,2-3.79,9.21-2.28,16.48,1,4.67,10.07,10.11,17,9.37,1.27-.13,12.39,2.71,21.4,1.2s15.22-9.52,15.43-10.09,7.63-3.55,7.35-11.18c-.45-12.18-14.94-29.51-18.75-32C207.36,340.48,191,342.32,185,346.72Z" style="fill:#FF2D55"></path><path d="M185,346.72c-8.75,6.47-11.43,21.67-11.45,24,0,2-3.79,9.21-2.28,16.48,1,4.67,10.07,10.11,17,9.37,1.27-.13,12.39,2.71,21.4,1.2s15.22-9.52,15.43-10.09,7.63-3.55,7.35-11.18c-.45-12.18-14.94-29.51-18.75-32C207.36,340.48,191,342.32,185,346.72Z" style="fill:#fff;opacity:0.5"></path><path d="M210.7,371.57c-5.7.61-7.7,7-8.23,8.63s-3.7,5.65-3.42,9.47,7.93,7.36,15.43,5.27,11.08-6.76,10.65-10.63c-.33-3.1-3.53-5.51-3.94-6.3S215.9,371,210.7,371.57Z" style="fill:#FF2D55"></path><path d="M210.7,371.57c-5.7.61-7.7,7-8.23,8.63s-3.7,5.65-3.42,9.47,7.93,7.36,15.43,5.27,11.08-6.76,10.65-10.63c-.33-3.1-3.53-5.51-3.94-6.3S215.9,371,210.7,371.57Z" style="fill:#fff;opacity:0.2"></path><path d="M188.32,375.66a16.29,16.29,0,0,1-1.34-6.47,11.61,11.61,0,0,1,.47-3.39,7.78,7.78,0,0,1,.68-1.64,7.14,7.14,0,0,1,1-1.48,6.56,6.56,0,0,1,.65-.64c.23-.19.47-.36.71-.53l.37-.26.39-.21a6.55,6.55,0,0,1,.8-.39,9,9,0,0,1,3.42-.66,11.79,11.79,0,0,1,6.37,1.81,17.6,17.6,0,0,0-6.29-.53,9.29,9.29,0,0,0-2.87.81,6.54,6.54,0,0,0-.64.35l-.32.18-.29.22c-.19.15-.4.29-.58.45a5.9,5.9,0,0,0-.5.5,7,7,0,0,0-1.46,2.5,13.3,13.3,0,0,0-.66,3A30.48,30.48,0,0,0,188.32,375.66Z" style="fill:#FF2D55"></path><path d="M227.35,367.28a24.58,24.58,0,0,0-.83-5.37,8,8,0,0,0-2.59-4.19,6.61,6.61,0,0,0-1-.62,4.14,4.14,0,0,0-1.1-.32,8.88,8.88,0,0,0-2.52,0,33,33,0,0,0-5.29,1.28,13.16,13.16,0,0,1,2.36-1.55c.43-.21.86-.41,1.3-.59s.9-.32,1.37-.45a8.22,8.22,0,0,1,3-.28,5.2,5.2,0,0,1,1.56.4,6.64,6.64,0,0,1,3.28,3.21,9,9,0,0,1,.87,2.82A12.89,12.89,0,0,1,227.35,367.28Z" style="fill:#FF2D55"></path><path d="M203.35,370.77c0-.1-.21.16-.19.26.46,2.59.51,5.64-1.95,6.88a.07.07,0,0,0,0,.14C204.35,377.2,204.24,373.15,203.35,370.77Z" style="fill:#263238"></path><path d="M200.41,368.41c-4.64.34-3.81,8.79.49,8.48S204.3,368.13,200.41,368.41Z" style="fill:#263238"></path><path d="M218.76,367.68c0-.1.25.08.27.18.41,2.6,1.37,5.5,4.1,5.85.08,0,.1.15,0,.15C219.93,374.08,218.7,370.22,218.76,367.68Z" style="fill:#263238"></path><path d="M220.76,364.49c4.49-1.21,6.48,7,2.32,8.16S217,365.5,220.76,364.49Z" style="fill:#263238"></path><path d="M213.91,375.92c-.72.26-5.55-1-5.21-2.53s7.43-2.9,8.36-1.85S214.67,375.65,213.91,375.92Z" style="fill:#263238"></path><path d="M207.23,379.73a18.15,18.15,0,0,0,3.1,1.67,3.62,3.62,0,0,0,1.62.33c.34,0,.57-.47.71-.94a13.35,13.35,0,0,0,.43-3c.07-1,.07-2.08.07-3.11v-2.86l1.06,2.68c.33.82.7,1.64,1.07,2.45a19.71,19.71,0,0,0,1.26,2.36,4.26,4.26,0,0,0,.39.53,2.06,2.06,0,0,0,.44.41.68.68,0,0,0,.49,0,2.16,2.16,0,0,0,.59-.33,9.32,9.32,0,0,0,1.87-2.19,6.88,6.88,0,0,1-1.52,2.47,2.49,2.49,0,0,1-.7.49,2.12,2.12,0,0,1-.51.13,1.11,1.11,0,0,1-.57-.09,2.55,2.55,0,0,1-.69-.49,6.44,6.44,0,0,1-.49-.57,15,15,0,0,1-1.49-2.38,26.53,26.53,0,0,1-1.16-2.48l1.05-.19a28.08,28.08,0,0,1-.09,3.18c0,.53-.12,1.07-.21,1.6a8.9,8.9,0,0,1-.42,1.61,3.23,3.23,0,0,1-.44.81,1.52,1.52,0,0,1-.43.4,1.11,1.11,0,0,1-.35.14,1.27,1.27,0,0,1-.32,0,4.1,4.1,0,0,1-1.94-.54A12.13,12.13,0,0,1,207.23,379.73Z" style="fill:#263238"></path><path d="M213.37,380.64s.56,3.84,2,3.48,1-4.33,1-4.33l-2.62-4.3Z" style="fill:#263238"></path><path d="M213.65,382a1.44,1.44,0,0,1,.75-.47,2.76,2.76,0,0,1,.87.24.78.78,0,0,1,.6-.34c.65,0,1.56,1.42,1.85,2.77s.35,3.28-.92,3.32-1.4-3.36-1.4-3.36S214.28,384.58,213.65,382Z" style="fill:#ff98b9"></path><path d="M215.27,381.73a2.34,2.34,0,0,1,.89.79,4.37,4.37,0,0,1,.54,1.08,8.59,8.59,0,0,0-.61-1A3,3,0,0,0,215.27,381.73Z" style="fill:#263238"></path><path d="M215.4,384.12a4.5,4.5,0,0,0-.66-.57A.93.93,0,0,1,215.4,384.12Z" style="fill:#263238"></path><path d="M200.58,383.83a10.62,10.62,0,1,1,9.54-13.78h0a10.65,10.65,0,0,1-9.54,13.78Zm-1.09-19.78a8.9,8.9,0,0,0-2.25.41,9.19,9.19,0,1,0,2.25-.41Z" style="fill:#455a64"></path><path d="M224.55,379.54c-4.05.22-8-3.73-8.91-9.19a12.69,12.69,0,0,1,.94-7.69,6.63,6.63,0,0,1,11.16-1.94,12.76,12.76,0,0,1,3.47,6.93c1,5.77-1.68,11.06-6,11.81C225,379.5,224.78,379.52,224.55,379.54Zm-2.16-19.66a4.52,4.52,0,0,0-.53.06,5.65,5.65,0,0,0-4,3.34,11.2,11.2,0,0,0-.82,6.83c.87,5,4.43,8.57,8,7.95s5.68-5.17,4.81-10.17a11.22,11.22,0,0,0-3.06-6.15A5.89,5.89,0,0,0,222.39,359.88Z" style="fill:#455a64"></path><path d="M209.8,371l-1-1c1.52-1.45,5.12-3.5,7.88-.9l-1,1C213.25,367.78,209.94,370.88,209.8,371Z" style="fill:#455a64"></path><path d="M167.7,372.25l-1.18-.78c.36-.55,3.65-5.4,6.86-5.57,3-.16,17.2,2.51,18,2.67l-.28,1.39c-5.37-1.09-15.32-2.77-17.64-2.64C171.34,367.43,168.58,370.92,167.7,372.25Z" style="fill:#455a64"></path><path d="M191.63,350.32c-.44-1.6-6.8-4.42-9.09-5.28s-11,1-12.54,3.65c-.61,1-.21,5.51-.68,9.88-.73,6.77-1.91,14.12.37,14.54,5.54,1,10.77-8.94,12.44-12.24s2.88-6.82,3.57-7.14c.92-.41,3.55-.14,4.32-.49A3,3,0,0,0,191.63,350.32Z" style="fill:#FF2D55"></path></g><g id="freepik--speech-bubbles--inject-7"><rect x="229.15" y="208.65" width="46.37" height="34.67" style="fill:#FF2D55"></rect><polygon points="243.49 243.32 261.17 243.32 252.33 252.87 243.49 243.32" style="fill:#FF2D55"></polygon><path d="M261.33,228.28a28,28,0,0,1-9,7.81,28.09,28.09,0,0,1-9-7.81c-3.17-4.19-3-10.76,1.52-12.18,5-1.57,7.48,6,7.48,6s2.5-7.59,7.48-6C264.33,217.57,264.5,224.09,261.33,228.28Z" style="fill:#fff"></path><rect x="272.31" y="172.27" width="30.12" height="22.52" style="fill:#FF2D55"></rect><polygon points="281.63 194.79 293.11 194.79 287.37 201 281.63 194.79" style="fill:#FF2D55"></polygon><path d="M293.22,185a18.28,18.28,0,0,1-5.85,5.08,18.19,18.19,0,0,1-5.84-5.08c-2.06-2.72-2-7,1-7.91,3.26-1,4.86,3.88,4.86,3.88s1.62-4.93,4.86-3.88C295.16,178.07,295.28,182.3,293.22,185Z" style="fill:#fff"></path><rect x="387.13" y="61.01" width="46.37" height="34.67" style="fill:#FF2D55"></rect><polygon points="401.47 95.68 419.16 95.68 410.32 105.24 401.47 95.68" style="fill:#FF2D55"></polygon><path d="M419.32,80.64a28.09,28.09,0,0,1-9,7.82,28.09,28.09,0,0,1-9-7.82c-3.17-4.19-3-10.76,1.52-12.18,5-1.57,7.48,6,7.48,6s2.5-7.6,7.48-6C422.32,69.93,422.49,76.45,419.32,80.64Z" style="fill:#fff"></path></g></svg>
