<svg xmlns="http://www.w3.org/2000/svg" viewBox="0 0 500 500"><g id="freepik--Background--inject-2"><path id="freepik--background--inject-2" d="M46.89,95.76c9.87-19.88,43.17-52.68,77.18-63.53,12.72-4.06,15.34-14-14.75-12.59-47.84,2.25-69.19,34.1-73.51,59.75S37,115.64,46.89,95.76ZM463,368.9c-15.41,30.31-43.11,63-87.12,85.47-35.26,18-1,21.92,25.36,17.68,37-5.95,63.24-30.84,73.54-63.05C484.47,378.79,478.42,338.61,463,368.9Zm-2.24-213.65C426.17,89.65,369.66,55.84,319,36.16,239.4,5.2,157.62,19.27,102.92,56.87,13.45,118.36-16.37,273.32,51.8,376.63S199.89,491,294.67,470.79C456.57,436.35,523.16,273.45,460.79,155.25Z" style="fill:#37474f"></path></g><g id="freepik--Light--inject-2"><g id="freepik--light--inject-2" style="opacity:0.6000000000000001"><path d="M30.11,334l278.5,71.39,78.33-108.19-75.79-264C234,6.16,155.82,20.51,102.92,56.87,25.09,110.36-7.59,234.59,30.11,334Z" style="fill:#FF2D55;opacity:0.30000000000000004"></path><path d="M30.11,334l278.5,71.39,78.33-108.19-75.79-264C234,6.16,155.82,20.51,102.92,56.87,25.09,110.36-7.59,234.59,30.11,334Z" style="fill:#fff;opacity:0.1"></path></g></g><g id="freepik--Posts--inject-2"><g id="freepik--post-window--inject-2"><path d="M207.41,46.37l-82,47.39a6.4,6.4,0,0,0-2.89,5V215.52c0,1.85,1.3,2.59,2.89,1.67l82-47.4c1.6-.92,2.89-2.09,2.89-3.93V48C210.3,46.19,209,45.44,207.41,46.37Z" style="fill:#fafafa"></path><path d="M124.1,217.94a1.84,1.84,0,0,1-.93-.24,2.35,2.35,0,0,1-1-2.18V98.77a6.72,6.72,0,0,1,3.07-5.32l82-47.39h0a2.11,2.11,0,0,1,3.43,2V165.86c0,2.22-1.76,3.48-3.08,4.24l-82,47.4A3,3,0,0,1,124.1,217.94ZM208.7,46.32a2.36,2.36,0,0,0-1.12.35h0l-82,47.39a6.06,6.06,0,0,0-2.72,4.71V215.52a1.42,1.42,0,0,0,2.36,1.36l82-47.4c1.88-1.08,2.71-2.19,2.71-3.62V48a1.69,1.69,0,0,0-.66-1.56A1.14,1.14,0,0,0,208.7,46.32Z" style="fill:#e6e6e6"></path><path d="M134.44,97c3.19-1.85,5.78-.35,5.78,3.34a12.78,12.78,0,0,1-5.78,10c-3.2,1.84-5.79.35-5.79-3.34A12.77,12.77,0,0,1,134.44,97Z" style="fill:#FF2D55"></path><path d="M134.37,99.22c.86-.49,1.55-.09,1.55.89a3.42,3.42,0,0,1-1.55,2.69c-.86.49-1.55.09-1.55-.9A3.41,3.41,0,0,1,134.37,99.22Z" style="fill:#fff"></path><path d="M137.42,104.88c0-1.62-1.14-2.35-2.54-1.53l-.88.5a5.64,5.64,0,0,0-2.55,4.42v.43s.6,1.24,3-.17a6.67,6.67,0,0,0,3-3.27Z" style="fill:#fff"></path><path d="M146.52,95.36,174,79.49c1.19-.69,2.16-.14,2.16,1.22A4.75,4.75,0,0,1,174,84.43l-27.5,15.93c-1.19.69-2.15.14-2.15-1.24v0A4.77,4.77,0,0,1,146.52,95.36Z" style="fill:#455a64"></path><path d="M135.48,192.69l-1.27-.34c-1.21-.32-2.66-1-2.66-2.59a4.08,4.08,0,0,1,2-3.11,1.24,1.24,0,0,1,2,.93,4.9,4.9,0,0,1,2-3.19c1.09-.63,2-.26,2,.83,0,1.56-1.44,3.94-2.65,5.66Z" style="fill:#FF2D55"></path><path d="M146.05,186.67a2,2,0,0,1-1-.26,2.52,2.52,0,0,1-1.09-2.33,7.41,7.41,0,0,1,3.34-5.79A2.25,2.25,0,0,1,151,180.4a5.55,5.55,0,0,1-.21,1.47l1.08,1.49a.31.31,0,0,1-.25.49H149.9a6.72,6.72,0,0,1-2.27,2.34A3.22,3.22,0,0,1,146.05,186.67Zm2.84-8.23a2.49,2.49,0,0,0-1.26.4,6.69,6.69,0,0,0-3,5.24,1.64,1.64,0,0,0,2.71,1.57,6.11,6.11,0,0,0,2.14-2.27.33.33,0,0,1,.27-.15H151l-.77-1.06a.3.3,0,0,1-.09-.31,5.32,5.32,0,0,0,.23-1.46,2,2,0,0,0-.78-1.79A1.33,1.33,0,0,0,148.89,178.44Z" style="fill:#455a64"></path><path d="M157,180.72h0a.31.31,0,0,1-.27-.29l-.28-4.51-2.67-.72a.31.31,0,0,1-.08-.57l6.37-3.68a.32.32,0,0,1,.36,0,.29.29,0,0,1,.09.34l-3.18,9.2A.34.34,0,0,1,157,180.72Zm-2.37-5.94,2.16.59a.31.31,0,0,1,.24.28l.19,3.17,2.4-6.92Z" style="fill:#455a64"></path><path d="M156.73,176a.33.33,0,0,1-.19-.06.32.32,0,0,1-.06-.44L160,171a.32.32,0,0,1,.44-.06.31.31,0,0,1,0,.44L157,175.86A.3.3,0,0,1,156.73,176Z" style="fill:#455a64"></path><path d="M191.58,161.13h-.07a.31.31,0,0,1-.24-.3v-7.36a.33.33,0,0,1,.15-.27l4.66-2.7a.31.31,0,0,1,.31,0,.32.32,0,0,1,.16.27v7.36a.32.32,0,0,1-.2.29.31.31,0,0,1-.34-.07l-2-2L191.87,161A.33.33,0,0,1,191.58,161.13Zm.31-7.49v5.75l1.72-3.73a.33.33,0,0,1,.23-.18.3.3,0,0,1,.28.09l1.8,1.79v-6.05Z" style="fill:#455a64"></path><path d="M142.59,200a.37.37,0,0,1-.05.17.45.45,0,0,1-.12.12l-.47.27a.1.1,0,0,1-.16-.09v-4.67a.35.35,0,0,1,0-.17.45.45,0,0,1,.12-.12l.47-.27a.11.11,0,0,1,.12,0,.11.11,0,0,1,.05.1Z" style="fill:#455a64"></path><path d="M144.1,194.23a.11.11,0,0,1,.12,0,.1.1,0,0,1,.05.1v.56a.37.37,0,0,1-.05.16.3.3,0,0,1-.12.13l-.53.3a.1.1,0,0,1-.16-.09v-.56a.32.32,0,0,1,0-.16.51.51,0,0,1,.12-.13Zm.14,4.78a.33.33,0,0,1-.05.16.3.3,0,0,1-.12.13l-.47.27a.11.11,0,0,1-.11,0s-.05-.06-.05-.11v-3.32a.27.27,0,0,1,.05-.16.32.32,0,0,1,.11-.12l.47-.27a.11.11,0,0,1,.12,0,.1.1,0,0,1,.05.1Z" style="fill:#455a64"></path><path d="M145.89,196.83v1.23a.37.37,0,0,1,0,.16.23.23,0,0,1-.12.12l-.47.27a.12.12,0,0,1-.11,0s0-.06,0-.11v-4.67a.25.25,0,0,1,0-.16.36.36,0,0,1,.11-.13l.47-.27a.11.11,0,0,1,.12,0,.12.12,0,0,1,0,.11v2.24l1-1.56a.91.91,0,0,1,.1-.13.44.44,0,0,1,.14-.13l.63-.36s.07,0,.1,0a.11.11,0,0,1,.05.1s0,0,0,.07l-.06.11-1.44,2.17,1.57.83.05,0a.14.14,0,0,1,0,.06.3.3,0,0,1,0,.15.36.36,0,0,1-.1.11l-.6.34a.27.27,0,0,1-.16.05l-.09,0Z" style="fill:#455a64"></path><path d="M148.18,195.07a3.35,3.35,0,0,1,.11-.81,3.5,3.5,0,0,1,.3-.78,3.28,3.28,0,0,1,.48-.69,2.31,2.31,0,0,1,.62-.51,1.49,1.49,0,0,1,.63-.22.77.77,0,0,1,.48.12.83.83,0,0,1,.3.4,1.73,1.73,0,0,1,.11.63v.32a.41.41,0,0,1-.05.17.34.34,0,0,1-.12.12L149,195a.44.44,0,0,0,.06.25.28.28,0,0,0,.16.12.45.45,0,0,0,.23,0,1.12,1.12,0,0,0,.26-.11A1.77,1.77,0,0,0,150,195a1.5,1.5,0,0,0,.21-.24l.11-.14.11-.09.5-.28a.13.13,0,0,1,.12,0,.1.1,0,0,1,0,.11.83.83,0,0,1-.09.31,2.63,2.63,0,0,1-.27.47,4.66,4.66,0,0,1-.44.51,2.84,2.84,0,0,1-.61.45,1.54,1.54,0,0,1-.62.23.75.75,0,0,1-.48-.12.91.91,0,0,1-.3-.44A2.1,2.1,0,0,1,148.18,195.07Zm1.51-1.94a1.22,1.22,0,0,0-.3.24,1.08,1.08,0,0,0-.21.28,1.28,1.28,0,0,0-.14.29,1.58,1.58,0,0,0-.06.26l1.4-.81a1.33,1.33,0,0,0,0-.19.25.25,0,0,0-.11-.15.26.26,0,0,0-.2,0A1,1,0,0,0,149.69,193.13Z" style="fill:#455a64"></path><path d="M153.63,192.72a.1.1,0,0,0,0-.1.23.23,0,0,0-.15,0l-.29.08-.45.15a1.19,1.19,0,0,1-.45.08.5.5,0,0,1-.29-.08.42.42,0,0,1-.15-.24,1.35,1.35,0,0,1,0-.37,1.71,1.71,0,0,1,.08-.47,2.4,2.4,0,0,1,.25-.51,3.58,3.58,0,0,1,.4-.49,3.2,3.2,0,0,1,.54-.41,2.35,2.35,0,0,1,.54-.23,1,1,0,0,1,.4,0,.43.43,0,0,1,.36.43.25.25,0,0,1,0,.16.51.51,0,0,1-.12.13l-.48.27a.17.17,0,0,1-.14,0l-.1,0h-.14a.85.85,0,0,0-.28.12,1.37,1.37,0,0,0-.33.25.46.46,0,0,0-.14.31.16.16,0,0,0,0,.11.17.17,0,0,0,.13,0,1.36,1.36,0,0,0,.27-.06l.44-.14a.94.94,0,0,1,.77,0,.68.68,0,0,1,.23.59,1.24,1.24,0,0,1-.1.47,2.8,2.8,0,0,1-.26.52,3.27,3.27,0,0,1-.43.5,3.48,3.48,0,0,1-.58.43,1.79,1.79,0,0,1-.58.24,1,1,0,0,1-.42,0,.44.44,0,0,1-.26-.17.43.43,0,0,1-.1-.29.24.24,0,0,1,0-.16.51.51,0,0,1,.12-.13l.48-.28a.21.21,0,0,1,.14,0l.1.06a.37.37,0,0,0,.16,0,1,1,0,0,0,.32-.13l.19-.13.18-.15a1,1,0,0,0,.14-.16A.32.32,0,0,0,153.63,192.72Z" style="fill:#455a64"></path><path d="M131.67,202.7a.14.14,0,0,1,0-.13.3.3,0,0,1,.05-.16l1-1.84a.57.57,0,0,1,.08-.13.18.18,0,0,1,.08-.09l.37-.22a.07.07,0,0,1,.09,0s0,.06,0,.12V205a.32.32,0,0,1,0,.16.2.2,0,0,1-.09.11l-.38.22s-.07,0-.09,0a.12.12,0,0,1,0-.11v-3.61l-.67,1.2a.3.3,0,0,1-.09.1.08.08,0,0,1-.09,0Z" style="fill:#455a64"></path><path d="M134.18,199.8a.41.41,0,0,1,0-.16.26.26,0,0,1,.09-.11l1.79-1a.07.07,0,0,1,.09,0,.21.21,0,0,1,0,.12v.52a.45.45,0,0,1,0,.16.35.35,0,0,1-.09.11l-1.34.77-.05,1a1.42,1.42,0,0,1,.26-.24l.2-.13a1.23,1.23,0,0,1,.49-.18.59.59,0,0,1,.4.1.78.78,0,0,1,.26.38,2,2,0,0,1,.09.67,3.76,3.76,0,0,1-.09.85,3.4,3.4,0,0,1-.27.7,2,2,0,0,1-.4.54,2.11,2.11,0,0,1-.48.38,1.45,1.45,0,0,1-.56.21.6.6,0,0,1-.39-.09A.73.73,0,0,1,134,204a1.78,1.78,0,0,1-.09-.49.35.35,0,0,1,0-.17.18.18,0,0,1,.09-.1l.38-.23a.1.1,0,0,1,.09,0,.19.19,0,0,1,0,.1.5.5,0,0,0,.09.22.24.24,0,0,0,.14.09.37.37,0,0,0,.18,0l.21-.1a1.21,1.21,0,0,0,.44-.48,1.53,1.53,0,0,0,.16-.72.55.55,0,0,0-.16-.45.4.4,0,0,0-.44,0,1,1,0,0,0-.22.16l-.14.16-.09.13a.48.48,0,0,1-.11.09l-.44.25a.08.08,0,0,1-.09,0,.19.19,0,0,1,0-.12Z" style="fill:#455a64"></path><path d="M136.83,201.44a2.66,2.66,0,0,1,.1-.77q.09-.34.21-.69l.9-2.47s0-.08.05-.13a.24.24,0,0,1,.1-.1l.43-.25a.06.06,0,0,1,.09,0,.16.16,0,0,1,0,.11v.07s0,0,0,0l-.59,1.64a1.15,1.15,0,0,1,.52-.16.62.62,0,0,1,.4.13.88.88,0,0,1,.26.41,2.22,2.22,0,0,1,.09.67,3.48,3.48,0,0,1-.09.79,2.82,2.82,0,0,1-.27.72,2.92,2.92,0,0,1-.4.61,2.13,2.13,0,0,1-.53.43,1.06,1.06,0,0,1-.52.17.62.62,0,0,1-.4-.13.9.9,0,0,1-.27-.42A2.2,2.2,0,0,1,136.83,201.44Zm1.93-1.11a.7.7,0,0,0-.17-.53c-.11-.1-.27-.1-.48,0a1.22,1.22,0,0,0-.47.53,1.65,1.65,0,0,0-.17.72.72.72,0,0,0,.17.53c.11.11.27.11.47,0a1.15,1.15,0,0,0,.48-.54A1.69,1.69,0,0,0,138.76,200.33Z" style="fill:#455a64"></path><path d="M202.29,138.75a3.4,3.4,0,0,1-1.54,2.67l-67.45,39c-.85.49-1.54.09-1.54-.89V118.49a3.43,3.43,0,0,1,1.54-2.67l67.45-39c.85-.49,1.54-.1,1.54.89Z" style="fill:#FF2D55"></path><path d="M202.29,138.75a3.4,3.4,0,0,1-1.54,2.67l-67.45,39c-.85.49-1.54.09-1.54-.89V118.49a3.43,3.43,0,0,1,1.54-2.67l67.45-39c.85-.49,1.54-.1,1.54.89Z" style="fill:#fff;opacity:0.7000000000000001"></path><path d="M157.48,132.56a.34.34,0,0,1-.45,0,1.63,1.63,0,0,1-.31-.42l-6.24-10.84V135.8a1.51,1.51,0,0,1-.15.65.9.9,0,0,1-.37.45l-.78.45a.29.29,0,0,1-.37,0,.66.66,0,0,1-.15-.48V117.78a1.57,1.57,0,0,1,.15-.65,1,1,0,0,1,.37-.44l.67-.39a.34.34,0,0,1,.45,0,1.94,1.94,0,0,1,.32.42l6.23,10.84V113.06a1.54,1.54,0,0,1,.15-.65,1,1,0,0,1,.37-.45l.78-.45a.3.3,0,0,1,.37,0,.66.66,0,0,1,.15.48v19.06a1.58,1.58,0,0,1-.15.66,1,1,0,0,1-.37.44Z" style="fill:#fff"></path><path d="M170.23,122.54a.29.29,0,0,1,.37,0,.63.63,0,0,1,.15.47v1.06a1.51,1.51,0,0,1-.15.65,1,1,0,0,1-.37.45l-7.74,4.47a.28.28,0,0,1-.37,0,.62.62,0,0,1-.15-.47V110.1a1.54,1.54,0,0,1,.15-.65,1,1,0,0,1,.37-.45l7.59-4.38a.27.27,0,0,1,.36,0,.63.63,0,0,1,.16.47v1.06a1.52,1.52,0,0,1-.16.65.94.94,0,0,1-.36.45l-6.29,3.63v6.23l5.87-3.39a.27.27,0,0,1,.36,0,.63.63,0,0,1,.15.47v1.06a1.54,1.54,0,0,1-.15.65.94.94,0,0,1-.36.45l-5.87,3.39v6.46Z" style="fill:#fff"></path><path d="M180.07,103.75a1.51,1.51,0,0,1,.17.43l2.11,10.48,2-17.46a1.84,1.84,0,0,1,.23-.75,1.15,1.15,0,0,1,.36-.39l.77-.44a.23.23,0,0,1,.3,0,.54.54,0,0,1,.12.39c0,.06,0,.14,0,.24l-2.36,19.61a5.36,5.36,0,0,1-.29,1.3,1.43,1.43,0,0,1-.65.78l-.76.44c-.3.17-.52.15-.66-.05a2.32,2.32,0,0,1-.32-.92l-1.77-8.84-1.76,10.88a6.53,6.53,0,0,1-.33,1.29,1.48,1.48,0,0,1-.65.81l-.77.44c-.3.18-.52.17-.65,0a2.57,2.57,0,0,1-.28-1l-2.36-16.89a.94.94,0,0,1,0-.22,1.28,1.28,0,0,1,.12-.53.74.74,0,0,1,.3-.36l.77-.45a.39.39,0,0,1,.36,0c.12,0,.19.21.23.49l2,15.19,2.11-12.91a3.82,3.82,0,0,1,.17-.63,1.1,1.1,0,0,1,.48-.6l.65-.37C179.82,103.57,180,103.59,180.07,103.75Z" style="fill:#fff"></path><path d="M148.6,143.08a6.32,6.32,0,0,1,2.21-.84,2.33,2.33,0,0,1,1.67.33,3,3,0,0,1,1.06,1.56,8.65,8.65,0,0,1,.38,2.79,13.55,13.55,0,0,1-.38,3.26,11.46,11.46,0,0,1-1.06,2.77,10.31,10.31,0,0,1-3.88,4l-2.45,1.41v6a1.57,1.57,0,0,1-.15.65,1,1,0,0,1-.37.44l-2.51,1.45a.27.27,0,0,1-.36,0,.62.62,0,0,1-.16-.48V147.34a1.45,1.45,0,0,1,.16-.65,1,1,0,0,1,.36-.44Zm-2.45,10.66,2.36-1.36a3.73,3.73,0,0,0,1.33-1.32,3.91,3.91,0,0,0,.53-2.09c0-.83-.18-1.32-.53-1.48a1.45,1.45,0,0,0-1.33.22l-2.36,1.36Z" style="fill:#fff"></path><path d="M155.32,146.91a15.81,15.81,0,0,1,.47-3.38,15,15,0,0,1,1.16-3.22,13.39,13.39,0,0,1,1.85-2.77,9.4,9.4,0,0,1,2.5-2.08,5.09,5.09,0,0,1,2.49-.81,2.8,2.8,0,0,1,1.85.65,3.93,3.93,0,0,1,1.17,1.86,9.91,9.91,0,0,1,.47,2.84c0,.84,0,1.71,0,2.64s0,1.8,0,2.62a16.47,16.47,0,0,1-.47,3.38,14.81,14.81,0,0,1-1.17,3.23,12.58,12.58,0,0,1-1.85,2.78,9.77,9.77,0,0,1-2.49,2.06,5.28,5.28,0,0,1-2.5.83,2.72,2.72,0,0,1-1.85-.65,4.17,4.17,0,0,1-1.16-1.88,9.58,9.58,0,0,1-.47-2.84c0-.8,0-1.65,0-2.58S155.29,147.77,155.32,146.91Zm8.41.25c0-.36,0-.76,0-1.2s0-.89,0-1.34,0-.89,0-1.31,0-.78,0-1.11a4.8,4.8,0,0,0-.2-1.24,1.86,1.86,0,0,0-.46-.81,1.08,1.08,0,0,0-.74-.3,2,2,0,0,0-1,.33,4.12,4.12,0,0,0-1,.86,5.51,5.51,0,0,0-.74,1.15,7.15,7.15,0,0,0-.46,1.35,9.83,9.83,0,0,0-.2,1.47c0,.35,0,.74-.05,1.17v2.64c0,.43,0,.81.05,1.15a3.28,3.28,0,0,0,.66,2.07c.39.42,1,.41,1.78,0a4.17,4.17,0,0,0,1.76-2A8,8,0,0,0,163.73,147.16Z" style="fill:#fff"></path><path d="M174.51,127.83a5.06,5.06,0,0,1,2.25-.75,3.3,3.3,0,0,1,1.78.37,3,3,0,0,1,1.16,1.22,3.76,3.76,0,0,1,.45,1.72,1.25,1.25,0,0,1-.13.53.74.74,0,0,1-.28.35l-2.51,1.45a.65.65,0,0,1-.43.13.57.57,0,0,1-.33-.16l-.19-.19a.92.92,0,0,0-.35-.22,1.19,1.19,0,0,0-.58-.05,2.17,2.17,0,0,0-.84.32,4.82,4.82,0,0,0-.7.48,4.13,4.13,0,0,0-.6.58,2.89,2.89,0,0,0-.42.7,2.13,2.13,0,0,0-.16.84.91.91,0,0,0,.18.63.85.85,0,0,0,.61.19,5.48,5.48,0,0,0,1.15-.17l1.76-.46a5.89,5.89,0,0,1,1.84-.24,2.21,2.21,0,0,1,1.31.5,2.62,2.62,0,0,1,.79,1.32,8.17,8.17,0,0,1,.26,2.25,10,10,0,0,1-.44,2.94,12.31,12.31,0,0,1-3.12,5.11A11.46,11.46,0,0,1,174.6,149a5.81,5.81,0,0,1-2.37.84,3.23,3.23,0,0,1-1.85-.33,2.91,2.91,0,0,1-1.22-1.26,4.19,4.19,0,0,1-.46-1.95,1.28,1.28,0,0,1,.12-.53.81.81,0,0,1,.28-.35l2.51-1.45a.73.73,0,0,1,.43-.14.56.56,0,0,1,.3.13s.13.13.23.25a1.24,1.24,0,0,0,1.07.42,2.22,2.22,0,0,0,1-.35,7.3,7.3,0,0,0,1.7-1.32,2.35,2.35,0,0,0,.68-1.62.62.62,0,0,0-.25-.59,1.31,1.31,0,0,0-.75-.12,7.74,7.74,0,0,0-1.27.25l-1.83.47c-1.32.32-2.28.16-2.89-.51a5.29,5.29,0,0,1-.91-3.53,10,10,0,0,1,.38-2.64,12.38,12.38,0,0,1,1.08-2.66,11.78,11.78,0,0,1,1.72-2.39A9.52,9.52,0,0,1,174.51,127.83Z" style="fill:#fff"></path><path d="M192.17,117.93a.28.28,0,0,1,.36,0,.66.66,0,0,1,.16.48v3.13a1.59,1.59,0,0,1-.16.65,1,1,0,0,1-.36.44l-3.38,1.95v15.15a1.57,1.57,0,0,1-.15.65,1,1,0,0,1-.36.44l-2.52,1.45a.28.28,0,0,1-.36,0,.66.66,0,0,1-.15-.48V126.65l-3.38,1.95a.27.27,0,0,1-.36,0,.59.59,0,0,1-.16-.47V125a1.42,1.42,0,0,1,.16-.65,1,1,0,0,1,.36-.45Z" style="fill:#fff"></path></g><g id="freepik--post-window--inject-2"><path d="M284.89,62.2l-82,47.39a6.44,6.44,0,0,0-2.9,5V231.35c0,1.85,1.31,2.59,2.9,1.67l82-47.4c1.6-.92,2.89-2.09,2.89-3.93V63.86C287.78,62,286.49,61.27,284.89,62.2Z" style="fill:#fafafa"></path><path d="M201.58,233.77a1.84,1.84,0,0,1-.93-.24,2.35,2.35,0,0,1-1-2.18V114.61a6.73,6.73,0,0,1,3.07-5.33l82-47.39h0a2.11,2.11,0,0,1,3.43,2V181.69c0,2.22-1.76,3.49-3.08,4.24l-82,47.4A2.91,2.91,0,0,1,201.58,233.77Zm84.6-171.62a2.28,2.28,0,0,0-1.12.36h0l-82,47.39a6,6,0,0,0-2.72,4.71V231.35a1.42,1.42,0,0,0,2.36,1.36l82-47.39c1.88-1.08,2.71-2.2,2.71-3.63V63.86a1.68,1.68,0,0,0-.67-1.56A1.08,1.08,0,0,0,286.18,62.15Z" style="fill:#e6e6e6"></path><path d="M211.92,112.85c3.19-1.84,5.78-.35,5.78,3.34a12.77,12.77,0,0,1-5.78,10c-3.2,1.85-5.79.35-5.79-3.33A12.77,12.77,0,0,1,211.92,112.85Z" style="fill:#FF2D55"></path><path d="M211.85,115.05c.85-.49,1.55-.09,1.55.9a3.42,3.42,0,0,1-1.55,2.68c-.86.5-1.55.1-1.55-.89A3.43,3.43,0,0,1,211.85,115.05Z" style="fill:#fff"></path><path d="M214.9,120.71c0-1.62-1.14-2.34-2.54-1.53l-.88.51a5.61,5.61,0,0,0-2.55,4.41v.44s.6,1.23,3-.18a6.67,6.67,0,0,0,3-3.27Z" style="fill:#fff"></path><path d="M224,111.19l27.49-15.87c1.19-.69,2.16-.14,2.16,1.22a4.73,4.73,0,0,1-2.16,3.72L224,116.19c-1.19.69-2.15.14-2.15-1.24v0A4.77,4.77,0,0,1,224,111.19Z" style="fill:#455a64"></path><path d="M213,208.52l-1.27-.34c-1.22-.32-2.66-1-2.66-2.59a4.08,4.08,0,0,1,2-3.11,1.24,1.24,0,0,1,2,.94,4.86,4.86,0,0,1,2-3.2c1.09-.63,2-.26,2,.83,0,1.56-1.44,3.94-2.66,5.66Z" style="fill:#FF2D55"></path><path d="M223.52,202.5a2,2,0,0,1-1-.25,2.55,2.55,0,0,1-1.09-2.34,7.39,7.39,0,0,1,3.34-5.78,2.24,2.24,0,0,1,3.66,2.1,5.68,5.68,0,0,1-.21,1.48l1.08,1.48a.32.32,0,0,1,0,.33.33.33,0,0,1-.28.17h-1.69a6.77,6.77,0,0,1-2.27,2.33A3.22,3.22,0,0,1,223.52,202.5Zm2.85-8.23a2.66,2.66,0,0,0-1.27.4,6.68,6.68,0,0,0-3,5.24,1.64,1.64,0,0,0,2.71,1.57,6.24,6.24,0,0,0,2.14-2.26.32.32,0,0,1,.27-.16h1.25l-.77-1.06a.3.3,0,0,1-.09-.31,5.26,5.26,0,0,0,.23-1.46,2,2,0,0,0-.78-1.79A1.33,1.33,0,0,0,226.37,194.27Z" style="fill:#455a64"></path><path d="M234.5,196.55h0a.32.32,0,0,1-.27-.3l-.28-4.51-2.67-.72a.29.29,0,0,1-.23-.26.3.3,0,0,1,.15-.31l6.37-3.68a.34.34,0,0,1,.36,0,.29.29,0,0,1,.09.34l-3.18,9.2A.32.32,0,0,1,234.5,196.55Zm-2.37-5.94,2.16.59a.3.3,0,0,1,.23.28l.2,3.17,2.39-6.92Z" style="fill:#455a64"></path><path d="M234.21,191.81a.33.33,0,0,1-.19-.06.32.32,0,0,1-.06-.44l3.48-4.46a.32.32,0,0,1,.44-.06.31.31,0,0,1,.05.44l-3.47,4.46A.32.32,0,0,1,234.21,191.81Z" style="fill:#455a64"></path><path d="M271,178.09H271a.31.31,0,0,1-.25-.3v-7.36a.32.32,0,0,1,.16-.27l4.65-2.7a.29.29,0,0,1,.31,0,.3.3,0,0,1,.16.27v7.35a.3.3,0,0,1-.19.29.3.3,0,0,1-.34-.06l-2-2-2.13,4.62A.31.31,0,0,1,271,178.09Zm.31-7.49v5.74l1.71-3.72a.32.32,0,0,1,.23-.18.3.3,0,0,1,.28.09l1.81,1.79v-6Z" style="fill:#455a64"></path><path d="M220.07,215.8a.37.37,0,0,1,0,.16.34.34,0,0,1-.12.12l-.47.27a.11.11,0,0,1-.12,0,.1.1,0,0,1-.05-.1v-4.67a.33.33,0,0,1,.05-.16.51.51,0,0,1,.12-.13l.47-.27a.11.11,0,0,1,.12,0,.12.12,0,0,1,0,.11Z" style="fill:#455a64"></path><path d="M221.58,210.06a.11.11,0,0,1,.12,0,.11.11,0,0,1,.05.1v.56a.33.33,0,0,1-.05.16.3.3,0,0,1-.12.13l-.53.3a.11.11,0,0,1-.12,0,.1.1,0,0,1-.05-.1v-.56a.37.37,0,0,1,.05-.16.51.51,0,0,1,.12-.13Zm.14,4.78a.41.41,0,0,1-.05.17.46.46,0,0,1-.12.12l-.47.27a.11.11,0,0,1-.12,0s0,0,0-.11V212a.38.38,0,0,1,0-.17.68.68,0,0,1,.12-.12l.47-.27a.11.11,0,0,1,.12,0,.11.11,0,0,1,.05.1Z" style="fill:#455a64"></path><path d="M223.37,212.66v1.23a.33.33,0,0,1-.05.16.3.3,0,0,1-.12.13l-.47.27a.11.11,0,0,1-.11,0s-.05-.06-.05-.11v-4.67a.25.25,0,0,1,.05-.16.36.36,0,0,1,.11-.13l.47-.27c.05,0,.09,0,.12,0a.13.13,0,0,1,.05.11v2.24l1-1.55a.8.8,0,0,1,.09-.14.44.44,0,0,1,.15-.12l.63-.37a.12.12,0,0,1,.1,0,.11.11,0,0,1,0,.1s0,0,0,.07a.64.64,0,0,1-.06.11l-1.44,2.17,1.57.83.05,0a.07.07,0,0,1,0,.05.28.28,0,0,1,0,.15.27.27,0,0,1-.1.11l-.6.34a.23.23,0,0,1-.16.05l-.09,0Z" style="fill:#455a64"></path><path d="M225.66,210.91a3.36,3.36,0,0,1,.11-.82,3.7,3.7,0,0,1,.3-.78,3.28,3.28,0,0,1,.48-.69,2.31,2.31,0,0,1,.62-.51,1.46,1.46,0,0,1,.63-.21.78.78,0,0,1,.48.11.83.83,0,0,1,.3.4,1.73,1.73,0,0,1,.11.63v.33a.37.37,0,0,1-.05.16.28.28,0,0,1-.12.12l-2.06,1.19a.5.5,0,0,0,.06.26.28.28,0,0,0,.16.12.62.62,0,0,0,.23,0,1.12,1.12,0,0,0,.26-.11,1.39,1.39,0,0,0,.32-.23,2.25,2.25,0,0,0,.21-.24l.11-.14a.53.53,0,0,1,.11-.09l.5-.28a.11.11,0,0,1,.12,0,.08.08,0,0,1,0,.1.92.92,0,0,1-.09.32,3,3,0,0,1-.27.46,4,4,0,0,1-.44.51,3.61,3.61,0,0,1-.61.46,1.66,1.66,0,0,1-.62.22.75.75,0,0,1-.48-.12.91.91,0,0,1-.3-.44A2.08,2.08,0,0,1,225.66,210.91Zm1.51-1.94a1,1,0,0,0-.3.23,1.42,1.42,0,0,0-.22.28,2.38,2.38,0,0,0-.13.29,1.58,1.58,0,0,0-.06.26l1.4-.8a1.17,1.17,0,0,0-.05-.2.25.25,0,0,0-.11-.15.26.26,0,0,0-.2,0A.83.83,0,0,0,227.17,209Z" style="fill:#455a64"></path><path d="M231.1,208.55a.11.11,0,0,0,0-.1.23.23,0,0,0-.15,0l-.29.08-.45.15a1.48,1.48,0,0,1-.45.09.5.5,0,0,1-.29-.09.42.42,0,0,1-.15-.23,1.4,1.4,0,0,1,0-.37,1.65,1.65,0,0,1,.08-.47,2.19,2.19,0,0,1,.25-.51,3.06,3.06,0,0,1,.4-.49,2.41,2.41,0,0,1,.54-.41,2,2,0,0,1,.54-.24.93.93,0,0,1,.4,0,.44.44,0,0,1,.26.14.45.45,0,0,1,.1.28.25.25,0,0,1,0,.16.51.51,0,0,1-.12.13l-.48.27a.18.18,0,0,1-.14,0l-.1,0h-.15a.92.92,0,0,0-.27.12,1.43,1.43,0,0,0-.33.25.46.46,0,0,0-.14.31.19.19,0,0,0,0,.12.24.24,0,0,0,.13,0l.27-.07.44-.14c.36-.12.62-.13.77,0a.66.66,0,0,1,.23.58,1.24,1.24,0,0,1-.1.47,2.8,2.8,0,0,1-.26.52,3.36,3.36,0,0,1-.44.5,2.67,2.67,0,0,1-.57.43,2.11,2.11,0,0,1-.58.25,1,1,0,0,1-.42,0,.5.5,0,0,1-.27-.17.48.48,0,0,1-.09-.29.25.25,0,0,1,0-.16.51.51,0,0,1,.12-.13l.48-.27c.06,0,.1-.05.14,0l.1.05a.26.26,0,0,0,.16,0,1,1,0,0,0,.32-.13l.19-.13a.84.84,0,0,0,.18-.15,1,1,0,0,0,.14-.16A.3.3,0,0,0,231.1,208.55Z" style="fill:#455a64"></path><path d="M209.14,218.53a.17.17,0,0,1,0-.13.3.3,0,0,1,0-.16l1-1.84c0-.05.05-.09.07-.13a.38.38,0,0,1,.09-.09l.37-.21s.07,0,.09,0a.15.15,0,0,1,0,.12v4.71a.32.32,0,0,1,0,.16.17.17,0,0,1-.09.11l-.38.22s-.07,0-.09,0a.16.16,0,0,1,0-.12v-3.6l-.67,1.19c0,.05-.06.09-.1.1a.07.07,0,0,1-.08,0Z" style="fill:#455a64"></path><path d="M211.66,215.63a.45.45,0,0,1,0-.16.35.35,0,0,1,.09-.11l1.78-1s.07,0,.09,0a.12.12,0,0,1,0,.11V215a.32.32,0,0,1,0,.16.2.2,0,0,1-.09.11l-1.33.77,0,1a1.82,1.82,0,0,1,.25-.24l.21-.13a1.41,1.41,0,0,1,.49-.18.59.59,0,0,1,.4.1.85.85,0,0,1,.26.38,2.09,2.09,0,0,1,.09.67,3.25,3.25,0,0,1-.1.85,2.9,2.9,0,0,1-.26.7,2,2,0,0,1-.4.54,2.11,2.11,0,0,1-.48.38,1.3,1.3,0,0,1-.56.21.6.6,0,0,1-.39-.09.73.73,0,0,1-.23-.33,1.78,1.78,0,0,1-.09-.49.29.29,0,0,1,0-.16.17.17,0,0,1,.09-.11l.38-.22a.1.1,0,0,1,.09,0,.19.19,0,0,1,.05.1.45.45,0,0,0,.09.22.24.24,0,0,0,.14.09.37.37,0,0,0,.18,0,1,1,0,0,0,.21-.1,1.09,1.09,0,0,0,.44-.48,1.51,1.51,0,0,0,.16-.71.52.52,0,0,0-.16-.45.38.38,0,0,0-.44,0,1.58,1.58,0,0,0-.22.16l-.14.16s-.07.09-.09.13a.52.52,0,0,1-.11.1l-.44.25a.06.06,0,0,1-.09,0,.17.17,0,0,1,0-.12Z" style="fill:#455a64"></path><path d="M214.31,217.27a3.07,3.07,0,0,1,.09-.77c.07-.23.14-.46.22-.69l.9-2.47,0-.12a.22.22,0,0,1,.1-.11l.43-.25a.06.06,0,0,1,.09,0,.17.17,0,0,1,0,.12v.06s0,0,0,0l-.59,1.64a1.29,1.29,0,0,1,.52-.16.63.63,0,0,1,.4.14.83.83,0,0,1,.26.41,2.13,2.13,0,0,1,.09.67,3.39,3.39,0,0,1-.09.78,3.53,3.53,0,0,1-.27.73,2.77,2.77,0,0,1-.41.6,1.93,1.93,0,0,1-.52.43,1.06,1.06,0,0,1-.52.17.6.6,0,0,1-.4-.13.81.81,0,0,1-.27-.42A2.2,2.2,0,0,1,214.31,217.27Zm1.93-1.11a.7.7,0,0,0-.17-.53c-.11-.1-.27-.09-.48,0a1.22,1.22,0,0,0-.47.53,1.65,1.65,0,0,0-.17.72.74.74,0,0,0,.17.54c.11.1.27.1.47,0a1.18,1.18,0,0,0,.48-.53A1.73,1.73,0,0,0,216.24,216.16Z" style="fill:#455a64"></path><path d="M279.77,154.59a3.43,3.43,0,0,1-1.54,2.67l-67.45,39c-.85.49-1.54.1-1.54-.89V134.33a3.4,3.4,0,0,1,1.54-2.67l67.45-39c.85-.49,1.54-.09,1.54.89Z" style="fill:#FF2D55"></path><path d="M279.77,154.59a3.43,3.43,0,0,1-1.54,2.67l-67.45,39c-.85.49-1.54.1-1.54-.89V134.33a3.4,3.4,0,0,1,1.54-2.67l67.45-39c.85-.49,1.54-.09,1.54.89Z" style="fill:#fff;opacity:0.7000000000000001"></path><path d="M209.24,174.73v20.66c0,1,.69,1.38,1.54.89l67.45-39a3.43,3.43,0,0,0,1.54-2.67V131.8l-17-11.65-16,30.4,8.91,7.49L232,145.73Z" style="fill:#fff;opacity:0.6000000000000001"></path></g></g><g id="freepik--Character--inject-2"><g id="freepik--Mobile--inject-2"><path d="M386.94,297.22a1.27,1.27,0,0,0-1.25.06l-42.84,19a6.52,6.52,0,0,0-3,3.22l-31.32,84.57c-.25.66-.19,1.13.1,1.35l5.15,3.76a1.27,1.27,0,0,0,1.25-.07l42.84-19a6.5,6.5,0,0,0,3-3.21l31.32-84.58c.25-.66.19-1.13-.1-1.35Z" style="fill:#FF2D55"></path><path d="M346.26,321.33a5.76,5.76,0,0,0-1.28,1.92l-31.32,84.57c-.23.63-.2,1.08,0,1.31l-5.1-3.72c-.29-.22-.35-.69-.1-1.35l31.32-84.58a6,6,0,0,1,1.28-1.92Z" style="opacity:0.2"></path><path d="M315,409.1l42.84-19a6.5,6.5,0,0,0,3-3.21l31.32-84.58c.46-1.24-.14-1.81-1.35-1.27L348,320a6.52,6.52,0,0,0-3,3.22l-31.32,84.57C313.2,409.06,313.81,409.63,315,409.1Z" style="fill:#FF2D55"></path><path d="M315,409.1l42.84-19a6.5,6.5,0,0,0,3-3.21l31.32-84.58c.46-1.24-.14-1.81-1.35-1.27L348,320a6.52,6.52,0,0,0-3,3.22l-31.32,84.57C313.2,409.06,313.81,409.63,315,409.1Z" style="opacity:0.30000000000000004"></path><path d="M345.05,337.06l3.19-8.61a7.52,7.52,0,0,1,3.47-3.68l1.67-.74c2.19-1,3.3.07,2.47,2.32L352.66,335a7.59,7.59,0,0,1-3.47,3.69l-1.67.74C345.33,340.36,344.22,339.32,345.05,337.06Z" style="fill:#263238"></path><path d="M346.79,336a7,7,0,0,1,3.29-3.37c1.35-.6,2.06-.06,1.59,1.2a7,7,0,0,1-3.28,3.37C347,337.8,346.32,337.26,346.79,336Z" style="fill:#455a64"></path><path d="M348,335.47a3.59,3.59,0,0,1,1.68-1.72c.69-.31,1.06,0,.82.61a3.51,3.51,0,0,1-1.68,1.72C348.11,336.39,347.75,336.11,348,335.47Z" style="fill:#fff;opacity:0.2"></path><path d="M349.21,329.62a6.94,6.94,0,0,1,3.29-3.37c1.34-.6,2.06-.06,1.59,1.2a7,7,0,0,1-3.29,3.37C349.46,331.41,348.74,330.88,349.21,329.62Z" style="fill:#455a64"></path><path d="M350.4,329.09a3.51,3.51,0,0,1,1.68-1.72c.69-.31,1.06,0,.82.61a3.59,3.59,0,0,1-1.68,1.72C350.53,330,350.16,329.73,350.4,329.09Z" style="fill:#fff;opacity:0.2"></path><path d="M340.14,329.26l-.68-.5a.73.73,0,0,0-.71-.11l-.83.37a.72.72,0,0,0-.39.44l-2.84,7.68a1.34,1.34,0,0,0,.44,1.46l.69.49a.68.68,0,0,0,.71.11l.82-.36a.78.78,0,0,0,.39-.44l2.84-7.68A1.32,1.32,0,0,0,340.14,329.26Z" style="fill:#FF2D55"></path><path d="M340.14,329.26l-.68-.5a.73.73,0,0,0-.71-.11l-.83.37a.72.72,0,0,0-.39.44l-2.84,7.68a1.34,1.34,0,0,0,.44,1.46l.69.49a.68.68,0,0,0,.71.11l.82-.36a.78.78,0,0,0,.39-.44l2.84-7.68A1.32,1.32,0,0,0,340.14,329.26Z" style="opacity:0.4"></path><path d="M336.92,338.76l2.85-7.68a1.35,1.35,0,0,0-.44-1.46l-.69-.5a.69.69,0,0,0-1.11.34l-2.84,7.68a1.34,1.34,0,0,0,.44,1.46l.69.49A.67.67,0,0,0,336.92,338.76Z" style="fill:#FF2D55"></path><path d="M335.47,341.85l-.69-.5a.72.72,0,0,0-.71-.11l-.83.37a.74.74,0,0,0-.38.44L330,349.73a1.34,1.34,0,0,0,.45,1.46l.68.49a.7.7,0,0,0,.72.11l.82-.36a.78.78,0,0,0,.39-.44l2.84-7.68A1.33,1.33,0,0,0,335.47,341.85Z" style="fill:#FF2D55"></path><path d="M335.47,341.85l-.69-.5a.72.72,0,0,0-.71-.11l-.83.37a.74.74,0,0,0-.38.44L330,349.73a1.34,1.34,0,0,0,.45,1.46l.68.49a.7.7,0,0,0,.72.11l.82-.36a.78.78,0,0,0,.39-.44l2.84-7.68A1.33,1.33,0,0,0,335.47,341.85Z" style="opacity:0.4"></path><path d="M332.25,351.35l2.84-7.68a1.32,1.32,0,0,0-.44-1.46l-.69-.5a.68.68,0,0,0-1.1.34L330,349.73a1.34,1.34,0,0,0,.45,1.46l.68.49A.68.68,0,0,0,332.25,351.35Z" style="fill:#FF2D55"></path><path d="M385.69,297.28l-16.13,7.28-16.16,7.21-8.08,3.61-2,.9a5.47,5.47,0,0,0-1.79,1.16,6.26,6.26,0,0,0-1.3,1.69c-.3.62-.52,1.36-.78,2l-6.11,16.61L321,370.93l-6.18,16.58-6.26,16.55,6-16.63,6.1-16.61,12.21-33.22L339,321c.27-.69.47-1.37.81-2.08a6.94,6.94,0,0,1,1.39-1.79,5.77,5.77,0,0,1,1.91-1.22l2-.89,8.1-3.57,16.19-7.13Z" style="fill:#fff;opacity:0.5"></path></g><g id="freepik--character--inject-2"><g id="freepik--Top--inject-2"><path d="M202,267.51a13.57,13.57,0,0,1-3.64-1c-3.87-1.71-7.17-5.06-7.64-9.94-2.5,2.35-2.43,6.62-1,9.74-5.38-.3-10.11-4.44-12-9.5s-1.17-10.82,1-15.76a12.17,12.17,0,0,1-10.3.34c4.57-.95,7.56-5.59,8.31-10.2s-.18-9.29-.65-13.93c-1.79-17.78-.32-42.49,17.51-47.64,14.26-42,61.71-37.86,81.65-24.94,50.52,32.74,19,68.9,19,68.91-.91,1-3.58,1.74-4.8,2.33l-31.82,15.45-10.59,5.14a19.75,19.75,0,0,0-3.44,1.55c-1.15.91-1.87,2.85-2.56,4.12a32.06,32.06,0,0,1-2.81,4.68,13.46,13.46,0,0,1-15.43,3.9,1.23,1.23,0,0,0-.55-.15c-.54,0-.81.65-1,1.18a24.49,24.49,0,0,1-2.74,7,20,20,0,0,1-5,5.05A20.24,20.24,0,0,1,208,267,13.39,13.39,0,0,1,202,267.51Z" style="fill:#263238"></path><path d="M323.6,346.67c-.19-18.72-22.55-39.6-34.32-53-7.24-8.27-10-8.78-17.25-10.74-6.28-1.68-17-3.58-17-8.73H255l.06-6.63c7.05,1.14,16.85,2.07,22.9-1.08,5.49-2.86,15.56-16.1,17.73-48.17,1.53-22.62-.71-34.18-4.46-40.72-5.59-9.75-11.28,4.3-20.2,4.66-12.1.5-17.25-9.49-28.44-5.87-2.94.95-5.44,3.71-7.11,7.31-1.43,3-1.93,8.33-4.4,12.17-5.1,7.93-10.77,5.3-12.45,14.87-.31,1.73-.59,4.35-2,6.37a4,4,0,0,1-5.69.59,11.47,11.47,0,0,1-2.65-3.18l-3.07-4.73c-3.88-6-11.56-8.05-17.08-2.77-7,6.72-4.17,19.39,4,27.65,7.26,7.3,14.75,3.35,15.58,0l.61,31.82c-.06,5.95-2,7.64-13.13,15.89-9.33,6.92-12.56,8.52-25.21,17.13-11.88,8.08-13.48,33.95-8.17,48.79s15.11,42.2,20,62.79c1.39,5.87,0,15.45,0,15.45l62.42,25.74,66.88-38.61L306.69,375A31.08,31.08,0,0,0,323.6,346.67Z" style="fill:#ffa8a7"></path><path d="M252.33,239.18l10.82,3.37a5.44,5.44,0,0,1-6.9,3.83A6,6,0,0,1,252.33,239.18Z" style="fill:#f28f8f"></path><polygon points="265.85 206.33 264.97 233.87 279.09 232.82 265.85 206.33" style="fill:#f28f8f"></polygon><polygon points="265.85 206.33 276.95 231.5 264.97 233.87 279.09 232.82 265.85 206.33" style="fill:#fff;opacity:0.75"></polygon><polygon points="265.85 206.33 276.95 231.5 264.97 233.87 279.09 232.82 265.85 206.33" style="fill:#FF2D55;opacity:0.30000000000000004"></polygon><path d="M255.05,267.52c-20.89-5.55-38.46-11.67-41.77-20.89a26.42,26.42,0,0,0,8,13.5c6.71,6.11,33.76,14,33.76,14Z" style="fill:#f28f8f"></path><path d="M256,213.58a6.62,6.62,0,1,1-8.32-3.24A6.32,6.32,0,0,1,256,213.58Z" style="fill:#f28f8f"></path><path d="M276.9,213.58a6.62,6.62,0,1,0,8.33-3.24A6.32,6.32,0,0,0,276.9,213.58Z" style="fill:#f28f8f"></path><path d="M254.89,210.9c.65,2.79-1,4.55-3.83,5.28s-5.69.17-6.34-2.62a5.4,5.4,0,0,1,3.91-6.38A5.05,5.05,0,0,1,254.89,210.9Z" style="fill:#263238"></path><path d="M253.66,211.77c-.51.52-.81-.37-1.56-1.09s-1.65-1-1.15-1.51a1.67,1.67,0,0,1,2.26.35C254,210.24,254.16,211.24,253.66,211.77Z" style="fill:#FF2D55"></path><path d="M253.77,211.93a.7.7,0,1,1-.7-.71A.7.7,0,0,1,253.77,211.93Z" style="fill:#fff"></path><path d="M277.92,211.61c-.42,2.83,1.47,4.36,4.33,4.87s5.59-.2,6-3a5.4,5.4,0,0,0-4.41-6A5,5,0,0,0,277.92,211.61Z" style="fill:#263238"></path><path d="M286.81,211.92c-.5.53-.81-.37-1.55-1.08s-1.66-1-1.16-1.51,1.52-.37,2.27.35A1.66,1.66,0,0,1,286.81,211.92Z" style="fill:#FF2D55"></path><path d="M286.93,212.08a.71.71,0,1,1-.7-.7A.7.7,0,0,1,286.93,212.08Z" style="fill:#fff"></path><path d="M289.81,202.43l-9.89-5.53a5.44,5.44,0,0,1,7.54-2.33A6,6,0,0,1,289.81,202.43Z" style="fill:#263238"></path><path d="M239.32,200l9.5-6.18a5.43,5.43,0,0,1-1.46,7.76A6,6,0,0,1,239.32,200Z" style="fill:#263238"></path><path d="M236.43,262c7.85,2.54,11.28,3.79,18.62,5.57h0c7.05,1.14,16.85,2.07,22.9-1.08,5.49-2.86,15.56-16.1,17.73-48.17,1-15.38.34-25.64-1.4-32.69,1.86,16.8.64,32.68-2.93,50.78s-10.4,27.25-18,29.74S246.1,265,236.43,262Z" style="fill:#fff;opacity:0.75"></path><path d="M236.43,262c7.85,2.54,11.28,3.79,18.62,5.57h0c7.05,1.14,16.85,2.07,22.9-1.08,5.49-2.86,15.56-16.1,17.73-48.17,1-15.38.34-25.64-1.4-32.69,1.86,16.8.64,32.68-2.93,50.78s-10.4,27.25-18,29.74S246.1,265,236.43,262Z" style="fill:#FF2D55;opacity:0.30000000000000004"></path><path d="M279.86,147.81c14.06,11.5,21.75,25.23,22.44,37.77s-3.75,20.62-5.77,25h0C302.5,201.54,316,174,279.86,147.81Z" style="fill:#fff;opacity:0.6000000000000001"></path><path d="M279.86,147.81c14.06,11.5,21.75,25.23,22.44,37.77s-3.75,20.62-5.77,25h0C302.5,201.54,316,174,279.86,147.81Z" style="fill:#FF2D55;opacity:0.5"></path><path d="M273.61,282.87c8.12.83,19.65,1.42,30.39,12.36,5.7,5.8,35.83,52.29,35.83,52.29S332.07,373.8,294.67,371C294.42,369.9,273.61,282.87,273.61,282.87Z" style="fill:#37474f"></path><path d="M324.7,346.65c0-11.77-20.26-33.94-34.72-48.74a180.32,180.32,0,0,0-16.37-15s-6.25-1.38-8.64-1.81c2.93,27-39.15,22.69-69.75,1.25-6.09,3.6-9.73,5.56-14.44,8.64-3,2-6.48,4.24-11.39,7.58-12.81,8.72-13.65,35.91-8.58,50.07l.08.24c5.26,14.68,15,42,19.89,62.44,1.33,5.59,0,14.94,0,15l-.12.85,63.71,26.27,68-39.24-1.17-35.37C316.48,375,324.7,365.25,324.7,346.65Z" style="fill:#455a64"></path><path d="M311.15,378.82c5.33-3.84,13.55-13.57,13.55-32.17,0-11.77-20.26-33.94-34.72-48.74-2-2-4-4-6-5.94,14.22,16.91,34.35,35.27,37.33,57.75C323.6,367.19,311.15,378.82,311.15,378.82Z" style="fill:#fff;opacity:0.6000000000000001"></path><path d="M311.15,378.82c5.33-3.84,13.55-13.57,13.55-32.17,0-11.77-20.26-33.94-34.72-48.74-2-2-4-4-6-5.94,14.22,16.91,34.35,35.27,37.33,57.75C323.6,367.19,311.15,378.82,311.15,378.82Z" style="fill:#FF2D55;opacity:0.30000000000000004"></path><path d="M201,277.93c8.08,9.25,29.1,21,48.84,17.9,17-2.66,9.18-16.9,9.18-16.9l5.94,2.13s9.25,18-12.84,21.84-44.19-5.82-56.91-20.59Z" style="fill:#37474f"></path></g><g id="freepik--mobile--inject-2"><path d="M386.94,297.22a1.27,1.27,0,0,0-1.25.06l-42.84,19a6.52,6.52,0,0,0-3,3.22l-31.32,84.57c-.25.66-.19,1.13.1,1.35l5.15,3.76a1.27,1.27,0,0,0,1.25-.07l42.84-19a6.5,6.5,0,0,0,3-3.21l31.32-84.58c.25-.66.19-1.13-.1-1.35Z" style="fill:#FF2D55"></path><path d="M346.26,321.33a5.76,5.76,0,0,0-1.28,1.92l-31.32,84.57c-.23.63-.2,1.08,0,1.31l-5.1-3.72c-.29-.22-.35-.69-.1-1.35l31.32-84.58a6,6,0,0,1,1.28-1.92Z" style="opacity:0.2"></path><path d="M315,409.1l42.84-19a6.5,6.5,0,0,0,3-3.21l31.32-84.58c.46-1.24-.14-1.81-1.35-1.27L348,320a6.52,6.52,0,0,0-3,3.22l-31.32,84.57C313.2,409.06,313.81,409.63,315,409.1Z" style="fill:#FF2D55"></path><path d="M315,409.1l42.84-19a6.5,6.5,0,0,0,3-3.21l31.32-84.58c.46-1.24-.14-1.81-1.35-1.27L348,320a6.52,6.52,0,0,0-3,3.22l-31.32,84.57C313.2,409.06,313.81,409.63,315,409.1Z" style="opacity:0.30000000000000004"></path><path d="M345.05,337.06l3.19-8.61a7.52,7.52,0,0,1,3.47-3.68l1.67-.74c2.19-1,3.3.07,2.47,2.32L352.66,335a7.59,7.59,0,0,1-3.47,3.69l-1.67.74C345.33,340.36,344.22,339.32,345.05,337.06Z" style="fill:#263238"></path><path d="M346.79,336a7,7,0,0,1,3.29-3.37c1.35-.6,2.06-.06,1.59,1.2a7,7,0,0,1-3.28,3.37C347,337.8,346.32,337.26,346.79,336Z" style="fill:#455a64"></path><path d="M348,335.47a3.59,3.59,0,0,1,1.68-1.72c.69-.31,1.06,0,.82.61a3.51,3.51,0,0,1-1.68,1.72C348.11,336.39,347.75,336.11,348,335.47Z" style="fill:#fff;opacity:0.2"></path><path d="M349.21,329.62a6.94,6.94,0,0,1,3.29-3.37c1.34-.6,2.06-.06,1.59,1.2a7,7,0,0,1-3.29,3.37C349.46,331.41,348.74,330.88,349.21,329.62Z" style="fill:#455a64"></path><path d="M350.4,329.09a3.51,3.51,0,0,1,1.68-1.72c.69-.31,1.06,0,.82.61a3.59,3.59,0,0,1-1.68,1.72C350.53,330,350.16,329.73,350.4,329.09Z" style="fill:#fff;opacity:0.2"></path><path d="M340.14,329.26l-.68-.5a.73.73,0,0,0-.71-.11l-.83.37a.72.72,0,0,0-.39.44l-2.84,7.68a1.34,1.34,0,0,0,.44,1.46l.69.49a.68.68,0,0,0,.71.11l.82-.36a.78.78,0,0,0,.39-.44l2.84-7.68A1.32,1.32,0,0,0,340.14,329.26Z" style="fill:#FF2D55"></path><path d="M340.14,329.26l-.68-.5a.73.73,0,0,0-.71-.11l-.83.37a.72.72,0,0,0-.39.44l-2.84,7.68a1.34,1.34,0,0,0,.44,1.46l.69.49a.68.68,0,0,0,.71.11l.82-.36a.78.78,0,0,0,.39-.44l2.84-7.68A1.32,1.32,0,0,0,340.14,329.26Z" style="opacity:0.4"></path><path d="M336.92,338.76l2.85-7.68a1.35,1.35,0,0,0-.44-1.46l-.69-.5a.69.69,0,0,0-1.11.34l-2.84,7.68a1.34,1.34,0,0,0,.44,1.46l.69.49A.67.67,0,0,0,336.92,338.76Z" style="fill:#FF2D55"></path><path d="M335.47,341.85l-.69-.5a.72.72,0,0,0-.71-.11l-.83.37a.74.74,0,0,0-.38.44L330,349.73a1.34,1.34,0,0,0,.45,1.46l.68.49a.7.7,0,0,0,.72.11l.82-.36a.78.78,0,0,0,.39-.44l2.84-7.68A1.33,1.33,0,0,0,335.47,341.85Z" style="fill:#FF2D55"></path><path d="M335.47,341.85l-.69-.5a.72.72,0,0,0-.71-.11l-.83.37a.74.74,0,0,0-.38.44L330,349.73a1.34,1.34,0,0,0,.45,1.46l.68.49a.7.7,0,0,0,.72.11l.82-.36a.78.78,0,0,0,.39-.44l2.84-7.68A1.33,1.33,0,0,0,335.47,341.85Z" style="opacity:0.4"></path><path d="M332.25,351.35l2.84-7.68a1.32,1.32,0,0,0-.44-1.46l-.69-.5a.68.68,0,0,0-1.1.34L330,349.73a1.34,1.34,0,0,0,.45,1.46l.68.49A.68.68,0,0,0,332.25,351.35Z" style="fill:#FF2D55"></path><path d="M385.69,297.28l-16.13,7.28-16.16,7.21-8.08,3.61-2,.9a5.47,5.47,0,0,0-1.79,1.16,6.26,6.26,0,0,0-1.3,1.69c-.3.62-.52,1.36-.78,2l-6.11,16.61L321,370.93l-6.18,16.58-6.26,16.55,6-16.63,6.1-16.61,12.21-33.22L339,321c.27-.69.47-1.37.81-2.08a6.94,6.94,0,0,1,1.39-1.79,5.77,5.77,0,0,1,1.91-1.22l2-.89,8.1-3.57,16.19-7.13Z" style="fill:#fff;opacity:0.5"></path></g><path d="M328.81,349.24l1.46-4c.26-6.42-4.35-9.06-7.39-1.8-2.41,5.76-12.17,15.29-14.53,22.7s-2.05,14.6-10.58,22.63c-9,8.53-72.13,29.94-72.13,29.94l-21.5-69.51s-8.1-37.33-30.39-52.66c-11.95,6.92-23.12,12.11-27.57,28.52s3.07,37.81,16.48,71.25c12.8,31.9,22.1,50.56,29.41,61.76,9,13.87,17.59,19.4,44.2,9s51.52-30,79.34-47.63c13.37-8.48,22.2-12.88,32.3-22,5-4.52,7.6-7.61,10.07-11.61a28.94,28.94,0,0,0,4.61-13.2,8.44,8.44,0,0,1,.3-2.56,16.83,16.83,0,0,1,1.1-2.31,16.69,16.69,0,0,0,2-4.42,26.73,26.73,0,0,0,.13-5.14,18.74,18.74,0,0,1,0-2.37,13,13,0,0,1,.59-2.39c.66-2,1.54-4.09,1.45-6.23a3.32,3.32,0,0,0-1.66-2.79s1.26-2.47,1.65-3.33a17.82,17.82,0,0,0,1.21-3.77,1.77,1.77,0,0,0-.16-1.5,1.61,1.61,0,0,0-.77-.47c-4.63-1.61-8.4,1.67-11.4,4.77-7.83,8.05-11.05,14.73-19.77,21.91-12,9.9-14.53,3.63-14.53,3.63Z" style="fill:#ffa8a7"></path><path d="M308.35,366.18c-2.35,7.41-2.05,14.6-10.58,22.63-8.09,7.63-59.39,25.55-70.15,29.26,12.26-4.16,47.43-15.5,60.9-21.09,14.28-5.93,17.17-13.23,18.34-19.42,1.49-7.93,2.19-13.55,3.91-16.41A24.41,24.41,0,0,0,308.35,366.18Z" style="fill:#fff;opacity:0.6000000000000001"></path><path d="M308.35,366.18c-2.35,7.41-2.05,14.6-10.58,22.63-8.09,7.63-59.39,25.55-70.15,29.26,12.26-4.16,47.43-15.5,60.9-21.09,14.28-5.93,17.17-13.23,18.34-19.42,1.49-7.93,2.19-13.55,3.91-16.41A24.41,24.41,0,0,0,308.35,366.18Z" style="fill:#FF2D55;opacity:0.30000000000000004"></path><path d="M324.7,340.42c2.22-.78,2.74,3.49,2.6,7.64s-2.58,12.19-2.6,12.27l2.55-6.88,2.9-7.85.12-.32C330.48,340.06,327.47,337.34,324.7,340.42Z" style="fill:#fff;opacity:0.7000000000000001"></path><path d="M324.7,340.42c2.22-.78,2.74,3.49,2.6,7.64s-2.58,12.19-2.6,12.27l2.55-6.88,2.9-7.85.12-.32C330.48,340.06,327.47,337.34,324.7,340.42Z" style="fill:#FF2D55;opacity:0.30000000000000004"></path><path d="M225.64,418.75c-11.84,4.22-18.54,9-18.54,9a37.09,37.09,0,0,1,17.19-13.38Z" style="fill:#f28f8f"></path><path d="M366.47,344.5c-1.19,2.54-2.6,5-4,7.38s-2.91,4.77-4.34,7.16c-.74,1.18-1.41,2.41-2.21,3.59s-1.61,2.31-2.49,3.4c-1.74,2.21-3.55,4.35-5.49,6.38l2.42-3.43c.82-1.14,1.63-2.27,2.42-3.42s1.58-2.29,2.31-3.47,1.41-2.38,2.14-3.59q2.21-3.58,4.57-7.05Z" style="fill:#f28f8f"></path><path d="M366.24,355.07a32.81,32.81,0,0,1-2.26,6.07c-.91,2-1.92,3.86-3,5.74s-2.19,3.72-3.4,5.51a48.51,48.51,0,0,1-3.89,5.17c1.1-1.86,2.13-3.74,3.2-5.6l3.18-5.59,3.17-5.6C364.28,358.89,365.35,357,366.24,355.07Z" style="fill:#f28f8f"></path><path d="M174.36,295.18c-8.28,3.77-21,10.28-28.18,24.94-5.85,11.9-4.46,24,0,47.14,3.34,17.34,8.92,43.76,8.92,43.76s10.82,6.13,32.88-.75,29.55-21.62,29.55-21.62l-14.77-51.48S196.23,304.4,174.36,295.18Z" style="fill:#37474f"></path><path d="M202.75,337.17a84,84,0,0,0-4.36-13.79c6.86,27.6,15.84,64,15.84,64a39.68,39.68,0,0,1-17,19.21h0c15-7.42,20.34-18,20.34-18Z" style="fill:#fff;opacity:0.5"></path><path d="M202.75,337.17a84,84,0,0,0-4.36-13.79c6.86,27.6,15.84,64,15.84,64a39.68,39.68,0,0,1-17,19.21h0c15-7.42,20.34-18,20.34-18Z" style="fill:#FF2D55;opacity:0.30000000000000004"></path><path id="freepik--Shadow--inject-2" d="M368.4,335.43c-3.35-1.16-6.25.24-8.73,2.27,4.18-.6,4.06,2.79-4.07,14.35A124.19,124.19,0,0,1,346.68,363c-2,2.26-5.5,4.45-3.23,7.86a10.36,10.36,0,0,1,1.35,2c.62,1.63-.65,3.46-.27,5.17s2.43,2.88,2.59,4.68c.15,1.59-1.23,2.88-1.71,4.39-.33,1-.24,2.14-.56,3.17a7.33,7.33,0,0,1-1.28,2.21c-2.48,3.16-4,4.31-9,8s-36.17,21-46.76,26.14c-25.22,12.29-65.25,30.78-78.45,26.53-7.28-2.35-15.83-24.48-20.31-37.09,17.47-7.47,20.31-14.51,24.18-21.43-8,7.26-34.62,15.3-45.28-17s-7.33-51.14,4.85-62.87,30.47-26.06,39.24-33.63c4.54-3.9,2-8,.27-16.36-1.64-7.82-2.31-19.65-4.58-30.1,0,0,1.94-7.35-4-8.12-3-.39,1.08,5.37-2.48,6.13-3.09.66-8.13,0-10.93-7.77s-2.19-20.76,9-20.09A10.14,10.14,0,0,0,188.13,207c-7,6.72-4.17,19.39,4,27.65,7.26,7.3,14.75,3.35,15.58,0l.61,31.82c0,4.74-1.32,6.79-7.43,11.58l-5.7,4.31c-6.09,3.6-9.73,5.56-14.44,8.64-1.89,1.24-3.95,2.58-6.42,4.23-8.28,3.77-21,10.28-28.18,24.94-5.85,11.9-4.46,24,0,47.14,3.34,17.34,8.92,43.76,8.92,43.76s4.85,2.74,14.66,2.49c9.25,21.71,16.43,35.58,22.32,44.6,9,13.87,17.59,19.4,44.19,9s51.53-30,79.35-47.63c13.37-8.48,22.2-12.88,32.3-22,5-4.52,7.6-7.61,10.07-11.61a28.81,28.81,0,0,0,4.6-13.2,8.77,8.77,0,0,1,.31-2.56,16.83,16.83,0,0,1,1.1-2.31,16.69,16.69,0,0,0,2-4.42,26.73,26.73,0,0,0,.13-5.14,18.74,18.74,0,0,1,0-2.37,13,13,0,0,1,.59-2.39c.66-2,1.54-4.09,1.45-6.23a3.32,3.32,0,0,0-1.66-2.79s1.26-2.47,1.65-3.33a17.82,17.82,0,0,0,1.21-3.77,1.77,1.77,0,0,0-.16-1.5A1.61,1.61,0,0,0,368.4,335.43Z" style="opacity:0.1"></path></g></g><g id="freepik--Likes--inject-2"><g id="freepik--Like--inject-2"><path d="M45.63,295.57s1-5.46.94-6.26-1.63-3.66-1.88-4.2,2.24-1.89,3.93-.29a8.74,8.74,0,0,1,2.83,5.23l6.25-2.79a2.1,2.1,0,0,1,2.74,1.13,2.31,2.31,0,0,1-.2,2.28,1.91,1.91,0,0,1,2,1.2,2.15,2.15,0,0,1-.68,2.57,2.57,2.57,0,0,1,1.07,1.31,2.33,2.33,0,0,1-.94,2.61,4.35,4.35,0,0,1,.91,1.3,2.38,2.38,0,0,1-1.43,3l-10.35,4.63Z" style="fill:#FF2D55"></path><rect x="42.31" y="296.25" width="4.94" height="14.92" transform="translate(-119.95 44.66) rotate(-24.06)" style="fill:#FF2D55"></rect></g><g id="freepik--like--inject-2"><path d="M396.15,123.31s-2.91-6.37-3.13-7.35.84-5,1-5.72-3.34-1.61-4.89.88a11,11,0,0,0-1.8,7.29L378.77,117a2.66,2.66,0,0,0-3,2.25,2.9,2.9,0,0,0,1,2.72,2.41,2.41,0,0,0-2.11,2.11,2.7,2.7,0,0,0,1.64,2.93,3.29,3.29,0,0,0-.9,1.94,3,3,0,0,0,2,2.89,5.37,5.37,0,0,0-.7,1.88,3,3,0,0,0,2.69,3.2l14.11,2.38Z" style="fill:#FF2D55"></path><rect x="390.35" y="129.88" width="18.83" height="6.23" transform="translate(202.23 505.12) rotate(-80.44)" style="fill:#FF2D55"></rect></g></g><g id="freepik--Hearts--inject-2"><path id="freepik--Heart--inject-2" d="M437.58,266.73l-2.2-2.31c-2.91-3.05-6.1-7.6-4.79-11.94a5.56,5.56,0,0,1,10.87,1.26,5.56,5.56,0,0,1,9.77,4.95C450,263,444.79,265,440.7,266Z" style="fill:#FF2D55"></path><path id="freepik--heart--inject-2" d="M108.28,92.27l-3.72-.68c-4.9-.9-11.11-3-12.88-8.09A6.58,6.58,0,0,1,103,77.14a6.58,6.58,0,0,1,12.78-2c1.74,5-1.76,10.52-5,14.31Z" style="fill:#FF2D55"></path></g><g id="freepik--Video--inject-2"><g id="freepik--video--inject-2"><path d="M268.82,7.7,225.08,33a2.24,2.24,0,0,0-1,1.77V76.4a2.24,2.24,0,0,0,1,1.77l1.68,1a2.25,2.25,0,0,0,2.05,0l43.74-25.26a2.26,2.26,0,0,0,1-1.77V10.44a2.25,2.25,0,0,0-1-1.77l-1.68-1A2.23,2.23,0,0,0,268.82,7.7Z" style="fill:#FF2D55"></path><path d="M268.82,7.7,225.08,33a2.24,2.24,0,0,0-1,1.77V76.4a2.24,2.24,0,0,0,1,1.77l1.68,1a2.25,2.25,0,0,0,2.05,0l43.74-25.26a2.26,2.26,0,0,0,1-1.77V10.44a2.25,2.25,0,0,0-1-1.77l-1.68-1A2.23,2.23,0,0,0,268.82,7.7Z" style="opacity:0.30000000000000004"></path><path d="M273.53,10.13c-.13-.42-.52-.55-1-.28L228.81,35.11a2.06,2.06,0,0,0-.73.76l-3.72-2.15a2,2,0,0,1,.72-.76L268.82,7.7a2.31,2.31,0,0,1,2.05,0l1.67,1A2.3,2.3,0,0,1,273.53,10.13Z" style="fill:#FF2D55"></path><path d="M273.53,10.13c-.13-.42-.52-.55-1-.28L228.81,35.11a2.06,2.06,0,0,0-.73.76l-3.72-2.15a2,2,0,0,1,.72-.76L268.82,7.7a2.31,2.31,0,0,1,2.05,0l1.67,1A2.3,2.3,0,0,1,273.53,10.13Z" style="fill:#fff;opacity:0.24"></path><path d="M272.54,9.85,228.81,35.11a2.25,2.25,0,0,0-1,1.77V78.55c0,.66.46.92,1,.59l43.74-25.26a2.26,2.26,0,0,0,1-1.77V10.44C273.57,9.79,273.11,9.52,272.54,9.85Z" style="fill:#FF2D55"></path><path d="M246.89,60.17a6.1,6.1,0,0,1-3.14-.83c-2.63-1.51-4.14-5-4.14-9.44a26,26,0,0,1,3.52-12.6,22.43,22.43,0,0,1,2.5-3.54h0a16.65,16.65,0,0,1,4.19-3.55c2.82-1.63,5.59-1.83,7.79-.56,2.62,1.52,4.13,5,4.13,9.44a26,26,0,0,1-3.52,12.6,19.26,19.26,0,0,1-6.69,7.1A9.37,9.37,0,0,1,246.89,60.17Zm-.1-25.41a21.69,21.69,0,0,0-2.34,3.3,24.55,24.55,0,0,0-3.31,11.84c0,3.93,1.23,6.89,3.37,8.12,1.7,1,3.92.79,6.25-.55a17.72,17.72,0,0,0,6.14-6.54,24.55,24.55,0,0,0,3.31-11.84c0-3.92-1.23-6.88-3.37-8.12-1.7-1-3.93-.79-6.25.56a14.8,14.8,0,0,0-3.8,3.23Z" style="fill:#fff"></path><path d="M256.53,42.13l-8.59,10.68c-.77,1-1.4.81-1.4-.35v-11c0-1.16.63-2,1.4-2l8.59.77C257.3,40.33,257.3,41.16,256.53,42.13Z" style="fill:#fff"></path></g></g><g id="freepik--Image--inject-2"><g id="freepik--image--inject-2"><path d="M468.65,132.35V194a1.93,1.93,0,0,1-.88,1.52l-53,30.63c-.49.28-.88.05-.88-.51v-2.78l52-30V133l1.93-1.11C468.26,131.55,468.65,131.79,468.65,132.35Z" style="fill:#e0e0e0"></path><path d="M465.84,133v61.4l-52,30V164a1.75,1.75,0,0,1,.26-.86,1.65,1.65,0,0,1,.62-.66Z" style="fill:#FF2D55"></path><path d="M465.84,133v61.4l-52,30V164a1.75,1.75,0,0,1,.26-.86,1.65,1.65,0,0,1,.62-.66Z" style="fill:#fff;opacity:0.8"></path><path d="M453,155a1.1,1.1,0,0,0-.18-.14h0l0,0-3.29-1.9h0a1.12,1.12,0,0,0-1.48.36l-11.7,28.86L428.53,177l-.17-.12h0l0,0h0L425.07,175h0a1.12,1.12,0,0,0-1.5.33l-11.34,23v23.2l3.3,1.91,51-29.46a1.9,1.9,0,0,0,.95-1.64V169.92Z" style="fill:#FF2D55"></path><path d="M453,154.8l-.18-.13h0l0,0-3.29-1.9h0a1.11,1.11,0,0,0-1.48.36L436.3,182l-7.77-5.12-.17-.11h0l0,0h0l-3.25-1.88h0a1.1,1.1,0,0,0-1.5.33l-11.34,23v23.4l3.3,1.91,51-29.46a1.9,1.9,0,0,0,.95-1.64V169.72Z" style="opacity:0.15"></path><path d="M415.53,223.64v-23.4l11.34-23a1.11,1.11,0,0,1,1.66-.22l10.87,7.15,11.91-29A1.11,1.11,0,0,1,453,155l14.47,14.91v22.62a1.9,1.9,0,0,1-.95,1.64Z" style="fill:#FF2D55"></path><polygon points="439.4 184.19 435.98 192.54 438.15 183.37 439.4 184.19" style="opacity:0.15"></polygon><path d="M470.79,129.07s0-.08,0-.11a2,2,0,0,0-.85-1.28l-1.55-.89a2,2,0,0,0-1.76,0L409.8,159.6a1.9,1.9,0,0,0-.88,1.53v66.71a2,2,0,0,0,.88,1.53l1.54.88a2,2,0,0,0,1.56.1l.06,0a.51.51,0,0,0,.15-.07l56.81-32.81a2,2,0,0,0,.88-1.52V129.21C470.8,129.16,470.79,129.11,470.79,129.07Zm-2.13,62.66a1.94,1.94,0,0,1-.89,1.53l-53,30.63c-.48.28-.88.05-.88-.51V164a1.75,1.75,0,0,1,.26-.86,1.8,1.8,0,0,1,.62-.66l53-30.63c.49-.28.89-.06.89.51Z" style="fill:#f0f0f0"></path><path d="M412.9,230.35a2,2,0,0,1-1.56-.1l-1.54-.88a2,2,0,0,1-.88-1.53V161.13a1.8,1.8,0,0,1,.25-.87l3.31,1.91a1.82,1.82,0,0,0-.26.87v66.71C412.22,230.23,412.52,230.46,412.9,230.35Z" style="fill:#e0e0e0"></path><path d="M470.79,129.07s0-.08,0-.11c-.11-.37-.45-.49-.85-.26l-56.81,32.82a1.71,1.71,0,0,0-.63.65,1.82,1.82,0,0,0-.26.87v66.7c0,.49.3.72.68.61l.06,0,.15-.08,56.81-32.8a2,2,0,0,0,.87-1.53V129.07ZM468.65,194a1.93,1.93,0,0,1-.88,1.52l-53,30.63c-.49.28-.88.05-.88-.51V164a1.75,1.75,0,0,1,.26-.86,1.65,1.65,0,0,1,.62-.66L465.84,133l1.93-1.11c.49-.28.88-.05.88.51Z" style="fill:#fafafa"></path><path d="M434.63,163.11l1.28-2.18-2.63-1.53h0a2.51,2.51,0,0,0-2.52.25,7.86,7.86,0,0,0-3.55,6.16,2.52,2.52,0,0,0,1,2.29h0l2.54,1.48,1.23-2.08A8.35,8.35,0,0,0,434.63,163.11Z" style="fill:#FF2D55"></path><path d="M434.63,163.11l1.28-2.18-2.63-1.53h0a2.51,2.51,0,0,0-2.52.25,7.86,7.86,0,0,0-3.55,6.16,2.52,2.52,0,0,0,1,2.29h0l2.54,1.48,1.23-2.08A8.35,8.35,0,0,0,434.63,163.11Z" style="opacity:0.15"></path><path d="M433.35,161.15c2-1.13,3.56-.21,3.56,2.06a7.86,7.86,0,0,1-3.56,6.16c-2,1.13-3.55.21-3.55-2.05A7.89,7.89,0,0,1,433.35,161.15Z" style="fill:#FF2D55"></path></g></g><g id="freepik--Clock--inject-2"><g id="freepik--clock--inject-2"><g id="freepik--speech-bubble--inject-2"><g id="freepik--message-icon--inject-2"><path d="M93.5,407.72a3.88,3.88,0,0,0,1.77,3l1.44.83a4,4,0,0,0,3.23.15c-.84.32-1.47-.16-1.47-1.17V396.06a3.61,3.61,0,0,1,.52-1.74l-5-2.87a3.61,3.61,0,0,0-.52,1.74Z" style="fill:#FF2D55"></path><path d="M93.5,407.72a3.88,3.88,0,0,0,1.77,3l1.44.83a4,4,0,0,0,3.23.15c-.84.32-1.47-.16-1.47-1.17V396.06a3.61,3.61,0,0,1,.52-1.74l-5-2.87a3.61,3.61,0,0,0-.52,1.74Z" style="opacity:0.2"></path><path d="M138,372.7a.92.92,0,0,0-.91-.76,1.62,1.62,0,0,0-.79.24L100.23,393A3.52,3.52,0,0,0,99,394.32a3.61,3.61,0,0,0-.52,1.74v14.52c0,.81.4,1.27,1,1.27a1.35,1.35,0,0,0,.42-.08l.06,0a1.77,1.77,0,0,0,.31-.15l36.23-20.93a2.73,2.73,0,0,0,1.6-2.94V373.2A2.2,2.2,0,0,0,138,372.7Z" style="fill:#FF2D55"></path><path d="M138,372.7c-.2-.75-.89-1-1.7-.52L100.24,393A3.54,3.54,0,0,0,99,394.32l-5-2.87a3.62,3.62,0,0,1,1.25-1.32l36.06-20.81a3.92,3.92,0,0,1,3.53,0l1.45.83A3.89,3.89,0,0,1,138,372.7Z" style="fill:#FF2D55"></path><path d="M138,372.7c-.2-.75-.89-1-1.7-.52L100.24,393A3.54,3.54,0,0,0,99,394.32l-5-2.87a3.62,3.62,0,0,1,1.25-1.32l36.06-20.81a3.92,3.92,0,0,1,3.53,0l1.45.83A3.89,3.89,0,0,1,138,372.7Z" style="fill:#fff;opacity:0.24"></path></g></g><path d="M105.65,394.47a.13.13,0,0,1,.17,0,.29.29,0,0,1,.07.22v1a1,1,0,0,1-.06.32c0,.11-.09.22-.13.3l-1.32,2.9a1.71,1.71,0,0,1,.74-.12.93.93,0,0,1,.56.25,1.58,1.58,0,0,1,.36.63,3.63,3.63,0,0,1,.12,1,5.35,5.35,0,0,1-.18,1.39,5.22,5.22,0,0,1-.51,1.24,5.05,5.05,0,0,1-.78,1,4.33,4.33,0,0,1-1,.77,2.7,2.7,0,0,1-1.1.4,1.26,1.26,0,0,1-.77-.14,1.09,1.09,0,0,1-.47-.54,2.35,2.35,0,0,1-.19-.8.52.52,0,0,1,.06-.3.55.55,0,0,1,.18-.21l.71-.41a.12.12,0,0,1,.15,0,.62.62,0,0,1,.12.19.61.61,0,0,0,.15.23.39.39,0,0,0,.23.12.72.72,0,0,0,.38,0,2.74,2.74,0,0,0,.55-.25,2.56,2.56,0,0,0,.88-.85,2.12,2.12,0,0,0,.34-1.16c0-.42-.11-.65-.34-.7a1.3,1.3,0,0,0-.88.24l-.75.43a.12.12,0,0,1-.17,0,.28.28,0,0,1-.07-.22v-1a1,1,0,0,1,.06-.33l.13-.3,1.26-2.77-2.48,1.44a.13.13,0,0,1-.17,0,.3.3,0,0,1-.07-.23v-1a.73.73,0,0,1,.07-.31.43.43,0,0,1,.17-.2Z" style="fill:#fff"></path><path d="M108.73,395.44a.12.12,0,0,1,.17,0,.29.29,0,0,1,.07.22V397a.66.66,0,0,1-.07.3.51.51,0,0,1-.17.22l-.84.48a.14.14,0,0,1-.17,0,.29.29,0,0,1-.07-.22v-1.36a.67.67,0,0,1,.07-.31.54.54,0,0,1,.17-.21Zm0,4.85a.12.12,0,0,1,.17,0,.29.29,0,0,1,.07.22v1.36a.66.66,0,0,1-.07.3.51.51,0,0,1-.17.22l-.84.48a.14.14,0,0,1-.17,0,.29.29,0,0,1-.07-.22v-1.36a.67.67,0,0,1,.07-.31.54.54,0,0,1,.17-.21Z" style="fill:#fff"></path><path d="M110,395.1a.35.35,0,0,1,0-.24.71.71,0,0,1,.1-.31l2-3.49.15-.25a.46.46,0,0,1,.17-.17l.7-.41a.14.14,0,0,1,.17,0,.3.3,0,0,1,.07.23v8.95a.66.66,0,0,1-.07.3.54.54,0,0,1-.17.21l-.73.42a.12.12,0,0,1-.17,0,.29.29,0,0,1-.07-.22v-6.85l-1.28,2.28a.51.51,0,0,1-.18.18.14.14,0,0,1-.16-.05Z" style="fill:#fff"></path><path d="M115.4,389.23a.87.87,0,0,1,.07-.31.54.54,0,0,1,.17-.21l3.39-1.95a.14.14,0,0,1,.17,0,.29.29,0,0,1,.07.22v1a.66.66,0,0,1-.07.3.54.54,0,0,1-.17.21L116.5,390l-.1,1.83a2.2,2.2,0,0,1,.48-.45,4.33,4.33,0,0,1,.39-.26,2.47,2.47,0,0,1,.94-.33,1.06,1.06,0,0,1,.75.18,1.56,1.56,0,0,1,.49.72,3.76,3.76,0,0,1,.18,1.27,6.81,6.81,0,0,1-.18,1.62,5.5,5.5,0,0,1-.51,1.33,4.2,4.2,0,0,1-.75,1,4.42,4.42,0,0,1-.92.72,2.57,2.57,0,0,1-1.06.39,1,1,0,0,1-.74-.17,1.26,1.26,0,0,1-.44-.62,2.92,2.92,0,0,1-.17-.94.59.59,0,0,1,.07-.31.58.58,0,0,1,.17-.2l.73-.42a.15.15,0,0,1,.17,0,.31.31,0,0,1,.09.19.91.91,0,0,0,.18.42.43.43,0,0,0,.26.16.72.72,0,0,0,.35,0,3.44,3.44,0,0,0,.39-.19,2.17,2.17,0,0,0,.83-.91,2.93,2.93,0,0,0,.32-1.36,1,1,0,0,0-.32-.86.77.77,0,0,0-.83.05,2.29,2.29,0,0,0-.42.31,1.39,1.39,0,0,0-.26.3,3,3,0,0,0-.18.25.74.74,0,0,1-.21.18l-.83.48a.14.14,0,0,1-.17,0,.32.32,0,0,1-.07-.22Z" style="fill:#fff"></path><path d="M122.07,389.29a3.27,3.27,0,0,1,.16-.72,5,5,0,0,1,.37-.84,4.46,4.46,0,0,1,.58-.81,3.45,3.45,0,0,1,.81-.66,2.12,2.12,0,0,1,.83-.29.94.94,0,0,1,.63.18,1.3,1.3,0,0,1,.41.67A3.94,3.94,0,0,1,126,388v4.07a.67.67,0,0,1-.08.3.34.34,0,0,1-.17.21l-.68.4a.13.13,0,0,1-.17,0,.3.3,0,0,1-.07-.23v-.45a4.31,4.31,0,0,1-.55,1,2.9,2.9,0,0,1-.9.8,1.75,1.75,0,0,1-.7.25.7.7,0,0,1-.51-.16,1.08,1.08,0,0,1-.32-.5,2.66,2.66,0,0,1-.11-.8,3.58,3.58,0,0,1,.44-1.75,5.29,5.29,0,0,1,1.18-1.42l1.47-1.23c0-.38-.08-.6-.25-.67a.71.71,0,0,0-.6.12,1,1,0,0,0-.35.3,2.81,2.81,0,0,0-.24.4l-.15.24-.15.12-.84.49c-.06,0-.11,0-.15,0S122.05,389.39,122.07,389.29Zm1.5,3a2.31,2.31,0,0,0,.54-.45,2.5,2.5,0,0,0,.4-.58,3.39,3.39,0,0,0,.25-.64,2.78,2.78,0,0,0,.08-.62v-.14l-1.23,1a2.72,2.72,0,0,0-.53.59,1.17,1.17,0,0,0-.16.6c0,.2.06.3.19.32A.74.74,0,0,0,123.57,392.33Z" style="fill:#fff"></path><path d="M128.83,384.31a4.25,4.25,0,0,1,.52-.92,2.42,2.42,0,0,1,.64-.58,1.18,1.18,0,0,1,.93-.21,1,1,0,0,1,.57.52,3.85,3.85,0,0,1,.28-.66,5.44,5.44,0,0,1,.37-.59,3.67,3.67,0,0,1,.4-.46,2.55,2.55,0,0,1,.4-.31,1.39,1.39,0,0,1,.86-.23.86.86,0,0,1,.55.39,2.22,2.22,0,0,1,.3.86,7.29,7.29,0,0,1,.09,1.19V387a.67.67,0,0,1-.08.3.41.41,0,0,1-.17.21l-.68.4a.13.13,0,0,1-.17,0,.3.3,0,0,1-.07-.23v-3.65a1.88,1.88,0,0,0-.24-1.19c-.16-.15-.37-.15-.66,0a1.65,1.65,0,0,0-.61.72,3.33,3.33,0,0,0-.28,1.42v3.72a.7.7,0,0,1-.07.31.46.46,0,0,1-.17.21l-.68.39a.14.14,0,0,1-.18,0,.34.34,0,0,1-.07-.22v-3.66a1.93,1.93,0,0,0-.23-1.18q-.24-.24-.66,0a1.85,1.85,0,0,0-.63.75,3.41,3.41,0,0,0-.26,1.46v3.66a.66.66,0,0,1-.07.3.54.54,0,0,1-.17.21l-.69.4a.12.12,0,0,1-.17,0,.26.26,0,0,1-.07-.22v-6.45a.7.7,0,0,1,.07-.31.54.54,0,0,1,.17-.21l.69-.39a.12.12,0,0,1,.17,0,.29.29,0,0,1,.07.22Z" style="fill:#fff"></path></g></g><g id="freepik--speech-bubbles--inject-2"><g id="freepik--speech-bubble--inject-2"><g id="freepik--message-icon--inject-2"><path d="M342.07,117.89l-3.66-2.11a.35.35,0,0,1-.17-.15l-.67-1.17,2.17-1.26-.07.19Z" style="fill:#e0e0e0"></path><path d="M316.32,119a3.88,3.88,0,0,0,1.77,3.05l1.44.83a4,4,0,0,0,3.23.15c-.83.32-1.47-.16-1.47-1.17V104.15a3.61,3.61,0,0,1,.52-1.74l-5-2.87a3.61,3.61,0,0,0-.52,1.74Z" style="fill:#e0e0e0"></path><path d="M339.84,113.14a.48.48,0,0,0-.3-.24h-.13a.54.54,0,0,0-.25.06l-16.35,9.46a.8.8,0,0,1-.23.11h0l-.07,0a.85.85,0,0,1-.26,0c-.41,0-.48-.48-.48-.77V104.15a3.09,3.09,0,0,1,.46-1.49,3,3,0,0,1,1.06-1.14L362.2,79.07a1.11,1.11,0,0,1,.54-.18c.09,0,.32,0,.43.39a2.33,2.33,0,0,1,0,.37V97.33a2.25,2.25,0,0,1-1.35,2.5L345,109.56a.41.41,0,0,0-.22.26l-2.59,7.46Z" style="fill:#fafafa"></path><path d="M362.68,79.4a1.13,1.13,0,0,1,0,.25V97.33c0,1,0,1.45-1.1,2.07l-16.82,9.72a1,1,0,0,0-.45.54l-2.22,6.42-1.84-3.19a1,1,0,0,0-.61-.47,1.15,1.15,0,0,0-.26,0,1,1,0,0,0-.5.13L322.55,122a.84.84,0,0,1-.14.06h-.09a1.14,1.14,0,0,1,0-.26V104.15a2.74,2.74,0,0,1,.4-1.26,2.51,2.51,0,0,1,.86-.93l38.9-22.46a.78.78,0,0,1,.23-.1m.06-1a1.62,1.62,0,0,0-.79.24l-38.9,22.46a3.52,3.52,0,0,0-1.24,1.32,3.61,3.61,0,0,0-.52,1.74v17.67c0,.81.4,1.27,1,1.27a1.35,1.35,0,0,0,.42-.08l.06,0a1.77,1.77,0,0,0,.31-.15l16.35-9.45,2.53,4.37a.36.36,0,0,0,.32.19.38.38,0,0,0,.36-.26l2.67-7.7,16.82-9.72a2.73,2.73,0,0,0,1.6-2.94V79.65a2.2,2.2,0,0,0-.06-.5.92.92,0,0,0-.91-.76Z" style="fill:#e0e0e0"></path><path d="M363.65,79.15c-.2-.75-.89-1-1.7-.52l-38.89,22.46a3.54,3.54,0,0,0-1.25,1.32l-5-2.87a3.49,3.49,0,0,1,1.24-1.31L357,75.77a3.94,3.94,0,0,1,3.54,0l1.44.83A3.89,3.89,0,0,1,363.65,79.15Z" style="fill:#f0f0f0"></path><path d="M334.55,102.75a5,5,0,0,0-2.25,3.89c0,1.44,1,2,2.25,1.3a5,5,0,0,0,2.25-3.89C336.8,102.61,335.79,102,334.55,102.75Z" style="fill:#455a64"></path><path d="M342.07,98.45a4.94,4.94,0,0,0-2.25,3.89c0,1.43,1,2,2.25,1.3a5,5,0,0,0,2.24-3.9C344.31,98.31,343.31,97.73,342.07,98.45Z" style="fill:#455a64"></path><path d="M349.58,94.14a5,5,0,0,0-2.25,3.9c0,1.43,1,2,2.25,1.3a5,5,0,0,0,2.25-3.9C351.83,94,350.82,93.43,349.58,94.14Z" style="fill:#455a64"></path></g></g><g id="freepik--speech-bubble--inject-2"><g id="freepik--Notification--inject-2"><g id="freepik--message-icon--inject-2"><path d="M399.48,350.27a3.92,3.92,0,0,0,1.77,3.06l1.44.83a4,4,0,0,0,3.23.15c-.83.31-1.47-.16-1.47-1.17V320.39a3.58,3.58,0,0,1,.52-1.74l-5-2.87a3.61,3.61,0,0,0-.52,1.74Z" style="fill:#e0e0e0"></path><path d="M411.71,350.4,406,353.72a1.27,1.27,0,0,1-.23.12h-.05a.85.85,0,0,1-.26,0c-.41,0-.48-.48-.48-.76V320.39a3.06,3.06,0,0,1,.46-1.49,2.94,2.94,0,0,1,1.06-1.14l33.95-19.61A1.19,1.19,0,0,1,441,298c.08,0,.32,0,.42.38a1.64,1.64,0,0,1,0,.38v32.75a2.25,2.25,0,0,1-1.34,2.5l-22.5,13Z" style="fill:#fafafa"></path><path d="M440.9,298.48a1.22,1.22,0,0,1,0,.26v32.75c0,1,0,1.45-1.1,2.07l-22.49,13-5.88,3.4-5.75,3.33-.14.07h-.09a1.11,1.11,0,0,1,0-.25V320.39a2.71,2.71,0,0,1,.4-1.26,2.63,2.63,0,0,1,.86-.94l34-19.61a2.25,2.25,0,0,1,.23-.1m.07-1a1.58,1.58,0,0,0-.8.24l-34,19.61a3.52,3.52,0,0,0-1.24,1.32,3.61,3.61,0,0,0-.52,1.74v32.75c0,.8.4,1.26,1,1.26a1.32,1.32,0,0,0,.42-.07l.06,0a1.77,1.77,0,0,0,.31-.15l5.74-3.32,5.88-3.4,22.49-13a2.73,2.73,0,0,0,1.6-2.94V298.74a2.2,2.2,0,0,0-.06-.5.91.91,0,0,0-.9-.76Z" style="fill:#e0e0e0"></path><path d="M441.88,298.24c-.21-.75-.89-1-1.71-.52l-33.95,19.61a3.54,3.54,0,0,0-1.25,1.32l-5-2.87a3.52,3.52,0,0,1,1.24-1.32l33.95-19.61a3.92,3.92,0,0,1,3.53,0l1.44.83A3.87,3.87,0,0,1,441.88,298.24Z" style="fill:#f0f0f0"></path></g></g><path d="M415.14,338.31a1.43,1.43,0,0,1-.73-.2,2.16,2.16,0,0,1-.91-2V322.57a5.12,5.12,0,0,1,2.18-4.13l17.11-9.87a1.69,1.69,0,0,1,1.74-.11,2.17,2.17,0,0,1,.91,2V324a5.12,5.12,0,0,1-2.18,4.12l-1.07.62v3.57a2,2,0,0,1-.83,1.59.89.89,0,0,1-.86.07l-4-1.94-10.34,6A2,2,0,0,1,415.14,338.31Zm18.66-29.12a1.09,1.09,0,0,0-.54.18h0l-17.11,9.87a4.21,4.21,0,0,0-1.72,3.33v13.57a1.32,1.32,0,0,0,.44,1.17.81.81,0,0,0,.81-.1l10.56-6.1a.49.49,0,0,1,.44,0l4.23,2a1.36,1.36,0,0,0,.36-.83v-3.84a.45.45,0,0,1,.23-.4l1.29-.75a4.21,4.21,0,0,0,1.72-3.32V310.44a1.33,1.33,0,0,0-.44-1.18A.54.54,0,0,0,433.8,309.19ZM433,309h0Z" style="fill:#455a64"></path><path d="M413.19,346.89a.58.58,0,0,1-.19,0,.74.74,0,0,1-.51-.78v-1.57l-.11.06a1.25,1.25,0,0,1-1.26.06,1.5,1.5,0,0,1-.64-1.37v-8.39a3.38,3.38,0,0,1,1.43-2.71l1.82-1.05a.47.47,0,0,1,.63.17.46.46,0,0,1-.16.63l-1.82,1a2.47,2.47,0,0,0-1,1.91v8.39c0,.32.09.52.19.57s.26,0,.32-.06l.81-.46a.43.43,0,0,1,.46,0,.46.46,0,0,1,.23.4v1.81l2.39-3.93a.44.44,0,0,1,.17-.16l5.73-3.31a2.45,2.45,0,0,0,1-1.9v-2.75a.47.47,0,0,1,.93,0v2.75a3.35,3.35,0,0,1-1.44,2.7l-5.63,3.25L414,346.36A1,1,0,0,1,413.19,346.89Z" style="fill:#455a64"></path><path d="M431.51,317.26l-14.08,8.13c-.4.23-.73,0-.73-.56h0a1.75,1.75,0,0,1,.73-1.39l14.08-8.13c.4-.23.73,0,.73.55h0A1.76,1.76,0,0,1,431.51,317.26Z" style="fill:#455a64"></path><path d="M431.51,323.33l-14.08,8.13c-.4.23-.73,0-.73-.55h0a1.76,1.76,0,0,1,.73-1.4l14.08-8.13c.4-.23.73,0,.73.56h0A1.74,1.74,0,0,1,431.51,323.33Z" style="fill:#455a64"></path><path d="M438.29,305.69A7.94,7.94,0,0,1,435,312c-1.83,1.06-3.31-.06-3.31-2.51a8,8,0,0,1,3.31-6.34C436.81,302.12,438.29,303.24,438.29,305.69Z" style="fill:#FF2D55"></path><path d="M399.49,328l-8,8.33a1.13,1.13,0,0,0,.24,1.75h0l5.94,3.43h0a1.13,1.13,0,0,0,.72.15l7.1-.84v-9.38Z" style="fill:#f0f0f0"></path><path d="M405.45,331.46l-8,8.33a1.12,1.12,0,0,0,.94,1.89l7.1-.84Z" style="fill:#fafafa"></path><path d="M398,340.34a.32.32,0,0,0,.22.55l7.25-.84v.79l-7.11.84a1.12,1.12,0,0,1-.94-1.89l7.05-7.3V330.4h1v2.18Z" style="fill:#e0e0e0"></path></g><g id="freepik--speech-bubble--inject-2"><g id="freepik--notification--inject-2"><g id="freepik--message-icon--inject-2"><path d="M115.75,235.81a1.23,1.23,0,0,0-.65-.17l-10.87-.76V249l5.93,3.42,11.73-11a1.31,1.31,0,0,0-.19-2.11Z" style="fill:#f0f0f0"></path><path d="M76.63,274.15a3.92,3.92,0,0,0,1.77,3.06l1.43.83a4,4,0,0,0,3.24.14c-.84.32-1.47-.16-1.47-1.16V244.27a3.58,3.58,0,0,1,.52-1.74l-5-2.87a3.58,3.58,0,0,0-.52,1.74Z" style="fill:#e0e0e0"></path><path d="M88.86,274.28l-5.74,3.32a1.27,1.27,0,0,1-.23.12h0l-.07,0a1,1,0,0,1-.27,0c-.41,0-.47-.48-.47-.76V244.27a3.15,3.15,0,0,1,.45-1.49,3,3,0,0,1,1.06-1.14l29.1-16.76a1.11,1.11,0,0,1,.54-.18c.09,0,.33,0,.43.39a1.55,1.55,0,0,1,0,.37v32.75a2.26,2.26,0,0,1-1.34,2.51L94.74,270.88Z" style="fill:#fafafa"></path><path d="M113.19,225.21a1.21,1.21,0,0,1,0,.25v32.75c0,1,0,1.46-1.1,2.08L94.49,270.45l-5.88,3.4-5.75,3.33-.14.07h-.09a1.11,1.11,0,0,1,0-.25V244.27a3,3,0,0,1,1.26-2.2L113,225.31a.91.91,0,0,1,.23-.1m.06-1a1.69,1.69,0,0,0-.79.24l-29.1,16.77a3.52,3.52,0,0,0-1.24,1.32,3.61,3.61,0,0,0-.52,1.74V277c0,.8.4,1.26,1,1.26a1.33,1.33,0,0,0,.43-.07l.06,0a1.77,1.77,0,0,0,.31-.15l5.74-3.32,5.88-3.4,17.63-10.17a2.73,2.73,0,0,0,1.6-2.94V225.46a2.2,2.2,0,0,0-.06-.5.92.92,0,0,0-.91-.76Z" style="fill:#e0e0e0"></path><path d="M110.16,238.3l10.87.77a1.3,1.3,0,0,1,.86,2.28l-11.73,11Z" style="fill:#fafafa"></path><path d="M121,239.06l-7.81-.76v1l7.81.76a.31.31,0,0,1,.2.54l-8,7.8v1.32l8.66-8.37A1.3,1.3,0,0,0,121,239.06Z" style="fill:#e0e0e0"></path><path d="M114.17,225c-.21-.75-.89-1-1.71-.51L83.37,241.21a3.47,3.47,0,0,0-1.25,1.32l-5-2.87a3.54,3.54,0,0,1,1.25-1.32l29.09-16.76a3.92,3.92,0,0,1,3.53,0l1.44.83A3.94,3.94,0,0,1,114.17,225Z" style="fill:#f0f0f0"></path></g></g><path d="M91.06,255.87a2.43,2.43,0,0,1-1.22-.31,3.11,3.11,0,0,1-1.34-2.85,8.69,8.69,0,0,1,4-6.9h0A2.76,2.76,0,0,1,97,248.4a8.69,8.69,0,0,1-4,6.9A3.93,3.93,0,0,1,91.06,255.87Zm1.92-9.2a7.72,7.72,0,0,0-3.48,6,1.79,1.79,0,0,0,3,1.72,7.7,7.7,0,0,0,3.48-6,1.79,1.79,0,0,0-3-1.73Z" style="fill:#455a64"></path><path d="M85.2,271.17V268A14.13,14.13,0,0,1,91.59,257l2.11-1.22c1.76-1,3.45-1.16,4.78-.4s2.11,2.43,2.11,4.52v2.43Zm11.41-15.3a5,5,0,0,0-2.41.74l-2.11,1.22A13,13,0,0,0,86.2,268v1.41l13.39-7.72v-1.85A4,4,0,0,0,98,256.22,2.76,2.76,0,0,0,96.61,255.87Z" style="fill:#455a64"></path><path d="M102.26,247a2.09,2.09,0,0,1-1-.26,2.59,2.59,0,0,1-1.12-2.38,7.22,7.22,0,0,1,3.32-5.74,2.3,2.3,0,0,1,3.74,2.15,7.24,7.24,0,0,1-3.32,5.75A3.26,3.26,0,0,1,102.26,247Zm2.78-8a2.4,2.4,0,0,0-1.18.37,6.42,6.42,0,0,0-2.9,5,1.49,1.49,0,0,0,2.48,1.44,6.44,6.44,0,0,0,2.91-5,1.79,1.79,0,0,0-.71-1.65A1.19,1.19,0,0,0,105,239Z" style="fill:#455a64"></path><path d="M104.47,246.88l-1.77,1A11.75,11.75,0,0,0,98,254a.34.34,0,0,0,.29.45h0a.45.45,0,0,0,.53-.28,10.75,10.75,0,0,1,4.34-5.59l1.76-1a4,4,0,0,1,2-.62,2.3,2.3,0,0,1,1.14.29,3.36,3.36,0,0,1,1.35,3v1.55l-8,4.6a.49.49,0,0,0-.2.59h0a.33.33,0,0,0,.49.18l8.51-4.91v-2a4.13,4.13,0,0,0-1.76-3.76A3.91,3.91,0,0,0,104.47,246.88Z" style="fill:#455a64"></path><path d="M110.23,234.33a6.62,6.62,0,0,1-2.76,5.27c-1.52.87-2.75-.06-2.75-2.09a6.59,6.59,0,0,1,2.75-5.26C109,231.37,110.23,232.3,110.23,234.33Z" style="fill:#FF2D55"></path></g><g id="freepik--speech-bubble--inject-2"><g id="freepik--speech-bubble--inject-2"><path d="M59.3,170.47l-3.72-7,3-8.64v-5.29l-9.16,5.29v5.29L53.35,167a.68.68,0,0,0,.27.24h0Z" style="fill:#FF2D55"></path><path d="M59.3,170.47l-3.72-7,3-8.64v-5.29l-9.16,5.29v5.29L53.35,167a.68.68,0,0,0,.27.24h0Z" style="opacity:0.2"></path><path d="M91.56,112.48a6.1,6.1,0,0,0-2.74-4.76l-2.24-1.29a6,6,0,0,0-5.49,0L21.47,140.88a6.08,6.08,0,0,0-2.75,4.76v26.79a6.08,6.08,0,0,0,2.75,4.76l2.24,1.29a6,6,0,0,0,5.49,0l26-15,3.93,6.81a.59.59,0,0,0,1.06-.1l4.16-12L88.82,144a6.1,6.1,0,0,0,2.74-4.76Z" style="fill:#FF2D55"></path><path d="M18.72,172.43a6.08,6.08,0,0,0,2.75,4.76l2.24,1.29a6.13,6.13,0,0,0,5,.22c-1.29.49-2.28-.24-2.28-1.81V150.1a5.58,5.58,0,0,1,.81-2.7l-7.73-4.47a5.65,5.65,0,0,0-.81,2.71Z" style="opacity:0.2"></path><path d="M91.47,111.7c-.32-1.17-1.38-1.54-2.65-.81L29.2,145.35a5.41,5.41,0,0,0-1.94,2.05l-7.72-4.46a5.62,5.62,0,0,1,1.93-2.05l59.61-34.46a6.12,6.12,0,0,1,5.5,0l2.24,1.29A6,6,0,0,1,91.47,111.7Z" style="fill:#fff;opacity:0.24"></path></g><path d="M41.58,159.85a.26.26,0,0,1,.35,0,.58.58,0,0,1,.15.45v3a1.45,1.45,0,0,1-.15.62.92.92,0,0,1-.35.43L33,169.34a.27.27,0,0,1-.35,0,.64.64,0,0,1-.14-.45V150.49a1.59,1.59,0,0,1,.14-.62,1,1,0,0,1,.35-.43l2.42-1.4a.26.26,0,0,1,.35,0,.58.58,0,0,1,.15.45V163.1Z" style="fill:#fff"></path><path d="M45.09,162.38a.27.27,0,0,1-.35,0,.6.6,0,0,1-.15-.45V143.53a1.45,1.45,0,0,1,.15-.62.92.92,0,0,1,.35-.43l2.42-1.4a.26.26,0,0,1,.35,0,.58.58,0,0,1,.15.45v18.36a1.45,1.45,0,0,1-.15.63,1,1,0,0,1-.35.43Z" style="fill:#fff"></path><path d="M55.43,156.41c-.48.27-.81.08-1-.58l-3.77-15.59c0-.11,0-.19,0-.22a.41.41,0,0,1,0-.11,1.19,1.19,0,0,1,.12-.51.74.74,0,0,1,.28-.35l2.33-1.35c.25-.14.42-.16.53-.06a.63.63,0,0,1,.19.36l2.57,11,2.56-14a2.11,2.11,0,0,1,.2-.58,1.2,1.2,0,0,1,.52-.55l2.33-1.34a.2.2,0,0,1,.28,0,.45.45,0,0,1,.13.37s0,.08,0,.12a2.6,2.6,0,0,0,0,.28L58.84,153.3a2.37,2.37,0,0,1-1,1.7Z" style="fill:#fff"></path><path d="M74.53,140.83a.28.28,0,0,1,.36,0,.67.67,0,0,1,.14.46v3a1.51,1.51,0,0,1-.14.62,1,1,0,0,1-.36.44l-8.75,5.05a.26.26,0,0,1-.35,0,.62.62,0,0,1-.14-.45V131.59a1.6,1.6,0,0,1,.14-.63,1,1,0,0,1,.35-.43l8.61-5a.27.27,0,0,1,.35,0,.6.6,0,0,1,.15.45v3a1.41,1.41,0,0,1-.15.62,1,1,0,0,1-.35.43l-5.69,3.28v3.07l5.28-3a.27.27,0,0,1,.35,0,.62.62,0,0,1,.15.46v3a1.38,1.38,0,0,1-.15.62A.87.87,0,0,1,74,138l-5.28,3v3.19Z" style="fill:#fff"></path><path d="M82.36,126.24c2.27-1.31,4.11-.25,4.11,2.38a9.12,9.12,0,0,1-4.11,7.13c-2.28,1.31-4.12.25-4.12-2.38A9.07,9.07,0,0,1,82.36,126.24Z" style="fill:#fff"></path></g><g id="freepik--message-icon--inject-2"><path d="M355,286.38l-3.65-2.11a.34.34,0,0,1-.18-.15l-.67-1.17,2.17-1.26-.06.2Z" style="fill:#e0e0e0"></path><path d="M339.85,281.31a3.89,3.89,0,0,0,1.77,3.06l1.44.83a4,4,0,0,0,3.23.15c-.83.31-1.47-.16-1.47-1.17V246.66a3.64,3.64,0,0,1,.52-1.74l-5-2.87a3.64,3.64,0,0,0-.52,1.75Z" style="fill:#e0e0e0"></path><path d="M352.77,281.63a.48.48,0,0,0-.31-.23.27.27,0,0,0-.13,0,.47.47,0,0,0-.25.07l-5.74,3.32-.23.11h-.05a.63.63,0,0,1-.26.05c-.41,0-.48-.48-.48-.76V246.66a3.06,3.06,0,0,1,.46-1.48,3,3,0,0,1,1.06-1.15l38.89-22.45a1.19,1.19,0,0,1,.54-.17c.09,0,.32,0,.43.39a2.21,2.21,0,0,1,0,.37v37.51a2.25,2.25,0,0,1-1.35,2.51L358,278.05a.49.49,0,0,0-.22.27l-2.58,7.45Z" style="fill:#fafafa"></path><path d="M386.21,221.92a1.07,1.07,0,0,1,0,.25v37.51c0,1,0,1.45-1.1,2.08l-27.43,15.85a.94.94,0,0,0-.44.54L355,284.57l-1.84-3.19a1,1,0,0,0-.61-.47,1.09,1.09,0,0,0-.26,0,1,1,0,0,0-.5.13l-5.75,3.33a.61.61,0,0,1-.14.07h0l0,0a.78.78,0,0,1,0-.26V246.66a2.67,2.67,0,0,1,.4-1.25,2.63,2.63,0,0,1,.86-.94L386,222a.58.58,0,0,1,.23-.1m.06-1a1.55,1.55,0,0,0-.79.24l-38.9,22.45a3.52,3.52,0,0,0-1.24,1.32,3.61,3.61,0,0,0-.52,1.74v37.52c0,.8.4,1.26,1,1.26a1.32,1.32,0,0,0,.42-.07l.06,0a1.77,1.77,0,0,0,.31-.15l5.74-3.32,2.53,4.37a.36.36,0,0,0,.32.19.38.38,0,0,0,.36-.25l2.67-7.71,27.43-15.86a2.73,2.73,0,0,0,1.6-2.94V222.17a2.2,2.2,0,0,0-.06-.5.92.92,0,0,0-.91-.76Z" style="fill:#e0e0e0"></path><path d="M387.18,221.67c-.2-.75-.89-1-1.7-.52l-38.89,22.46a3.44,3.44,0,0,0-1.24,1.32l-5-2.87a3.52,3.52,0,0,1,1.24-1.32l38.88-22.46a3.94,3.94,0,0,1,3.54,0l1.44.83A3.89,3.89,0,0,1,387.18,221.67Z" style="fill:#f0f0f0"></path><path d="M350.45,250.25a1.23,1.23,0,0,1,.55-.95l28.05-16.19a1.19,1.19,0,0,1,1.1,0l.62.36a1.2,1.2,0,0,1,.54.94v21.51a1.22,1.22,0,0,1-.54,1l-28.06,16.19a1.17,1.17,0,0,1-1.09,0l-.62-.35a1.25,1.25,0,0,1-.55-.95Z" style="fill:#FF2D55"></path><path d="M350.45,250.25a1.23,1.23,0,0,1,.55-.95l28.05-16.19a1.19,1.19,0,0,1,1.1,0l.62.36a1.2,1.2,0,0,1,.54.94v21.51a1.22,1.22,0,0,1-.54,1l-28.06,16.19a1.17,1.17,0,0,1-1.09,0l-.62-.35a1.25,1.25,0,0,1-.55-.95Z" style="fill:#fff;opacity:0.24"></path><path d="M353,251.11l-2.41-1.4a1.15,1.15,0,0,0-.16.54v21.51a1.25,1.25,0,0,0,.55.95l.62.35a1.17,1.17,0,0,0,1.09,0l.31-.17Z" style="fill:#FF2D55"></path><path d="M353,251.11l-2.41-1.4a1.15,1.15,0,0,0-.16.54v21.51a1.25,1.25,0,0,0,.55.95l.62.35a1.17,1.17,0,0,0,1.09,0l.31-.17Z" style="opacity:0.30000000000000004"></path><path d="M381.31,234.42v21.5a1,1,0,0,1-.17.55.94.94,0,0,1-.32.36h0l0,0-28.06,16.19h0a.37.37,0,0,1-.37.05.38.38,0,0,1-.18-.36V251.24a.48.48,0,0,1,.62-.48l11.8,2.8,1.54.37a1,1,0,0,0,1-.37l1.79-2.49,12-16.77C381.15,234,381.31,234.07,381.31,234.42Z" style="fill:#FF2D55"></path><path d="M380.77,256.87l0,0h0a.94.94,0,0,0,.32-.36,1,1,0,0,0,.17-.54l-12.41-4.86,8.31,7.85Z" style="fill:#FF2D55"></path><path d="M380.77,256.87l0,0h0a.94.94,0,0,0,.32-.36,1,1,0,0,0,.17-.54v-.51l-12.41-4.35,8.31,7.85Z" style="opacity:0.2"></path><path d="M352.16,272.75a.38.38,0,0,0,.18.36.37.37,0,0,0,.37-.05h0l9.66-5.57,2.21-13.93-12.42,18.83Z" style="fill:#FF2D55"></path><path d="M352.16,272.75a.38.38,0,0,0,.18.36.37.37,0,0,0,.37-.05h0l9.66-5.57,2.21-13.93-12.42,17.51Z" style="opacity:0.2"></path><path d="M381.14,256.47a.94.94,0,0,1-.32.36h0l-28.09,16.22h0a.37.37,0,0,1-.37.05l13.43-21.45a2.11,2.11,0,0,1,2.64-.81Z" style="fill:#FF2D55"></path><path d="M352.39,250.73l12.77,5.63a2.08,2.08,0,0,0,2.61-.8l13.4-21.45Z" style="opacity:0.30000000000000004"></path><path d="M352.39,250.73l12.86,4.8a2.09,2.09,0,0,0,2.47-.81l13.45-20.61Z" style="fill:#FF2D55"></path><g id="freepik--notification--inject-2"><path d="M389.4,227.28,387.18,226h0a3.78,3.78,0,0,0-3.76.39,11.8,11.8,0,0,0-5.35,9.27,3.75,3.75,0,0,0,1.56,3.46h0l2,1.16.48-.79a5.38,5.38,0,0,0,1.53-.6A11.86,11.86,0,0,0,389,229.6a5.77,5.77,0,0,0-.17-1.37Z" style="fill:#f28f8f"></path><path d="M378.25,233.84a8.63,8.63,0,0,0-.2,1.8,3.75,3.75,0,0,0,1.56,3.46h0l2,1.16.48-.79a5.38,5.38,0,0,0,1.53-.6,8.21,8.21,0,0,0,1.46-1.08Z" style="opacity:0.1"></path><path d="M385.51,227.58a11.84,11.84,0,0,0-5.36,9.27c0,3.41,2.4,4.8,5.36,3.09a11.85,11.85,0,0,0,5.35-9.27C390.86,227.26,388.46,225.87,385.51,227.58Z" style="fill:#ffa8a7"></path><path d="M387.62,232.33V231c0-1.49-.91-2.18-2-1.53h0a4.85,4.85,0,0,0-2,3.88v1.17a4.64,4.64,0,0,1-.69,2.29h0a1.33,1.33,0,0,0-.17.6h0c0,.38.23.55.52.39l4.74-2.74a1.23,1.23,0,0,0,.51-1h0a.45.45,0,0,0-.15-.39h0A1.39,1.39,0,0,1,387.62,232.33Z" style="fill:#fff"></path><path d="M386.56,236.29a2.35,2.35,0,0,1-1,1.87c-.54.31-1,0-1-.74Z" style="fill:#fff"></path></g></g></g><g id="freepik--Stars--inject-2"><g id="freepik--stars--inject-2"><path d="M471.65,68.87c0,2.39,3.71,2.39,3.68,0S471.61,66.49,471.65,68.87Z" style="fill:#e0e0e0"></path><path d="M453.1,87.89l3.61,1.25c1.31,5.07,1,5,4.08.78,5.3.3,5.07.66,2-3.64,1.91-4.94,2.19-4.61-2.85-3-4.11-3.35-3.71-3.51-3.76,1.76C456,85.42,451.72,87.21,453.1,87.89Z" style="fill:#e0e0e0"></path></g></g><g id="freepik--Moon--inject-2"><path id="freepik--moon--inject-2" d="M457.94,52.74v.12a25.21,25.21,0,1,1-24.11-27.65,19.9,19.9,0,1,0,24.12,27.53Z" style="fill:#e0e0e0"></path></g></svg>